<svg width="26" height="23" viewBox="0 0 26 23" fill="none" xmlns="http://www.w3.org/2000/svg">
<rect y="2" width="26" height="21" fill="#41A5FF"/>
<path d="M2 4H24V21H2V4Z" fill="white"/>
<rect x="19" y="6" width="3" height="3" fill="#41A5FF"/>
<rect x="19" y="11" width="3" height="3" fill="#41A5FF"/>
<path d="M19 16H22V19H19V16Z" fill="#41A5FF"/>
<rect x="14" y="11" width="3" height="3" fill="#41A5FF"/>
<rect x="14" y="16" width="3" height="3" fill="#41A5FF"/>
<rect x="9" y="11" width="3" height="3" fill="#41A5FF"/>
<rect x="9" y="16" width="3" height="3" fill="#41A5FF"/>
<rect x="4" y="11" width="3" height="3" fill="#41A5FF"/>
<rect x="4" y="16" width="3" height="3" fill="#41A5FF"/>
<rect x="14" y="6" width="3" height="3" fill="#41A5FF"/>
<rect width="2" height="5" transform="matrix(-1 0 0 1 19 0)" fill="#41A5FF"/>
<rect width="2" height="5" transform="matrix(-1 0 0 1 11 0)" fill="#41A5FF"/>
</svg>
