<svg xmlns="http://www.w3.org/2000/svg" version="1.1" xmlns:xlink="http://www.w3.org/1999/xlink" xmlns:svgjs="http://svgjs.com/svgjs" width="1920" height="1080" preserveAspectRatio="none" viewBox="0 0 1920 1080"><g mask="url(&quot;#SvgjsMask1080&quot;)" fill="none"><rect width="1920" height="1080" x="0" y="0" fill="rgba(21, 67, 96, 1)"></rect><path d="M0,597.645C126.828,624.052,270.237,660.057,380.737,592.438C491.418,524.708,502.948,372.31,559.266,255.408C616.999,135.569,725.616,29.747,715.719,-102.905C705.696,-237.256,596.138,-338.294,507.408,-439.672C419.085,-540.585,329.953,-647.909,202.419,-689.376C73.242,-731.377,-70.663,-720.151,-196.281,-668.47C-315.508,-619.418,-396.568,-513.835,-474.285,-410.97C-547.51,-314.05,-603.052,-208.777,-632.604,-90.955C-664.82,37.489,-722.533,185.675,-652.051,297.782C-580.891,410.967,-412.336,396.741,-290.869,452.601C-190.402,498.804,-108.26,575.104,0,597.645" fill="#103247"></path><path d="M1920 1862.9479999999999C2064.095 1865.9189999999999 2161.581 1722.371 2285.105 1648.114 2413.4049999999997 1570.9859999999999 2566.743 1535.001 2660.138 1418.01 2767.515 1283.503 2854.527 1118.871 2844.776 947.037 2834.754 770.425 2726.245 615.3820000000001 2607.169 484.56500000000005 2490.082 355.933 2342.089 259.89099999999996 2175.073 211.30100000000004 2008.328 162.78999999999996 1827.295 149.49900000000002 1664.651 210.36 1507.259 269.256 1388.024 398.851 1296.7640000000001 539.963 1213.594 668.566 1168.88 819.3009999999999 1171.807 972.426 1174.472 1111.866 1241.152 1237.588 1312.391 1357.4859999999999 1377.318 1466.762 1466.728 1551.965 1564.445 1633.255 1675.159 1725.357 1776.016 1859.979 1920 1862.9479999999999" fill="#1b5479"></path></g><defs><mask id="SvgjsMask1080"><rect width="1920" height="1080" fill="#ffffff"></rect></mask></defs></svg>