<svg width="6" height="5" viewBox="0 0 6 5" fill="none" xmlns="http://www.w3.org/2000/svg">
<path d="M2.97998 2.494C2.9767 2.49416 2.97338 2.49452 2.97002 2.49452H2.96998L2.73564 2.6817L2.53268 2.32422C2.304 2.40618 2.03664 2.5763 1.89505 2.93028L1.71795 3.35253L1.42225 2.62052H0.890625L1.47275 4.07872H2.94076H3.00654H4.46964L5.0561 2.62052H4.5251L4.22936 3.35253L4.05229 2.93028C3.91107 2.57726 3.64475 2.40706 3.41645 2.32486L3.21393 2.68172L2.97954 2.49454L2.97998 2.494ZM2.96988 3.86365C2.91534 3.86365 2.87118 3.81945 2.87118 3.76491C2.87118 3.71035 2.91536 3.66615 2.96988 3.66615C3.02442 3.66615 3.06864 3.71035 3.06864 3.76491C3.06862 3.81945 3.0244 3.86365 2.96988 3.86365V3.86365ZM2.96988 3.44047C2.91534 3.44047 2.87118 3.39627 2.87118 3.34175C2.87118 3.28719 2.91536 3.24299 2.96988 3.24299C3.02442 3.24299 3.06864 3.28719 3.06864 3.34175C3.06862 3.39627 3.0244 3.44047 2.96988 3.44047V3.44047ZM2.96988 3.01727C2.91534 3.01727 2.87118 2.97307 2.87118 2.91855C2.87118 2.86398 2.91536 2.81978 2.96988 2.81978C3.02442 2.81978 3.06864 2.86398 3.06864 2.91855C3.06862 2.97307 3.0244 3.01727 2.96988 3.01727V3.01727Z" fill="#F46275"/>
<path d="M5.05859 2.62109L4.47213 4.07929H4.31641L4.89851 2.62109H5.05859Z" fill="#F48875"/>
<path d="M4.52734 2.62018H5.05835H5.05895L5.13809 2.42188H4.60742L4.52734 2.62018Z" fill="#63BCE7"/>
<path d="M5.06081 1.66406C5.01958 1.66406 4.9859 1.70446 4.98526 1.75406C4.98526 1.75452 4.98514 1.75498 4.98514 1.75544V1.90512H4.59136C4.54112 1.90512 4.5 1.94621 4.5 1.99647V2.30511V2.33105C4.5 2.38127 4.54114 2.42239 4.59136 2.42239H4.60582H5.13649V1.95643V1.75542C5.13647 1.70518 5.10245 1.66406 5.06081 1.66406V1.66406Z" fill="#F8AF23"/>
<path d="M2.59342 2.30469C2.57528 2.31023 2.55678 2.31629 2.538 2.32297C2.53704 2.32333 2.53612 2.32361 2.53516 2.32395V2.32397L2.73812 2.68145L2.97246 2.49427L2.80238 2.30469H2.59342Z" fill="#63BCE7"/>
<path d="M3.35559 2.30469H3.14668L2.97656 2.49427L3.21094 2.68145L3.41347 2.32459L3.41349 2.32449C3.39371 2.31743 3.37465 2.31051 3.35559 2.30469V2.30469Z" fill="#63BCE7"/>
<path d="M2.59344 2.30469C2.5753 2.31023 2.5568 2.31629 2.538 2.32297C2.53704 2.32333 2.53612 2.32361 2.53516 2.32395V2.32397L2.73812 2.68145L2.8526 2.59001L2.6906 2.30469H2.59344Z" fill="#6377E7"/>
<path d="M3.36122 2.30469H3.26326L3.10156 2.58961L3.21656 2.68145L3.41909 2.32459L3.41911 2.32451C3.39935 2.31745 3.38029 2.31053 3.36122 2.30469V2.30469Z" fill="#63E2E7"/>
<path d="M1.41938 2.62018L1.33926 2.42188H0.808594L0.887734 2.62018H0.887754H1.41938Z" fill="#63BCE7"/>
<path d="M1.3537 2.42239C1.40394 2.42239 1.44506 2.38125 1.44506 2.33105V2.30511V1.99647C1.44506 1.94619 1.40392 1.90512 1.3537 1.90512H0.959915V1.75544C0.959915 1.70518 0.925855 1.66406 0.884254 1.66406C0.842654 1.66406 0.808594 1.7052 0.808594 1.75544V1.95645V2.42241H1.33926H1.3537V2.42239Z" fill="#F8AF23"/>
<path d="M0.808594 2.42188L0.887734 2.62018H0.887754H1.04734L0.968195 2.42188H0.808594Z" fill="#6377E7"/>
<path d="M0.968195 1.95643V1.90512H0.959915V1.75544C0.959915 1.70518 0.925855 1.66406 0.884254 1.66406C0.842654 1.66406 0.808594 1.7052 0.808594 1.75544V1.95645V2.42241H0.968195V1.95643Z" fill="#F87023"/>
<path d="M4.97656 1.95643V1.90512H4.98484V1.75544C4.98484 1.70518 5.0189 1.66406 5.0605 1.66406C5.1021 1.66406 5.13616 1.7052 5.13616 1.75544V1.95645V2.42241H4.97656V1.95643Z" fill="#F8D323"/>
<path d="M0.890625 2.62109L1.47273 4.07929H1.63281L1.05071 2.62109H0.890625Z" fill="#F43075"/>
<path d="M5.13327 2.42188L5.05413 2.62018H5.05411H4.89453L4.97367 2.42188H5.13327Z" fill="#63E2E7"/>
<path d="M4.02817 4.07915H3.86849L3.75781 3.39258L4.02817 4.07915Z" fill="#F43075"/>
<path d="M1.91406 4.07915H2.07374L2.18445 3.39258L1.91406 4.07915Z" fill="#F43075"/>
<path d="M2.96696 2.49425H2.967C2.97036 2.49425 2.97368 2.49387 2.97696 2.49373L3.14662 2.30469H2.79688L2.96696 2.49425Z" fill="#F8AF23"/>
<path d="M1.35863 1.90392C1.40887 1.90392 1.44999 1.945 1.44999 1.99526V2.3039H2.59286H2.593H2.80196H3.15172H3.15174H3.36065H4.50144V1.99526C4.50144 1.94498 4.54258 1.90392 4.5928 1.90392H4.98658V1.75424C4.98658 1.75378 4.9867 1.75332 4.9867 1.75286V0.672267C4.9867 0.617266 4.9417 0.572266 4.8867 0.572266H1.06484C1.00984 0.572266 0.964844 0.617266 0.964844 0.672267V1.75424V1.90392H1.35863ZM4.4137 1.36887C4.45702 1.36259 4.5083 1.32529 4.52768 1.28601C4.54706 1.24675 4.57878 1.24675 4.59818 1.28601C4.61756 1.32529 4.66884 1.36257 4.71216 1.36887C4.75548 1.37515 4.76528 1.40533 4.73392 1.43591C4.7026 1.46647 4.68298 1.52678 4.69036 1.56994C4.69778 1.6131 4.67212 1.63174 4.63336 1.61134C4.5946 1.59096 4.53118 1.59096 4.49246 1.61134C4.4537 1.63172 4.42804 1.6131 4.43542 1.56994C4.44284 1.52678 4.42324 1.46647 4.39185 1.43591C4.36057 1.40533 4.37033 1.37515 4.4137 1.36887V1.36887ZM3.62299 1.36887C3.66635 1.36259 3.71763 1.32529 3.73705 1.28601C3.75643 1.24675 3.78811 1.24675 3.80747 1.28601C3.82689 1.32529 3.87817 1.36257 3.92153 1.36887C3.96481 1.37515 3.97461 1.40533 3.94329 1.43591C3.91193 1.46647 3.89231 1.52678 3.89973 1.56994C3.90711 1.6131 3.88145 1.63174 3.84273 1.61134C3.80395 1.59096 3.74055 1.59096 3.70175 1.61134C3.66303 1.63172 3.63737 1.6131 3.64475 1.56994C3.65217 1.52678 3.63257 1.46647 3.60119 1.43591C3.56991 1.40533 3.57971 1.37515 3.62299 1.36887ZM2.83236 1.36887C2.87568 1.36259 2.92698 1.32529 2.94634 1.28601C2.96576 1.24675 2.99744 1.24675 3.01684 1.28601C3.03622 1.32529 3.0875 1.36257 3.13082 1.36887C3.17418 1.37515 3.18394 1.40533 3.15258 1.43591C3.12126 1.46647 3.10164 1.52678 3.10906 1.56994C3.11644 1.6131 3.09078 1.63174 3.05202 1.61134C3.0133 1.59096 2.94986 1.59096 2.91112 1.61134C2.87236 1.63172 2.8467 1.6131 2.85412 1.56994C2.8615 1.52678 2.8419 1.46647 2.81056 1.43591C2.77924 1.40533 2.78904 1.37515 2.83236 1.36887V1.36887ZM2.04169 1.36887C2.08501 1.36259 2.13629 1.32529 2.15571 1.28601C2.17509 1.24675 2.20682 1.24675 2.22618 1.28601C2.24556 1.32529 2.29688 1.36257 2.3402 1.36887C2.38352 1.37515 2.39328 1.40533 2.36196 1.43591C2.33064 1.46647 2.31102 1.52678 2.3184 1.56994C2.32578 1.6131 2.30016 1.63174 2.2614 1.61134C2.22264 1.59096 2.15921 1.59096 2.12045 1.61134C2.08169 1.63172 2.05603 1.6131 2.06345 1.56994C2.07083 1.52678 2.05123 1.46647 2.01989 1.43591C1.98857 1.40533 1.99837 1.37515 2.04169 1.36887ZM1.25107 1.36887C1.29439 1.36259 1.34567 1.32529 1.36505 1.28601C1.38447 1.24675 1.41615 1.24675 1.43555 1.28601C1.45493 1.32529 1.50621 1.36257 1.54953 1.36887C1.59285 1.37515 1.60265 1.40533 1.57129 1.43591C1.53997 1.46647 1.52035 1.52678 1.52773 1.56994C1.53515 1.6131 1.50949 1.63174 1.47073 1.61134C1.43197 1.59096 1.36855 1.59096 1.32983 1.61134C1.29107 1.63172 1.26541 1.6131 1.27279 1.56994C1.28021 1.52678 1.26061 1.46647 1.22923 1.43591C1.19793 1.40533 1.20771 1.37515 1.25107 1.36887Z" fill="#63BCE7"/>
<path d="M1.12453 0.672267C1.12453 0.617266 1.16953 0.572266 1.22453 0.572266H1.06484C1.00984 0.572266 0.964844 0.617266 0.964844 0.672267V1.75424V1.90392H1.12453V1.75424V0.672267Z" fill="#6377E7"/>
<path d="M1.51515 1.9043H1.35547C1.40571 1.9043 1.44683 1.94538 1.44683 1.99564V2.30428H1.60651V1.99564C1.60651 1.94536 1.56539 1.9043 1.51515 1.9043V1.9043Z" fill="#6377E7"/>
<path d="M4.81875 0.672267C4.81875 0.617266 4.77375 0.572266 4.71875 0.572266H4.87843C4.93343 0.572266 4.97843 0.617266 4.97843 0.672267V1.75424V1.90392H4.81875V1.75424V0.672267Z" fill="#63E2E7"/>
<path d="M2.96979 2.82031C2.91525 2.82031 2.87109 2.86451 2.87109 2.91907C2.87109 2.97359 2.91527 3.01779 2.96979 3.01779C3.02434 3.01779 3.06856 2.97359 3.06856 2.91907C3.06854 2.86451 3.02432 2.82031 2.96979 2.82031V2.82031Z" fill="#F8AF23"/>
<path d="M2.96979 3.24219C2.91525 3.24219 2.87109 3.28639 2.87109 3.34095C2.87109 3.39549 2.91527 3.43967 2.96979 3.43967C3.02434 3.43967 3.06856 3.39547 3.06856 3.34095C3.06854 3.28639 3.02432 3.24219 2.96979 3.24219V3.24219Z" fill="#F8AF23"/>
<path d="M2.96979 3.66602C2.91525 3.66602 2.87109 3.71022 2.87109 3.76478C2.87109 3.81932 2.91527 3.86352 2.96979 3.86352C3.02434 3.86352 3.06856 3.81932 3.06856 3.76478C3.06854 3.71022 3.02432 3.66602 2.96979 3.66602V3.66602Z" fill="#F8AF23"/>
<path d="M1.2728 1.57118C1.26542 1.61434 1.29108 1.63298 1.32985 1.61258C1.36857 1.5922 1.43199 1.5922 1.47075 1.61258C1.50951 1.63296 1.53517 1.61434 1.52775 1.57118C1.52037 1.52802 1.53997 1.46772 1.57131 1.43716C1.60267 1.4066 1.59287 1.37642 1.54955 1.37012C1.50623 1.36384 1.45495 1.32654 1.43557 1.28726C1.41615 1.248 1.38447 1.248 1.36507 1.28726C1.34569 1.32654 1.2944 1.36382 1.25108 1.37012C1.20772 1.3764 1.19796 1.40658 1.22928 1.43716C1.26062 1.46772 1.28024 1.52802 1.2728 1.57118Z" fill="#F8AF23"/>
<path d="M2.06189 1.57118C2.05447 1.61434 2.08013 1.63298 2.11889 1.61258C2.15765 1.5922 2.22107 1.5922 2.25983 1.61258C2.29859 1.63296 2.32421 1.61434 2.31683 1.57118C2.30945 1.52802 2.32905 1.46772 2.36039 1.43716C2.39171 1.4066 2.38195 1.37642 2.33863 1.37012C2.29531 1.36384 2.24399 1.32654 2.22461 1.28726C2.20523 1.248 2.17351 1.248 2.15415 1.28726C2.13473 1.32654 2.08345 1.36382 2.04013 1.37012C1.99681 1.3764 1.98701 1.40658 2.01837 1.43716C2.04965 1.46772 2.06927 1.52802 2.06189 1.57118V1.57118Z" fill="#F8AF23"/>
<path d="M2.80743 1.43716C2.83875 1.46772 2.85837 1.52802 2.85099 1.57118C2.84357 1.61434 2.86923 1.63298 2.90799 1.61258C2.94673 1.5922 3.01017 1.5922 3.04889 1.61258C3.08765 1.63296 3.11331 1.61434 3.10593 1.57118C3.09851 1.52802 3.11811 1.46772 3.14945 1.43716C3.18081 1.4066 3.17105 1.37642 3.12769 1.37012C3.08437 1.36384 3.03307 1.32654 3.01371 1.28726C2.99429 1.248 2.96261 1.248 2.94321 1.28726C2.92383 1.32654 2.87255 1.36382 2.82923 1.37012C2.78587 1.37642 2.77607 1.4066 2.80743 1.43716V1.43716Z" fill="#F8AF23"/>
<path d="M3.63998 1.57118C3.6326 1.61434 3.65826 1.63298 3.69698 1.61258C3.73576 1.5922 3.79917 1.5922 3.83797 1.61258C3.87669 1.63296 3.90235 1.61434 3.89497 1.57118C3.88755 1.52802 3.90715 1.46772 3.93853 1.43716C3.96985 1.4066 3.96005 1.37642 3.91677 1.37012C3.87341 1.36384 3.82213 1.32654 3.80271 1.28726C3.78332 1.248 3.75164 1.248 3.73228 1.28726C3.71286 1.32654 3.66158 1.36382 3.61822 1.37012C3.57494 1.3764 3.56514 1.40658 3.59646 1.43716C3.6278 1.46772 3.6474 1.52802 3.63998 1.57118Z" fill="#F8AF23"/>
<path d="M4.43296 1.57118C4.42558 1.61434 4.45124 1.63298 4.49 1.61258C4.52872 1.5922 4.59214 1.5922 4.6309 1.61258C4.66964 1.63296 4.69532 1.61434 4.6879 1.57118C4.68052 1.52802 4.70012 1.46772 4.73146 1.43716C4.76282 1.4066 4.75302 1.37642 4.7097 1.37012C4.66638 1.36384 4.6151 1.32654 4.59572 1.28726C4.5763 1.248 4.54458 1.248 4.52522 1.28726C4.50584 1.32654 4.45456 1.36382 4.41124 1.37012C4.36788 1.3764 4.35812 1.40658 4.38944 1.43716C4.42078 1.46772 4.44038 1.52802 4.43296 1.57118V1.57118Z" fill="#F8AF23"/>
<path d="M2.97247 2.78906C2.90151 2.78906 2.84375 2.84682 2.84375 2.91782C2.84375 2.98878 2.90149 3.04655 2.97247 3.04655C3.04347 3.04655 3.10123 2.9888 3.10123 2.91782C3.10121 2.8468 3.04345 2.78906 2.97247 2.78906V2.78906ZM2.97247 2.98652C2.93457 2.98652 2.90375 2.9557 2.90375 2.9178C2.90375 2.87988 2.93457 2.84904 2.97247 2.84904C3.01039 2.84904 3.04123 2.87988 3.04123 2.9178C3.04121 2.9557 3.01037 2.98652 2.97247 2.98652V2.98652Z" fill="#231F20"/>
<path d="M2.97247 3.21289C2.90151 3.21289 2.84375 3.27065 2.84375 3.34165C2.84375 3.41263 2.90149 3.47039 2.97247 3.47039C3.04347 3.47039 3.10123 3.41265 3.10123 3.34165C3.10121 3.27065 3.04345 3.21289 2.97247 3.21289V3.21289ZM2.97247 3.41037C2.93457 3.41037 2.90375 3.37953 2.90375 3.34163C2.90375 3.30371 2.93457 3.27287 2.97247 3.27287C3.01039 3.27287 3.04123 3.30371 3.04123 3.34163C3.04121 3.37953 3.01037 3.41037 2.97247 3.41037V3.41037Z" fill="#231F20"/>
<path d="M2.97247 3.63672C2.90151 3.63672 2.84375 3.69448 2.84375 3.76548C2.84375 3.83646 2.90149 3.89422 2.97247 3.89422C3.04347 3.89422 3.10123 3.83648 3.10123 3.76548C3.10121 3.69448 3.04345 3.63672 2.97247 3.63672V3.63672ZM2.97247 3.8342C2.93457 3.8342 2.90375 3.80336 2.90375 3.76546C2.90375 3.72754 2.93457 3.6967 2.97247 3.6967C3.01039 3.6967 3.04123 3.72754 3.04123 3.76546C3.04121 3.80338 3.01037 3.8342 2.97247 3.8342V3.8342Z" fill="#231F20"/>
<path d="M1.45161 1.63785C1.46637 1.64561 1.48095 1.64951 1.49437 1.64951C1.50727 1.64951 1.51911 1.64591 1.52903 1.63871C1.54927 1.62401 1.55769 1.59707 1.55215 1.56485C1.54641 1.53133 1.56275 1.48111 1.58707 1.45736C1.61051 1.43452 1.61953 1.40778 1.61179 1.38398C1.60407 1.3602 1.58107 1.34386 1.54869 1.33916C1.51505 1.33428 1.47235 1.30324 1.45729 1.2727C1.44279 1.24338 1.42013 1.22656 1.39515 1.22656C1.37017 1.22656 1.34751 1.24338 1.33299 1.27274C1.31795 1.30324 1.27523 1.3343 1.24161 1.33918C1.20923 1.34388 1.18621 1.3602 1.17849 1.38398C1.17077 1.40776 1.17975 1.43452 1.20319 1.45738C1.22755 1.48113 1.24387 1.53135 1.23811 1.56485V1.56483C1.23259 1.59709 1.24103 1.62401 1.26127 1.63871C1.28151 1.65339 1.30973 1.65307 1.33869 1.63785C1.36871 1.62201 1.42149 1.62201 1.45161 1.63785ZM1.31071 1.58475C1.30365 1.58847 1.29917 1.58935 1.29695 1.58953C1.29643 1.58735 1.29587 1.58283 1.29723 1.57495C1.30629 1.52225 1.28337 1.4517 1.24505 1.41438C1.23933 1.4088 1.23711 1.4048 1.23627 1.40274C1.23817 1.40156 1.24233 1.39966 1.25021 1.39852C1.30313 1.39084 1.36313 1.34724 1.38679 1.29928C1.39033 1.29212 1.39345 1.28876 1.39515 1.2873C1.39685 1.28874 1.39997 1.2921 1.40349 1.29924C1.42717 1.34722 1.48715 1.39082 1.54007 1.3985C1.54795 1.39964 1.55209 1.40156 1.55399 1.40272C1.55313 1.4048 1.55091 1.40878 1.54519 1.41436C1.50691 1.4517 1.48399 1.52223 1.49301 1.57495C1.49435 1.58279 1.49383 1.58731 1.49331 1.58949C1.49107 1.58931 1.48661 1.58843 1.47955 1.58471C1.43221 1.55985 1.35805 1.55987 1.31071 1.58475V1.58475Z" fill="#231F20"/>
<path d="M2.03108 1.56485C2.02554 1.59711 2.03396 1.62403 2.0542 1.63875C2.06412 1.64595 2.07596 1.64955 2.08886 1.64955C2.10228 1.64955 2.11684 1.64567 2.1316 1.63789C2.16174 1.62207 2.21454 1.62207 2.2446 1.63789C2.27358 1.65313 2.30176 1.65343 2.32198 1.63875C2.34222 1.62407 2.35066 1.59713 2.34514 1.56487C2.3394 1.53135 2.35574 1.48113 2.38008 1.45736C2.4035 1.4345 2.4125 1.40776 2.40476 1.38396C2.39702 1.3602 2.37404 1.34386 2.34168 1.33916C2.30802 1.33428 2.2653 1.30324 2.25026 1.27272C2.23578 1.24338 2.21314 1.22656 2.18812 1.22656C2.1631 1.22656 2.14046 1.24338 2.126 1.27272C2.11092 1.30324 2.06818 1.3343 2.03456 1.33918C2.00218 1.34388 1.97918 1.36022 1.97146 1.384C1.96372 1.40778 1.97274 1.43454 1.99616 1.45736C2.02048 1.48113 2.0368 1.53135 2.03108 1.56485V1.56485ZM2.04316 1.39856C2.09606 1.39088 2.15606 1.3473 2.17978 1.2993C2.1833 1.29216 2.18642 1.2888 2.18812 1.28734C2.18982 1.2888 2.19292 1.29214 2.19646 1.29928C2.22012 1.34726 2.28014 1.39086 2.33308 1.39854C2.34096 1.39968 2.3451 1.4016 2.34698 1.40276C2.34614 1.40484 2.34392 1.40882 2.3382 1.4144C2.29992 1.45174 2.277 1.52227 2.28602 1.57497C2.28736 1.58283 2.28684 1.58735 2.2863 1.58955C2.28406 1.58937 2.2796 1.58847 2.27254 1.58477C2.22524 1.55989 2.15106 1.55989 2.10368 1.58477C2.09664 1.58849 2.09218 1.58937 2.08994 1.58955C2.08942 1.58737 2.08888 1.58285 2.09024 1.57501V1.57499C2.09926 1.52229 2.07634 1.45176 2.03806 1.41442C2.03234 1.40884 2.03012 1.40486 2.02926 1.40278C2.03114 1.40162 2.03528 1.3997 2.04316 1.39856V1.39856Z" fill="#231F20"/>
<path d="M2.82015 1.56483C2.81461 1.59709 2.82303 1.62401 2.84327 1.63873C2.85319 1.64593 2.86503 1.64953 2.87793 1.64953C2.89135 1.64953 2.90591 1.64565 2.92067 1.63787C2.95077 1.62205 3.00357 1.62203 3.03363 1.63787C3.06259 1.65309 3.09079 1.65341 3.11105 1.63873C3.13129 1.62403 3.13973 1.59711 3.13421 1.56483C3.12845 1.53135 3.14475 1.48113 3.16909 1.45736C3.19253 1.4345 3.20155 1.40776 3.19383 1.38398C3.18609 1.3602 3.16309 1.34386 3.13071 1.33916C3.09707 1.33428 3.05437 1.30324 3.03931 1.2727C3.02481 1.24338 3.00215 1.22656 2.97717 1.22656C2.95219 1.22656 2.92953 1.24338 2.91501 1.27274C2.89997 1.30324 2.85725 1.3343 2.82363 1.33918C2.79125 1.34388 2.76825 1.36022 2.76053 1.384C2.75279 1.40778 2.76179 1.43452 2.78523 1.45736C2.80957 1.48111 2.82589 1.53135 2.82015 1.56483V1.56483ZM2.83223 1.39854C2.88515 1.39086 2.94515 1.34726 2.96881 1.2993C2.97235 1.29214 2.97547 1.28878 2.97717 1.28732C2.97887 1.28876 2.98199 1.29212 2.98551 1.29926C3.00919 1.34724 3.06917 1.39084 3.12209 1.39852C3.12997 1.39966 3.13411 1.40158 3.13603 1.40274C3.13517 1.40482 3.13293 1.4088 3.12721 1.41438C3.08891 1.45174 3.06601 1.52229 3.07507 1.57495C3.07641 1.58281 3.07587 1.58735 3.07535 1.58953C3.07313 1.58937 3.06865 1.58847 3.06159 1.58475C3.03793 1.57229 3.00757 1.56607 2.97719 1.56607C2.94681 1.56607 2.91643 1.57231 2.89275 1.58475C2.88571 1.58847 2.88125 1.58935 2.87901 1.58953C2.87849 1.58735 2.87795 1.58281 2.87931 1.57495C2.88833 1.52225 2.86541 1.45172 2.82713 1.41438C2.82141 1.4088 2.81919 1.40482 2.81833 1.40274C2.82021 1.4016 2.82435 1.39968 2.83223 1.39854V1.39854Z" fill="#231F20"/>
<path d="M3.61305 1.56485V1.56487C3.60753 1.59713 3.61597 1.62405 3.63623 1.63875C3.64615 1.64595 3.65797 1.64955 3.67087 1.64955C3.68427 1.64955 3.69883 1.64565 3.71357 1.63789C3.74369 1.62207 3.79653 1.62207 3.82661 1.63787C3.85557 1.65313 3.88377 1.65343 3.90399 1.63875C3.92423 1.62405 3.93269 1.59713 3.92717 1.56483C3.92141 1.53133 3.93773 1.48111 3.96211 1.45736C3.98553 1.4345 3.99453 1.40776 3.98679 1.38398C3.97905 1.3602 3.95607 1.34386 3.92371 1.33916C3.89007 1.33428 3.84733 1.30322 3.83225 1.27272C3.81777 1.24338 3.79513 1.22656 3.77013 1.22656C3.74513 1.22656 3.72249 1.24338 3.70803 1.27272C3.69295 1.30324 3.65019 1.3343 3.61655 1.33918C3.58421 1.34388 3.56121 1.36022 3.55349 1.384C3.54577 1.40778 3.55475 1.43452 3.57817 1.45738C3.60249 1.48113 3.61881 1.53135 3.61305 1.56485ZM3.62513 1.39856C3.67805 1.39088 3.73807 1.3473 3.76179 1.2993C3.76531 1.29218 3.76839 1.28882 3.77011 1.28736C3.77181 1.28882 3.77491 1.29218 3.77843 1.2993C3.80215 1.34728 3.86217 1.39088 3.91507 1.39854C3.92295 1.39968 3.92709 1.4016 3.92899 1.40276C3.92815 1.40484 3.92593 1.40882 3.92021 1.4144C3.88189 1.45174 3.85897 1.52229 3.86803 1.57497C3.86937 1.58283 3.86883 1.58737 3.86831 1.58955C3.86609 1.58937 3.86161 1.58847 3.85455 1.58477C3.80719 1.55989 3.73301 1.55991 3.68565 1.58479C3.67863 1.58849 3.67417 1.58937 3.67193 1.58955C3.67141 1.58737 3.67085 1.58285 3.67221 1.57497C3.68127 1.52227 3.65835 1.45172 3.62003 1.4144C3.61431 1.40882 3.61209 1.40482 3.61125 1.40276C3.61313 1.40162 3.61725 1.3997 3.62513 1.39856V1.39856Z" fill="#231F20"/>
<path d="M4.40606 1.56481V1.56483C4.40054 1.59709 4.40898 1.62401 4.42922 1.63871C4.44946 1.65339 4.47768 1.65307 4.50664 1.63785C4.53668 1.62201 4.58948 1.62201 4.61958 1.63785C4.63434 1.64561 4.64892 1.64951 4.66234 1.64951C4.67524 1.64951 4.68708 1.64591 4.697 1.63871C4.71724 1.62401 4.72566 1.59707 4.72012 1.56485C4.71438 1.53133 4.73072 1.48111 4.75504 1.45736C4.77848 1.43452 4.7875 1.40778 4.77976 1.38398C4.77204 1.3602 4.74904 1.34386 4.71666 1.33916C4.68302 1.33428 4.64032 1.30324 4.62526 1.2727C4.61074 1.24338 4.5881 1.22656 4.5631 1.22656H4.56308C4.53808 1.22656 4.51544 1.2434 4.50096 1.27274C4.48592 1.30324 4.4432 1.3343 4.40958 1.33918C4.3772 1.34388 4.35417 1.3602 4.34645 1.38398C4.33873 1.40776 4.34771 1.43452 4.37116 1.45738C4.3955 1.48109 4.41182 1.53131 4.40606 1.56481V1.56481ZM4.41818 1.39852C4.4711 1.39084 4.5311 1.34724 4.55476 1.29926C4.5583 1.2921 4.5614 1.28876 4.5631 1.2873C4.5648 1.28874 4.56792 1.29208 4.57146 1.29924C4.59514 1.34722 4.65512 1.39082 4.70804 1.3985C4.71592 1.39964 4.72006 1.40156 4.72196 1.40272C4.7211 1.4048 4.71888 1.40878 4.71316 1.41436C4.67488 1.4517 4.65196 1.52223 4.66098 1.57495C4.66232 1.58279 4.6618 1.58731 4.66128 1.58949C4.65904 1.58931 4.65458 1.58843 4.64752 1.58471C4.60018 1.55981 4.52602 1.55983 4.4787 1.58471C4.47164 1.58843 4.46716 1.58931 4.46494 1.58949C4.46442 1.58731 4.46386 1.58279 4.46522 1.57491C4.47428 1.52221 4.45136 1.45166 4.41304 1.41434C4.40732 1.40876 4.4051 1.40476 4.40426 1.4027C4.40614 1.40158 4.41028 1.39966 4.41818 1.39852V1.39852Z" fill="#231F20"/>
<path d="M5.16565 1.75492C5.16565 1.68798 5.11825 1.63354 5.05999 1.63354C5.04371 1.63354 5.02829 1.63798 5.01445 1.6457V0.67297C5.01445 0.601289 4.95613 0.542969 4.88445 0.542969H1.06257C0.990892 0.542969 0.932571 0.601289 0.932571 0.67297V1.64564C0.918731 1.63798 0.903271 1.63356 0.886911 1.63356C0.82865 1.63356 0.78125 1.68802 0.78125 1.75494V2.42191C0.78125 2.42585 0.78205 2.42957 0.78343 2.43301L0.78339 2.43303L0.78359 2.43355C0.78359 2.43357 0.78361 2.43359 0.78361 2.43361L0.862511 2.63133C0.862531 2.63137 0.862551 2.63139 0.862571 2.63143L1.42826 4.04841H1.26311C1.24653 4.04841 1.23311 4.06183 1.23311 4.07841C1.23311 4.09499 1.24653 4.10841 1.26311 4.10841H1.47254H1.91342H1.91346H1.91354H4.0272H4.02726H4.02732H4.46944H4.64035C4.65693 4.10841 4.67035 4.09499 4.67035 4.07841C4.67035 4.06183 4.65693 4.04841 4.64035 4.04841H4.51384L5.08245 2.63463C5.08307 2.63351 5.08391 2.63255 5.08439 2.63133L5.16329 2.43361C5.16329 2.43359 5.16331 2.43357 5.16331 2.43355L5.16351 2.43303L5.16347 2.43301C5.16485 2.42957 5.16565 2.42583 5.16565 2.42191V1.75492ZM0.992572 1.75492V0.67297C0.992572 0.63437 1.02397 0.602969 1.06257 0.602969H4.88445C4.92305 0.602969 4.95445 0.63437 4.95445 0.67297V1.75252C4.95439 1.75336 4.95433 1.75426 4.95433 1.75492V1.8746H4.59054C4.52362 1.8746 4.46918 1.92904 4.46918 1.99594V2.27459H1.47774V1.99596C1.47774 1.92904 1.4233 1.87462 1.35638 1.87462H0.992572V1.75492ZM4.56194 2.44835L4.22864 3.27338L4.07994 2.91879C3.95126 2.59709 3.7198 2.42565 3.52036 2.33461H4.46936C4.47122 2.38985 4.51006 2.43575 4.56194 2.44835V2.44835ZM2.97457 2.45459L2.86693 2.33461H3.08225L2.97457 2.45459ZM2.78631 2.33461L2.92623 2.49057L2.74417 2.63599L2.57305 2.33461H2.78631ZM3.16285 2.33461H3.37601L3.20497 2.63599L3.02289 2.49057L3.16285 2.33461ZM2.42661 2.33461C2.2269 2.42577 1.99562 2.59719 1.86718 2.91835L1.71826 3.2734L1.44986 2.60895L1.38498 2.44835C1.43686 2.43575 1.4757 2.38985 1.47756 2.33461H2.42661ZM0.841251 1.75492C0.841251 1.72164 0.862151 1.69354 0.886911 1.69354C0.911671 1.69354 0.932571 1.72166 0.932571 1.75492V1.9046C0.932571 1.92118 0.945992 1.9346 0.962572 1.9346H1.35636C1.3902 1.9346 1.41772 1.96212 1.41772 1.99594V2.0079H1.08941C1.07283 2.0079 1.05941 2.02132 1.05941 2.0379C1.05941 2.05448 1.07283 2.0679 1.08941 2.0679H1.41774V2.14125H1.08941C1.07283 2.14125 1.05941 2.15467 1.05941 2.17125C1.05941 2.18783 1.07283 2.20125 1.08941 2.20125H1.41774V2.27459H1.08941C1.07283 2.27459 1.05941 2.28801 1.05941 2.30459C1.05941 2.32117 1.07283 2.33459 1.08941 2.33459H1.41732C1.41518 2.36649 1.38882 2.39187 1.35636 2.39187H0.841251V1.75492ZM0.855511 2.45189H1.32167L1.37756 2.59019H0.910711L0.855511 2.45189ZM4.44916 4.04839H4.04768L3.7727 3.35012C3.76664 3.3347 3.74924 3.32712 3.7338 3.3332C3.71838 3.33926 3.71082 3.35668 3.71688 3.3721L3.9832 4.04837H1.95752L2.2238 3.37208C2.22988 3.35666 2.2223 3.33924 2.20688 3.33318C2.1915 3.3271 2.17406 3.33468 2.16798 3.3501L1.89306 4.04839H1.49286L0.934671 2.65019H1.40178L1.6899 3.36344C1.69446 3.3747 1.70536 3.38212 1.71752 3.3822C1.7291 3.38268 1.74068 3.37502 1.74538 3.3638L1.92268 2.94109C2.0333 2.66455 2.23384 2.46945 2.51895 2.36087L2.70935 2.69619C2.71367 2.70381 2.72113 2.70917 2.72977 2.71083C2.73839 2.71245 2.74729 2.71029 2.75417 2.70481L2.97459 2.52877L3.19501 2.70481C3.20187 2.71029 3.21077 2.71251 3.21941 2.71083C3.22803 2.70917 3.23549 2.70381 3.23983 2.69619L3.42975 2.36155C3.71392 2.47029 3.91388 2.66519 4.02444 2.94157L4.20152 3.36382C4.20622 3.37504 4.21796 3.38276 4.22938 3.38222C4.24154 3.38214 4.25244 3.37472 4.257 3.36346L4.54514 2.65021H5.01153L4.44916 4.04839ZM5.03619 2.59019H4.56938L4.62523 2.45189H5.09137L5.03619 2.59019ZM5.10565 2.39189H4.6047C4.60456 2.39189 4.60445 2.39189 4.60431 2.39189H4.59052C4.55808 2.39189 4.5317 2.36651 4.52956 2.33461H4.85747C4.87405 2.33461 4.88747 2.32119 4.88747 2.30461C4.88747 2.28803 4.87405 2.27461 4.85747 2.27461H4.52914V2.20127H4.85747C4.87405 2.20127 4.88747 2.18785 4.88747 2.17127C4.88747 2.15469 4.87405 2.14127 4.85747 2.14127H4.52914V2.06792H4.85747C4.87405 2.06792 4.88747 2.0545 4.88747 2.03792C4.88747 2.02134 4.87405 2.00792 4.85747 2.00792H4.52914V1.99596C4.52914 1.96214 4.55666 1.93462 4.59051 1.93462H4.98429C5.00087 1.93462 5.01429 1.9212 5.01429 1.90462V1.75618C5.01435 1.75538 5.01439 1.75454 5.01441 1.75394C5.01483 1.7212 5.03569 1.69354 5.05995 1.69354C5.08471 1.69354 5.10561 1.72166 5.10561 1.75492V2.39189H5.10565Z" fill="#231F20"/>
<path d="M1.09407 4.07883C1.09407 4.06225 1.08065 4.04883 1.06407 4.04883H0.897188C0.880608 4.04883 0.867188 4.06225 0.867188 4.07883C0.867188 4.09541 0.880608 4.10883 0.897188 4.10883H1.06407C1.08063 4.10883 1.09407 4.09541 1.09407 4.07883Z" fill="#231F20"/>
<path d="M4.98598 4.04883H4.81906C4.80248 4.04883 4.78906 4.06225 4.78906 4.07883C4.78906 4.09541 4.80248 4.10883 4.81906 4.10883H4.98598C5.00256 4.10883 5.01598 4.09541 5.01598 4.07883C5.01598 4.06225 5.00256 4.04883 4.98598 4.04883Z" fill="#231F20"/>
<path d="M4.43814 4.29297H1.46359C1.44701 4.29297 1.43359 4.30639 1.43359 4.32297C1.43359 4.33955 1.44701 4.35297 1.46359 4.35297H4.43816C4.45474 4.35297 4.46816 4.33955 4.46816 4.32297C4.46816 4.30639 4.45472 4.29297 4.43814 4.29297Z" fill="#231F20"/>
<path d="M1.28673 4.29297H1.11984C1.10326 4.29297 1.08984 4.30639 1.08984 4.32297C1.08984 4.33955 1.10326 4.35297 1.11984 4.35297H1.28673C1.30331 4.35297 1.31673 4.33955 1.31673 4.32297C1.31673 4.30639 1.30331 4.29297 1.28673 4.29297Z" fill="#231F20"/>
<path d="M4.79067 4.29297H4.62375C4.60717 4.29297 4.59375 4.30639 4.59375 4.32297C4.59375 4.33955 4.60717 4.35297 4.62375 4.35297H4.79067C4.80725 4.35297 4.82067 4.33955 4.82067 4.32297C4.82067 4.30639 4.80725 4.29297 4.79067 4.29297Z" fill="#231F20"/>
</svg>
