<?xml version="1.0" encoding="utf-8"?>
<!-- Generator: Adobe Illustrator 21.0.0, SVG Export Plug-In . SVG Version: 6.00 Build 0)  -->
<svg xmlns="http://www.w3.org/2000/svg" xmlns:xlink="http://www.w3.org/1999/xlink" version="1.1" id="Layer_1" x="0px" y="0px" viewBox="0 0 256 256" style="enable-background:new 0 0 256 256;" xml:space="preserve" width="512" height="512">
<style type="text/css">
	.st0{fill:#F9D0B4;}
	.st1{fill:#E9E9EA;}
	.st2{fill:#6D6C6B;}
	.st3{fill:#55ACD5;}
	.st4{fill:#FFCD29;}
	.st5{fill:#6DCC6D;}
	.st6{fill:#EA4647;}
	.st7{fill:#231F20;}
</style>
<g id="Layer_34">
	<path class="st0" d="M145.3,122.6c-3.3-0.4-6.3-1.9-8.4-4.4c-0.9-1.1-2.5-1.2-3.6-0.3c-0.2,0.2-0.4,0.4-0.5,0.6   c-9.2,15-24.8,16-31,15.8c-1.4-0.1-2.6,1-2.6,2.4c0,0,0,0.1,0,0.1v7.5c0,13.3,10.8,24.1,24.2,24.2l0,0c13.3,0,24.1-10.8,24.2-24.2   v-19.2C147.5,123.8,146.5,122.8,145.3,122.6z"/>
	<path class="st1" d="M175,246.9l-3-53.1c-0.2-4.2-3.1-7.7-7.2-8.7l-16.6-4.2c-1.4-0.4-2.8-0.9-4.1-1.5l-9.3-4.6v-9.3   c-6.9,3.8-15.2,3.9-22.3,0.4v8.9l-9.3,4.6c-1.3,0.6-2.7,1.1-4.1,1.5l-16.6,4.2c-4.1,1-7,4.6-7.2,8.7l-3,53.1   c-0.2,3.4,2.4,6.4,5.9,6.6c0.1,0,0.2,0,0.4,0h90.3c3.4,0,6.2-2.8,6.2-6.2C175,247.2,175,247.1,175,246.9z"/>
	<path class="st0" d="M134.8,174.8v-9.3c-6.9,3.8-15.2,3.9-22.3,0.4v8.9l-9.7,4.8c8.8,11.7,25.3,14,37,5.2c1.9-1.4,3.6-3.1,5.1-5.1   L134.8,174.8z"/>
	<path class="st2" d="M169.4,166.6L169.4,166.6c-7.1-7.4-11.1-17.3-11.2-27.6v-26.6c0.1-7.5-5.3-13.8-12.7-15   c-3.3-0.5-6.7,0.2-9.6,2c-2.7-4.5-7.5-7.2-12.6-7.2h-7.6c-14.7,0-26.6,11.9-26.6,26.6V138c0,10.5-3.3,21.2-10.9,28.5   c-1,0.9-1,2.5-0.1,3.5c0.1,0.1,0.2,0.2,0.3,0.3c4.6,3.6,10.3,5.4,16.1,5.3c3.5-0.2,7,0.5,10.1,2l0.2,0.1c0.4,0.2,0.7,0.3,1.1,0.5   l6.6-3.3v-8.9c-8.2-4.1-13.4-12.5-13.4-21.6v-7.5c0-1.4,1.1-2.5,2.5-2.5c0,0,0.1,0,0.1,0c6.2,0.3,21.8-0.7,31-15.8   c0.7-1.2,2.3-1.6,3.5-0.8c0.2,0.1,0.4,0.3,0.6,0.5c2.1,2.5,5.1,4.1,8.4,4.4c1.3,0.2,2.2,1.2,2.2,2.5v19.2c0,8.9-4.9,17-12.7,21.3   v9.3l6.7,3.3c0.5-0.2,0.9-0.4,1.4-0.6c3.1-1.5,6.6-2.2,10.1-2c5.8,0.1,11.5-1.7,16.1-5.3c1.1-0.8,1.3-2.4,0.5-3.4   C169.5,166.7,169.5,166.6,169.4,166.6z"/>
	<path class="st3" d="M157.7,2.5H89.6C80.4,2.5,73,10,72.9,19.1v29.1c0,9.2,7.5,16.6,16.6,16.6h17.6c2,0,4,1,5.1,2.7l9.9,15.1   c0.5,0.8,1.6,1,2.4,0.5c0.2-0.1,0.4-0.3,0.5-0.5l9.9-15.1c1.1-1.7,3-2.7,5.1-2.7h17.6c9.2,0,16.6-7.5,16.6-16.6V19.1   C174.3,10,166.9,2.5,157.7,2.5z"/>
	<path class="st3" d="M203.1,59.8h-1.8V58c0-1.4-1.1-2.5-2.5-2.5s-2.5,1.1-2.5,2.5v1.8h-1.8c-1.4,0-2.5,1.1-2.5,2.5   c0,1.4,1.1,2.5,2.5,2.5h1.8v1.8c0,1.4,1.1,2.5,2.5,2.5s2.5-1.1,2.5-2.5v-1.8h1.8c1.4,0,2.5-1.1,2.5-2.5S204.5,59.8,203.1,59.8z"/>
	<path class="st4" d="M74.9,80.9H73v-1.8c0-1.4-1.1-2.5-2.5-2.5S68,77.7,68,79.1v1.8h-1.8c-1.4,0-2.5,1.1-2.5,2.5s1.1,2.5,2.5,2.5   H68v1.8c0,1.4,1.1,2.5,2.5,2.5s2.5-1.1,2.5-2.5v-1.8h1.8c1.4,0,2.5-1.1,2.5-2.5S76.2,80.9,74.9,80.9z"/>
	<path class="st5" d="M195.4,167.9c-0.1-0.3-0.2-0.6-0.4-0.9c-0.1-0.1-0.2-0.3-0.3-0.4c-1-0.9-2.5-0.9-3.5,0   c-0.1,0.1-0.2,0.2-0.3,0.4c-0.1,0.1-0.2,0.3-0.2,0.4c-0.1,0.2-0.1,0.3-0.1,0.5c-0.1,0.3-0.1,0.7,0,1c0,0.2,0.1,0.3,0.1,0.5   c0.1,0.1,0.1,0.3,0.2,0.4c0.1,0.1,0.2,0.3,0.3,0.4c1,1,2.5,1,3.5,0c0,0,0,0,0,0c0.1-0.1,0.2-0.2,0.3-0.4c0.1-0.1,0.2-0.3,0.2-0.4   c0.1-0.1,0.1-0.3,0.1-0.5C195.4,168.6,195.4,168.3,195.4,167.9z"/>
	<path class="st5" d="M55.3,109.8c-0.1-0.3-0.2-0.6-0.4-0.9c-0.1-0.1-0.2-0.3-0.3-0.4c-1-0.9-2.5-0.9-3.5,0   c-0.1,0.1-0.2,0.2-0.3,0.4c-0.1,0.1-0.2,0.3-0.2,0.4c-0.1,0.2-0.1,0.3-0.1,0.5c-0.1,0.3-0.1,0.7,0,1c0,0.2,0.1,0.3,0.1,0.5   c0.1,0.1,0.1,0.3,0.2,0.4c0.1,0.1,0.2,0.3,0.3,0.4c1,1,2.5,1,3.5,0c0,0,0,0,0,0c0.1-0.1,0.2-0.2,0.3-0.4c0.1-0.1,0.2-0.3,0.2-0.4   c0.1-0.1,0.1-0.3,0.1-0.5C55.4,110.5,55.4,110.1,55.3,109.8z"/>
	<path class="st6" d="M189.1,145.7c-3.5-0.7-6.2-3.4-6.8-6.8c0-0.1-0.1-0.1-0.2-0.1c-0.1,0-0.1,0.1-0.1,0.1   c-0.7,3.5-3.4,6.2-6.8,6.8c-0.1,0-0.1,0.1-0.1,0.2c0,0.1,0.1,0.1,0.1,0.1c3.5,0.7,6.2,3.4,6.8,6.8c0,0.1,0.1,0.1,0.2,0.1   c0.1,0,0.1-0.1,0.1-0.1c0.7-3.5,3.4-6.2,6.8-6.8c0.1,0,0.1-0.1,0.1-0.2C189.2,145.8,189.2,145.7,189.1,145.7z"/>
	<path class="st7" d="M125.6,198.4c-0.1-0.1-0.2-0.2-0.4-0.3c-0.1-0.1-0.3-0.2-0.4-0.2c-0.1-0.1-0.3-0.1-0.5-0.1   c-0.8-0.2-1.7,0.1-2.2,0.7c-0.5,0.5-0.7,1.1-0.7,1.8c0,0.2,0,0.3,0.1,0.5c0,0.2,0.1,0.3,0.1,0.5c0.1,0.2,0.1,0.3,0.2,0.4   c0.1,0.1,0.2,0.3,0.3,0.4c0.5,0.5,1.1,0.7,1.8,0.7c0.3,0,0.7-0.1,0.9-0.2c0.2-0.1,0.3-0.1,0.4-0.2c0.3-0.2,0.5-0.4,0.7-0.7   c0.1-0.1,0.2-0.3,0.2-0.4c0.1-0.2,0.1-0.3,0.1-0.5c0-0.2,0-0.3,0.1-0.5C126.4,199.5,126.1,198.8,125.6,198.4z"/>
	<path class="st7" d="M126.3,212.6c0-0.2-0.1-0.3-0.1-0.5c-0.1-0.2-0.1-0.3-0.2-0.4c-0.1-0.1-0.2-0.3-0.3-0.4c-1-0.9-2.5-0.9-3.5,0   c-0.1,0.1-0.2,0.2-0.3,0.4c-0.1,0.1-0.2,0.3-0.2,0.4c-0.1,0.2-0.1,0.3-0.1,0.5c-0.1,0.3-0.1,0.7,0,1c0,0.2,0.1,0.3,0.1,0.5   c0.1,0.2,0.1,0.3,0.2,0.4c0.1,0.1,0.2,0.3,0.3,0.4c0.5,0.5,1.1,0.7,1.8,0.7c0.2,0,0.3,0,0.5-0.1c0.2,0,0.3-0.1,0.5-0.1   c0.2-0.1,0.3-0.1,0.4-0.2c0.1-0.1,0.3-0.2,0.4-0.3c0.1-0.1,0.2-0.2,0.3-0.4c0.2-0.3,0.3-0.6,0.4-0.9   C126.4,213.2,126.4,212.9,126.3,212.6L126.3,212.6z"/>
	<path class="st7" d="M126.3,225.5c0-0.2-0.1-0.3-0.1-0.5c-0.1-0.2-0.1-0.3-0.2-0.4c-0.1-0.1-0.2-0.3-0.3-0.4   c-0.1-0.1-0.2-0.2-0.4-0.3c-0.1-0.1-0.3-0.2-0.4-0.2c-0.2-0.1-0.3-0.1-0.5-0.1c-0.8-0.2-1.7,0.1-2.2,0.7c-0.1,0.1-0.2,0.2-0.3,0.4   c-0.1,0.1-0.2,0.3-0.2,0.4c-0.1,0.2-0.1,0.3-0.1,0.5c0,0.2,0,0.3-0.1,0.5c0,1.4,1.1,2.5,2.5,2.5c0.2,0,0.3,0,0.5-0.1   c0.2,0,0.3-0.1,0.5-0.1c0.1-0.1,0.3-0.1,0.4-0.2c0.1-0.1,0.3-0.2,0.4-0.3c0.5-0.5,0.7-1.1,0.7-1.8   C126.4,225.8,126.4,225.6,126.3,225.5z"/>
	<path class="st7" d="M125.6,237.1c-1-0.9-2.5-0.9-3.5,0c-0.5,0.5-0.7,1.1-0.7,1.8c0,0.2,0,0.3,0.1,0.5c0,0.2,0.1,0.3,0.1,0.5   c0.1,0.2,0.1,0.3,0.2,0.4c0.1,0.1,0.2,0.3,0.3,0.4c0.5,0.5,1.1,0.7,1.8,0.7c0.2,0,0.3,0,0.5,0c0.2,0,0.3-0.1,0.5-0.1   c0.2-0.1,0.3-0.1,0.4-0.2c0.3-0.2,0.5-0.4,0.7-0.7c0.1-0.1,0.2-0.3,0.2-0.4c0.1-0.3,0.2-0.6,0.2-1   C126.4,238.2,126.1,237.6,125.6,237.1z"/>
	<path class="st7" d="M123.3,171c-14.7,0-26.7-12-26.7-26.7v-7.5c0-1.4,0.6-2.7,1.5-3.6c1-1,2.3-1.5,3.7-1.4   c5.8,0.2,20.2-0.7,28.8-14.6c0.8-1.4,2.3-2.3,3.9-2.4c1.6-0.1,3.2,0.5,4.2,1.8c1.7,2,4.2,3.3,6.8,3.6c2.5,0.3,4.4,2.4,4.4,5v19.2   C150,159,138,170.9,123.3,171z M101.7,136.7l0,7.6c0,12,9.7,21.7,21.7,21.7c12,0,21.7-9.7,21.7-21.7v-19.2c-3.9-0.4-7.5-2.3-10-5.3   C125,135.9,108.3,137,101.7,136.7z"/>
	<path class="st7" d="M151.9,256c-1.4,0-2.5-1.1-2.5-2.5v-36.4c0-1.4,1.1-2.5,2.5-2.5s2.5,1.1,2.5,2.5v36.4   C154.4,254.9,153.3,256,151.9,256z"/>
	<path class="st7" d="M94.7,214.6c-1.4,0-2.5,1.1-2.5,2.5v36.4c0,1.4,1.1,2.5,2.5,2.5s2.5-1.1,2.5-2.5v-36.4   C97.2,215.7,96,214.6,94.7,214.6z"/>
	<path class="st7" d="M168.8,256H78.5c-4.8,0-8.7-3.9-8.7-8.7c0-0.2,0-0.3,0-0.5l3-53.1c0.3-5.3,4-9.7,9.1-11l16.6-4.2   c1.2-0.3,2.4-0.8,3.6-1.3l7.9-3.9v-7.4c0-1.4,1.1-2.5,2.5-2.5c0.4,0,0.8,0.1,1.1,0.3c3,1.5,6.3,2.3,9.7,2.3c3.6,0,7.1-0.9,10.3-2.6   c1.2-0.7,2.7-0.2,3.4,1c0.2,0.4,0.3,0.8,0.3,1.2v7.8l7.9,3.9c1.2,0.6,2.4,1,3.6,1.3l16.6,4.2c5.1,1.3,8.8,5.7,9.1,11l2.9,53.1l0,0   c0.3,4.8-3.4,8.9-8.2,9.2C169.1,256,169,256,168.8,256z M115,169.6v5.2c0,1-0.5,1.8-1.4,2.2l-9.3,4.6c-1.5,0.7-3,1.3-4.6,1.7   L83,187.6c-3,0.7-5.1,3.4-5.3,6.4l-3,53.1c-0.1,2,1.5,3.8,3.5,3.9c0.1,0,0.1,0,0.2,0h90.3c2.1,0,3.7-1.7,3.7-3.7c0-0.1,0-0.1,0-0.2   l-3-53.1c-0.2-3.1-2.3-5.7-5.3-6.4l-16.6-4.2c-1.6-0.4-3.1-1-4.6-1.7l-9.3-4.6c-0.9-0.4-1.4-1.3-1.4-2.2v-5.5   C126.7,171.4,120.6,171.5,115,169.6L115,169.6z"/>
	<path class="st7" d="M157.7,0H89.6C79,0,70.4,8.6,70.4,19.1v29.1c0,10.6,8.6,19.1,19.1,19.1h17.6c1.2,0,2.3,0.6,3,1.6l9.9,15.1   c1.3,1.9,3.9,2.5,5.9,1.2c0.5-0.3,0.9-0.7,1.2-1.2l9.9-15.1c0.7-1,1.8-1.6,3-1.6h17.6c10.6,0,19.1-8.6,19.1-19.1V19.1   C176.8,8.6,168.3,0,157.7,0z M171.9,48.2c0,7.8-6.3,14.1-14.1,14.1h-17.6c-2.9,0-5.6,1.4-7.2,3.9l-9.3,14.1l-9.3-14.1   c-1.6-2.4-4.3-3.9-7.2-3.9H89.6c-7.8,0-14.1-6.3-14.1-14.1V19.1C75.4,11.3,81.8,5,89.6,5h68.1c7.8,0,14.1,6.3,14.1,14.1L171.9,48.2   z"/>
	<path class="st7" d="M150.5,17.9L150.5,17.9L96,18.1c-1.4,0-2.5,1.1-2.5,2.5s1.1,2.5,2.5,2.5h0l54.5-0.2c1.4,0,2.5-1.1,2.5-2.5   C153,19,151.9,17.9,150.5,17.9z"/>
	<path class="st7" d="M150.5,31.1L150.5,31.1L96,31.4c-1.4,0-2.5,1.1-2.5,2.5s1.1,2.5,2.5,2.5h0l54.5-0.2c1.4,0,2.5-1.1,2.5-2.5   C153,32.2,151.9,31.1,150.5,31.1z"/>
	<path class="st7" d="M150.6,44.3L150.6,44.3l-54.5,0.2c-1.4,0-2.5,1.1-2.5,2.5s1.1,2.5,2.5,2.5h0l54.5-0.2c1.4,0,2.5-1.1,2.5-2.5   C153.1,45.5,152,44.3,150.6,44.3L150.6,44.3z"/>
	<path class="st7" d="M171.2,164.9c-6.7-6.9-10.5-16.2-10.5-25.8v-26.6c0.1-8.7-6.2-16.1-14.8-17.5c-3.1-0.4-6.3,0-9.1,1.2   c-3.3-4.1-8.2-6.5-13.4-6.5h-7.6c-16.1,0-29.1,13.1-29.1,29.1V138c0,10.9-3.6,20.4-10.2,26.7c-2,1.9-2.1,5-0.2,7   c0.2,0.2,0.4,0.4,0.6,0.5c5.1,3.9,11.3,6,17.7,5.8c3.1-0.2,6.1,0.4,8.9,1.7l0.2,0.1c0.3,0.1,0.5,0.2,0.8,0.4l0.4,0.2   c0.7,0.3,1.5,0.3,2.1,0l6.6-3.3c0.9-0.4,1.4-1.3,1.4-2.2v-8.9c0-0.9-0.5-1.8-1.4-2.2c-7.4-3.7-12-11.2-12-19.4l0-7.6   c6.7,0.3,23.3-0.8,33.3-16.9c2.5,3,6.1,4.9,10,5.3v19.2c0,8-4.4,15.3-11.4,19.1c-0.8,0.4-1.3,1.3-1.3,2.2v9.3c0,1,0.5,1.8,1.4,2.2   l6.7,3.3c0.7,0.3,1.4,0.3,2.1,0l0.3-0.1c0.4-0.2,0.8-0.4,1.2-0.5c2.8-1.3,5.8-1.9,8.9-1.7c6.4,0.2,12.7-1.9,17.7-5.8   c2.2-1.7,2.6-4.8,0.9-6.9C171.5,165.1,171.3,165,171.2,164.9L171.2,164.9z M153.1,173c-3.9-0.2-7.8,0.6-11.3,2.2   c-0.1,0-0.2,0.1-0.3,0.1l-4.3-2.1V167c7.9-4.9,12.7-13.4,12.7-22.7v-19.2c0-2.5-1.9-4.6-4.4-5c-2.7-0.3-5.1-1.6-6.8-3.6   c-1-1.2-2.6-1.9-4.2-1.8c-1.6,0.1-3.1,1-3.9,2.4c-8.5,13.9-23,14.8-28.8,14.6c-1.4-0.1-2.7,0.4-3.7,1.4c-1,0.9-1.5,2.2-1.5,3.6v7.5   c0,9.5,5.1,18.4,13.4,23.1v5.9l-4.1,2l-0.2-0.1c-3.5-1.7-7.4-2.4-11.3-2.2c-5.2,0.1-10.3-1.6-14.4-4.8c7.5-7.2,11.7-18,11.7-30.3   v-19.3c0-13.3,10.8-24.1,24.1-24.1h7.6c4.3,0,8.3,2.3,10.5,6c0.7,1.2,2.2,1.6,3.4,0.9c0,0,0,0,0,0c2.4-1.4,5.2-2,8-1.6   c6.1,1,10.6,6.3,10.5,12.5V139c0,10.9,4.3,21.4,11.9,29.2C163.5,171.4,158.3,173.1,153.1,173L153.1,173z"/>
	<path class="st7" d="M147.3,179.2c-0.2-0.7-0.7-1.3-1.3-1.7l-8.7-4.3v-7.8c0-1.4-1.1-2.5-2.5-2.5c-0.4,0-0.8,0.1-1.2,0.3   c-3.2,1.7-6.7,2.6-10.3,2.6c-3.4,0-6.7-0.8-9.7-2.3c-1.2-0.6-2.7-0.1-3.4,1.1c-0.2,0.3-0.3,0.7-0.3,1.1v7.4l-8.3,4.1   c-1.2,0.6-1.7,2.1-1.1,3.3c0.1,0.1,0.2,0.3,0.2,0.4c9.6,12.8,27.7,15.3,40.5,5.7c2.1-1.6,4-3.4,5.6-5.5   C147.3,180.7,147.4,180,147.3,179.2z M123.9,187.7c-6.4,0-12.6-2.6-17.1-7.2l6.8-3.4c0.9-0.4,1.4-1.3,1.4-2.2v-5.2   c5.6,1.8,11.7,1.7,17.3-0.2v5.5c0,1,0.5,1.8,1.4,2.2l7.2,3.5C136.4,185.1,130.2,187.7,123.9,187.7z"/>
</g>
</svg>
