<svg width="4" height="6" viewBox="0 0 4 6" fill="none" xmlns="http://www.w3.org/2000/svg">
<path d="M2.75023 2.45381C2.68422 2.44581 2.62422 2.41581 2.58221 2.36581C2.56421 2.34381 2.53221 2.34181 2.5102 2.35981C2.5062 2.36381 2.5022 2.36781 2.5002 2.37181C2.31618 2.67181 2.00415 2.69181 1.88013 2.68781C1.85213 2.68581 1.82812 2.70781 1.82812 2.73581V2.73781V2.88781C1.82812 3.15381 2.04415 3.36981 2.31218 3.37181C2.57821 3.37181 2.79424 3.15581 2.79624 2.88781V2.50381C2.79424 2.47781 2.77423 2.45781 2.75023 2.45381Z" fill="#F9D0B4"/>
<path d="M3.34352 4.93659L3.28351 3.87459C3.27951 3.79059 3.2215 3.72059 3.13949 3.70059L2.80745 3.61659C2.77945 3.60859 2.75145 3.59859 2.72544 3.58659L2.53942 3.49459V3.30859C2.40141 3.38459 2.23539 3.38659 2.09337 3.31659V3.49459L1.90735 3.58659C1.88135 3.59859 1.85334 3.60859 1.82534 3.61659L1.4933 3.70059C1.41129 3.72059 1.35329 3.79259 1.34929 3.87459L1.28928 4.93659C1.28528 5.00459 1.33728 5.06459 1.40729 5.06859C1.40929 5.06859 1.41129 5.06859 1.41529 5.06859H3.2215C3.28951 5.06859 3.34552 5.01259 3.34552 4.94459C3.34352 4.94259 3.34352 4.94059 3.34352 4.93659Z" fill="#E9E9EA"/>
<path d="M2.53851 3.49459V3.30859C2.4005 3.38459 2.23448 3.38659 2.09246 3.31659V3.49459L1.89844 3.59059C2.07446 3.82459 2.4045 3.87059 2.63852 3.69459C2.67653 3.66659 2.71053 3.63259 2.74053 3.59259L2.53851 3.49459Z" fill="#F9D0B4"/>
<path d="M3.2301 3.33175C3.08808 3.18375 3.00807 2.98575 3.00607 2.77975V2.24775C3.00807 2.09775 2.90006 1.97175 2.75204 1.94775C2.68603 1.93775 2.61803 1.95175 2.56002 1.98775C2.50601 1.89775 2.41 1.84375 2.30799 1.84375H2.15597C1.86194 1.84375 1.62391 2.08175 1.62391 2.37575V2.75975C1.62391 2.96975 1.5579 3.18375 1.40589 3.32975C1.38588 3.34775 1.38588 3.37975 1.40389 3.39975C1.40589 3.40175 1.40789 3.40375 1.40989 3.40575C1.5019 3.47775 1.61591 3.51375 1.73192 3.51175C1.80193 3.50775 1.87194 3.52175 1.93395 3.55175L1.93795 3.55375C1.94595 3.55775 1.95195 3.55975 1.95995 3.56375L2.09197 3.49775V3.31975C1.92795 3.23775 1.82394 3.06975 1.82394 2.88775V2.73775C1.82394 2.70975 1.84594 2.68775 1.87394 2.68775H1.87594C1.99996 2.69375 2.31199 2.67375 2.49601 2.37175C2.51001 2.34775 2.54202 2.33975 2.56602 2.35575C2.57002 2.35775 2.57402 2.36175 2.57802 2.36575C2.62003 2.41575 2.68003 2.44775 2.74604 2.45375C2.77204 2.45775 2.79005 2.47775 2.79005 2.50375V2.88775C2.79005 3.06575 2.69204 3.22775 2.53602 3.31375V3.49975L2.67003 3.56575C2.68003 3.56175 2.68804 3.55775 2.69804 3.55375C2.76004 3.52375 2.83005 3.50975 2.90006 3.51375C3.01607 3.51575 3.13009 3.47975 3.2221 3.40775C3.2441 3.39175 3.2481 3.35975 3.2321 3.33975C3.2321 3.33375 3.2321 3.33175 3.2301 3.33175Z" fill="#6D6C6B"/>
<path d="M2.99698 0.0507812H1.63482C1.4508 0.0507812 1.30278 0.200781 1.30078 0.382781V0.964781C1.30078 1.14878 1.4508 1.29678 1.63282 1.29678H1.98486C2.02486 1.29678 2.06487 1.31678 2.08687 1.35078L2.2849 1.65278C2.2949 1.66878 2.3169 1.67278 2.3329 1.66278C2.3369 1.66078 2.3409 1.65678 2.3429 1.65278L2.54092 1.35078C2.56293 1.31678 2.60093 1.29678 2.64294 1.29678H2.99498C3.179 1.29678 3.32702 1.14678 3.32702 0.964781V0.382781C3.32902 0.200781 3.181 0.0507812 2.99698 0.0507812Z" fill="#55ACD5"/>
<path d="M3.90562 1.19537H3.86962V1.15937C3.86962 1.13137 3.84761 1.10938 3.81961 1.10938C3.79161 1.10938 3.7696 1.13137 3.7696 1.15937V1.19537H3.7336C3.7056 1.19537 3.68359 1.21737 3.68359 1.24537C3.68359 1.27337 3.7056 1.29538 3.7336 1.29538H3.7696V1.33137C3.7696 1.35937 3.79161 1.38137 3.81961 1.38137C3.84761 1.38137 3.86962 1.35937 3.86962 1.33137V1.29538H3.90562C3.93362 1.29538 3.95563 1.27337 3.95563 1.24537C3.95563 1.21737 3.93362 1.19537 3.90562 1.19537Z" fill="#55ACD5"/>
<path d="M1.34121 1.61725H1.30321V1.58125C1.30321 1.55325 1.28121 1.53125 1.2532 1.53125C1.2252 1.53125 1.2032 1.55325 1.2032 1.58125V1.61725H1.16719C1.13919 1.61725 1.11719 1.63925 1.11719 1.66725C1.11719 1.69525 1.13919 1.71725 1.16719 1.71725H1.2032V1.75325C1.2032 1.78125 1.2252 1.80325 1.2532 1.80325C1.28121 1.80325 1.30321 1.78125 1.30321 1.75325V1.71725H1.33921C1.36722 1.71725 1.38922 1.69525 1.38922 1.66725C1.38922 1.63925 1.36722 1.61725 1.34121 1.61725Z" fill="#FFCD29"/>
<path d="M3.74985 3.35981C3.74785 3.35381 3.74585 3.34781 3.74185 3.34181C3.73985 3.33981 3.73785 3.33581 3.73585 3.33381C3.71585 3.31581 3.68585 3.31581 3.66585 3.33381C3.66384 3.33581 3.66184 3.33781 3.65984 3.34181C3.65784 3.34381 3.65584 3.34781 3.65584 3.34981C3.65384 3.35381 3.65384 3.35581 3.65384 3.35981C3.65184 3.36581 3.65184 3.37381 3.65384 3.37981C3.65384 3.38381 3.65584 3.38581 3.65584 3.38981C3.65784 3.39181 3.65784 3.39581 3.65984 3.39781C3.66184 3.39981 3.66384 3.40381 3.66585 3.40581C3.68585 3.42581 3.71585 3.42581 3.73585 3.40581C3.73785 3.40381 3.73985 3.40181 3.74185 3.39781C3.74385 3.39581 3.74585 3.39181 3.74585 3.38981C3.74785 3.38781 3.74785 3.38381 3.74785 3.37981C3.74985 3.37381 3.74985 3.36781 3.74985 3.35981Z" fill="#6DCC6D"/>
<path d="M0.949074 2.19575C0.947074 2.18975 0.945073 2.18375 0.941073 2.17775C0.939073 2.17575 0.937072 2.17175 0.935072 2.16975C0.91507 2.15175 0.885066 2.15175 0.865064 2.16975C0.863064 2.17175 0.861064 2.17375 0.859063 2.17775C0.857063 2.17975 0.855063 2.18375 0.855063 2.18575C0.853063 2.18975 0.853063 2.19175 0.853063 2.19575C0.851062 2.20175 0.851062 2.20975 0.853063 2.21575C0.853063 2.21975 0.855063 2.22175 0.855063 2.22575C0.857063 2.22775 0.857063 2.23175 0.859063 2.23375C0.861064 2.23575 0.863064 2.23975 0.865064 2.24175C0.885066 2.26175 0.91507 2.26175 0.935072 2.24175C0.937072 2.23975 0.939073 2.23775 0.941073 2.23375C0.943073 2.23175 0.945073 2.22775 0.945073 2.22575C0.947074 2.22375 0.947074 2.21975 0.947074 2.21575C0.951074 2.20975 0.951074 2.20175 0.949074 2.19575Z" fill="#6DCC6D"/>
<path d="M3.62378 2.91534C3.55377 2.90134 3.49977 2.84734 3.48777 2.77934C3.48777 2.77734 3.48577 2.77734 3.48377 2.77734C3.48177 2.77734 3.48177 2.77934 3.48177 2.77934C3.46776 2.84934 3.41376 2.90334 3.34575 2.91534C3.34375 2.91534 3.34375 2.91734 3.34375 2.91934C3.34375 2.92134 3.34575 2.92134 3.34575 2.92134C3.41576 2.93534 3.46976 2.98934 3.48177 3.05734C3.48177 3.05934 3.48377 3.05934 3.48577 3.05934C3.48777 3.05934 3.48777 3.05734 3.48777 3.05734C3.50177 2.98734 3.55577 2.93334 3.62378 2.92134C3.62578 2.92134 3.62578 2.91934 3.62578 2.91734C3.62578 2.91734 3.62578 2.91534 3.62378 2.91534Z" fill="#EA4647"/>
<path d="M2.35354 3.96636C2.35154 3.96436 2.34954 3.96236 2.34554 3.96036C2.34354 3.95836 2.33954 3.95636 2.33754 3.95636C2.33554 3.95436 2.33154 3.95436 2.32754 3.95436C2.31154 3.95036 2.29353 3.95636 2.28353 3.96836C2.27353 3.97836 2.26953 3.99036 2.26953 4.00436C2.26953 4.00836 2.26953 4.01036 2.27153 4.01436C2.27153 4.01836 2.27353 4.02036 2.27353 4.02436C2.27553 4.02836 2.27553 4.03036 2.27753 4.03236C2.27953 4.03436 2.28153 4.03836 2.28353 4.04036C2.29353 4.05036 2.30554 4.05436 2.31954 4.05436C2.32554 4.05436 2.33354 4.05236 2.33754 4.05036C2.34154 4.04836 2.34354 4.04836 2.34554 4.04636C2.35154 4.04236 2.35554 4.03836 2.35954 4.03236C2.36154 4.03036 2.36354 4.02636 2.36354 4.02436C2.36554 4.02036 2.36554 4.01836 2.36554 4.01436C2.36554 4.01036 2.36554 4.00836 2.36754 4.00436C2.36954 3.98836 2.36354 3.97436 2.35354 3.96636Z" fill="#231F20"/>
<path d="M2.36895 4.25044C2.36895 4.24644 2.36695 4.24444 2.36695 4.24044C2.36495 4.23644 2.36495 4.23444 2.36295 4.23244C2.36095 4.23044 2.35895 4.22644 2.35695 4.22444C2.33694 4.20644 2.30694 4.20644 2.28694 4.22444C2.28494 4.22644 2.28294 4.22844 2.28094 4.23244C2.27894 4.23444 2.27694 4.23844 2.27694 4.24044C2.27494 4.24444 2.27494 4.24644 2.27494 4.25044C2.27294 4.25644 2.27294 4.26444 2.27494 4.27044C2.27494 4.27444 2.27694 4.27644 2.27694 4.28044C2.27894 4.28444 2.27894 4.28644 2.28094 4.28844C2.28294 4.29044 2.28494 4.29444 2.28694 4.29644C2.29694 4.30644 2.30894 4.31044 2.32294 4.31044C2.32694 4.31044 2.32894 4.31044 2.33294 4.30844C2.33694 4.30844 2.33895 4.30644 2.34295 4.30644C2.34695 4.30444 2.34895 4.30444 2.35095 4.30244C2.35295 4.30044 2.35695 4.29844 2.35895 4.29644C2.36095 4.29444 2.36295 4.29244 2.36495 4.28844C2.36895 4.28244 2.37095 4.27644 2.37295 4.27044C2.37095 4.26244 2.37095 4.25644 2.36895 4.25044Z" fill="#231F20"/>
<path d="M2.36945 4.51189C2.36945 4.50789 2.36745 4.50589 2.36745 4.50189C2.36545 4.49789 2.36545 4.49589 2.36345 4.49389C2.36145 4.49189 2.35945 4.48789 2.35745 4.48589C2.35545 4.48389 2.35345 4.48189 2.34945 4.47989C2.34745 4.47789 2.34345 4.47589 2.34145 4.47589C2.33744 4.47389 2.33544 4.47389 2.33144 4.47389C2.31544 4.46989 2.29744 4.47589 2.28744 4.48789C2.28544 4.48989 2.28344 4.49189 2.28144 4.49589C2.27944 4.49789 2.27744 4.50189 2.27744 4.50389C2.27544 4.50789 2.27544 4.50989 2.27544 4.51389C2.27544 4.51789 2.27544 4.51989 2.27344 4.52389C2.27344 4.55189 2.29544 4.57389 2.32344 4.57389C2.32744 4.57389 2.32944 4.57389 2.33344 4.57189C2.33744 4.57189 2.33945 4.56989 2.34345 4.56989C2.34545 4.56789 2.34945 4.56789 2.35145 4.56589C2.35345 4.56389 2.35745 4.56189 2.35945 4.55989C2.36945 4.54989 2.37345 4.53789 2.37345 4.52389C2.37145 4.51789 2.37145 4.51389 2.36945 4.51189Z" fill="#231F20"/>
<path d="M2.35354 4.74006C2.33354 4.72206 2.30354 4.72206 2.28353 4.74006C2.27353 4.75006 2.26953 4.76206 2.26953 4.77606C2.26953 4.78006 2.26953 4.78206 2.27153 4.78606C2.27153 4.79006 2.27353 4.79206 2.27353 4.79606C2.27553 4.80006 2.27553 4.80206 2.27753 4.80406C2.27953 4.80606 2.28153 4.81006 2.28353 4.81206C2.29353 4.82206 2.30554 4.82606 2.31954 4.82606C2.32354 4.82606 2.32554 4.82606 2.32954 4.82606C2.33354 4.82606 2.33554 4.82406 2.33954 4.82406C2.34354 4.82206 2.34554 4.82206 2.34754 4.82006C2.35354 4.81606 2.35754 4.81206 2.36154 4.80606C2.36354 4.80406 2.36554 4.80006 2.36554 4.79806C2.36754 4.79206 2.36954 4.78606 2.36954 4.77806C2.36954 4.76206 2.36354 4.75006 2.35354 4.74006Z" fill="#231F20"/>
<path d="M2.3075 3.42109C2.01347 3.42109 1.77344 3.18109 1.77344 2.88709V2.73709C1.77344 2.70909 1.78544 2.68309 1.80344 2.66509C1.82344 2.64509 1.84945 2.63509 1.87745 2.63709C1.99346 2.64109 2.2815 2.62309 2.45352 2.34509C2.46952 2.31709 2.49952 2.29909 2.53153 2.29709C2.56353 2.29509 2.59553 2.30709 2.61553 2.33309C2.64954 2.37309 2.69954 2.39909 2.75155 2.40509C2.80156 2.41109 2.83956 2.45309 2.83956 2.50509V2.88909C2.84156 3.18109 2.60153 3.41909 2.3075 3.42109ZM1.87545 2.73509V2.88709C1.87545 3.12709 2.06947 3.32109 2.3095 3.32109C2.54953 3.32109 2.74355 3.12709 2.74355 2.88709V2.50309C2.66554 2.49509 2.59353 2.45709 2.54353 2.39709C2.3415 2.71909 2.00746 2.74109 1.87545 2.73509Z" fill="#231F20"/>
<path d="M2.88204 5.12097C2.85403 5.12097 2.83203 5.09897 2.83203 5.07097V4.34297C2.83203 4.31497 2.85403 4.29297 2.88204 4.29297C2.91004 4.29297 2.93204 4.31497 2.93204 4.34297V5.07097C2.93204 5.09897 2.91004 5.12097 2.88204 5.12097Z" fill="#231F20"/>
<path d="M1.73751 4.29297C1.7095 4.29297 1.6875 4.31497 1.6875 4.34297V5.07097C1.6875 5.09897 1.7095 5.12097 1.73751 5.12097C1.76551 5.12097 1.78751 5.09897 1.78751 5.07097V4.34297C1.78751 4.31497 1.76351 4.29297 1.73751 4.29297Z" fill="#231F20"/>
<path d="M3.21851 5.12012H1.4123C1.31629 5.12012 1.23828 5.04212 1.23828 4.94612C1.23828 4.94212 1.23828 4.94012 1.23828 4.93612L1.29829 3.87412C1.30429 3.76812 1.3783 3.68012 1.48031 3.65412L1.81235 3.57012C1.83635 3.56412 1.86035 3.55412 1.88436 3.54412L2.04237 3.46612V3.31812C2.04237 3.29012 2.06438 3.26812 2.09238 3.26812C2.10038 3.26812 2.10838 3.27012 2.11438 3.27412C2.17439 3.30412 2.2404 3.32012 2.30841 3.32012C2.38041 3.32012 2.45042 3.30212 2.51443 3.26812C2.53843 3.25412 2.56844 3.26412 2.58244 3.28812C2.58644 3.29612 2.58844 3.30412 2.58844 3.31212V3.46812L2.74646 3.54612C2.77046 3.55812 2.79446 3.56612 2.81846 3.57212L3.1505 3.65612C3.25251 3.68212 3.32652 3.77012 3.33252 3.87612L3.39053 4.93812C3.39653 5.03412 3.32252 5.11612 3.22651 5.12212C3.22451 5.12012 3.22251 5.12012 3.21851 5.12012ZM2.14239 3.39212V3.49612C2.14239 3.51612 2.13238 3.53212 2.11438 3.54012L1.92836 3.63212C1.89836 3.64612 1.86835 3.65812 1.83635 3.66612L1.50231 3.75212C1.4423 3.76612 1.4003 3.82012 1.3963 3.88012L1.33629 4.94212C1.33429 4.98212 1.3663 5.01812 1.4063 5.02012C1.4083 5.02012 1.4083 5.02012 1.4103 5.02012H3.21651C3.25851 5.02012 3.29052 4.98612 3.29052 4.94612C3.29052 4.94412 3.29052 4.94412 3.29052 4.94212L3.23051 3.88012C3.22651 3.81812 3.18451 3.76612 3.1245 3.75212L2.79246 3.66812C2.76046 3.66012 2.73045 3.64812 2.70045 3.63412L2.51443 3.54212C2.49643 3.53412 2.48643 3.51612 2.48643 3.49812V3.38812C2.37641 3.42812 2.2544 3.43012 2.14239 3.39212Z" fill="#231F20"/>
<path d="M2.9962 0H1.63404C1.42202 0 1.25 0.172 1.25 0.382V0.964C1.25 1.176 1.42202 1.346 1.63204 1.346H1.98408C2.00809 1.346 2.03009 1.358 2.04409 1.378L2.24211 1.68C2.26812 1.718 2.32012 1.73 2.36013 1.704C2.37013 1.698 2.37813 1.69 2.38413 1.68L2.58215 1.378C2.59616 1.358 2.61816 1.346 2.64216 1.346H2.9942C3.20623 1.346 3.37625 1.174 3.37625 0.964V0.382C3.37825 0.172 3.20823 0 2.9962 0ZM3.28023 0.964C3.28023 1.12 3.15422 1.246 2.9982 1.246H2.64616C2.58815 1.246 2.53415 1.274 2.50214 1.324L2.31612 1.606L2.1301 1.324C2.0981 1.276 2.04409 1.246 1.98609 1.246H1.63404C1.47803 1.246 1.35201 1.12 1.35201 0.964V0.382C1.35001 0.226 1.47803 0.1 1.63404 0.1H2.9962C3.15222 0.1 3.27823 0.226 3.27823 0.382L3.28023 0.964Z" fill="#231F20"/>
<path d="M2.85498 0.359375L1.76485 0.363375C1.73685 0.363375 1.71484 0.385375 1.71484 0.413375C1.71484 0.441375 1.73685 0.463375 1.76485 0.463375L2.85498 0.459375C2.88298 0.459375 2.90498 0.437375 2.90498 0.409375C2.90498 0.381375 2.88298 0.359375 2.85498 0.359375Z" fill="#231F20"/>
<path d="M2.85498 0.621094L1.76485 0.627094C1.73685 0.627094 1.71484 0.649094 1.71484 0.677094C1.71484 0.705094 1.73685 0.727094 1.76485 0.727094L2.85498 0.723094C2.88298 0.723094 2.90498 0.701094 2.90498 0.673094C2.90498 0.643094 2.88298 0.621094 2.85498 0.621094Z" fill="#231F20"/>
<path d="M2.85498 0.886719L1.76485 0.890719C1.73685 0.890719 1.71484 0.912719 1.71484 0.940719C1.71484 0.968719 1.73685 0.990719 1.76485 0.990719L2.85498 0.986719C2.88298 0.986719 2.90498 0.964719 2.90498 0.936719C2.90498 0.910719 2.88298 0.886719 2.85498 0.886719Z" fill="#231F20"/>
<path d="M3.26927 3.29697C3.13525 3.15897 3.05924 2.97297 3.05924 2.78097V2.24897C3.06124 2.07497 2.93523 1.92697 2.76321 1.89897C2.7012 1.89097 2.63719 1.89897 2.58119 1.92297C2.51518 1.84097 2.41717 1.79297 2.31316 1.79297H2.16114C1.8391 1.79297 1.57907 2.05497 1.57907 2.37497V2.75897C1.57907 2.97697 1.50706 3.16697 1.37505 3.29297C1.33504 3.33097 1.33304 3.39297 1.37105 3.43297C1.37505 3.43697 1.37905 3.44097 1.38305 3.44297C1.48506 3.52097 1.60907 3.56297 1.73709 3.55897C1.7991 3.55497 1.8591 3.56697 1.91511 3.59297L1.91911 3.59497C1.92511 3.59697 1.92911 3.59897 1.93511 3.60297L1.94311 3.60697C1.95711 3.61297 1.97312 3.61297 1.98512 3.60697L2.11713 3.54097C2.13513 3.53297 2.14514 3.51497 2.14514 3.49697V3.31897C2.14514 3.30097 2.13513 3.28297 2.11713 3.27497C1.96912 3.20097 1.8771 3.05097 1.8771 2.88697V2.73497C2.01112 2.74097 2.34316 2.71897 2.54318 2.39697C2.59319 2.45697 2.6652 2.49497 2.74321 2.50297V2.88697C2.74321 3.04697 2.6552 3.19297 2.51518 3.26897C2.49918 3.27697 2.48918 3.29497 2.48918 3.31297V3.49897C2.48918 3.51897 2.49918 3.53497 2.51718 3.54297L2.65119 3.60897C2.6652 3.61497 2.6792 3.61497 2.6932 3.60897L2.6992 3.60697C2.7072 3.60297 2.7152 3.59897 2.7232 3.59697C2.77921 3.57097 2.83922 3.55897 2.90122 3.56297C3.02924 3.56697 3.15525 3.52497 3.25526 3.44697C3.29927 3.41297 3.30727 3.35097 3.27327 3.30897C3.27527 3.30097 3.27127 3.29897 3.26927 3.29697ZM2.90722 3.45897C2.82922 3.45497 2.75121 3.47097 2.6812 3.50297C2.6792 3.50297 2.6772 3.50497 2.6752 3.50497L2.58919 3.46297V3.33897C2.74721 3.24097 2.84322 3.07097 2.84322 2.88497V2.50097C2.84322 2.45097 2.80521 2.40897 2.75521 2.40097C2.7012 2.39497 2.65319 2.36897 2.61919 2.32897C2.59919 2.30497 2.56718 2.29097 2.53518 2.29297C2.50318 2.29497 2.47317 2.31297 2.45717 2.34097C2.28715 2.61897 1.99712 2.63697 1.88111 2.63297C1.8531 2.63097 1.8271 2.64097 1.8071 2.66097C1.78709 2.67897 1.77709 2.70497 1.77709 2.73297V2.88297C1.77709 3.07297 1.87911 3.25097 2.04512 3.34497V3.46297L1.96311 3.50297L1.95911 3.50097C1.88911 3.46697 1.8111 3.45297 1.73309 3.45697C1.62908 3.45897 1.52706 3.42497 1.44505 3.36097C1.59507 3.21697 1.67908 3.00097 1.67908 2.75497V2.36897C1.67908 2.10297 1.89511 1.88697 2.16114 1.88697H2.31316C2.39917 1.88697 2.47917 1.93297 2.52318 2.00697C2.53718 2.03097 2.56718 2.03897 2.59119 2.02497C2.63919 1.99697 2.6952 1.98497 2.75121 1.99297C2.87322 2.01297 2.96323 2.11897 2.96123 2.24297V2.77897C2.96123 2.99697 3.04724 3.20697 3.19926 3.36297C3.11525 3.42697 3.01124 3.46097 2.90722 3.45897Z" fill="#231F20"/>
<path d="M2.78885 3.58381C2.78485 3.56981 2.77485 3.55781 2.76285 3.54981L2.58883 3.46381V3.30781C2.58883 3.27981 2.56682 3.25781 2.53882 3.25781C2.53082 3.25781 2.52282 3.25981 2.51482 3.26381C2.45081 3.29781 2.3808 3.31581 2.30879 3.31581C2.24079 3.31581 2.17478 3.29981 2.11477 3.26981C2.09077 3.25781 2.06077 3.26781 2.04676 3.29181C2.04276 3.29781 2.04076 3.30581 2.04076 3.31381V3.46181L1.87474 3.54381C1.85074 3.55581 1.84074 3.58581 1.85274 3.60981C1.85474 3.61181 1.85674 3.61581 1.85674 3.61781C2.04876 3.87381 2.41081 3.92381 2.66684 3.73181C2.70884 3.69981 2.74685 3.66381 2.77885 3.62181C2.78885 3.61381 2.79085 3.59981 2.78885 3.58381ZM2.3208 3.75381C2.19278 3.75381 2.06877 3.70181 1.97876 3.60981L2.11477 3.54181C2.13277 3.53381 2.14278 3.51581 2.14278 3.49781V3.39381C2.25479 3.42981 2.3768 3.42781 2.48882 3.38981V3.49981C2.48882 3.51981 2.49882 3.53581 2.51682 3.54381L2.66084 3.61381C2.57082 3.70181 2.44681 3.75381 2.3208 3.75381Z" fill="#231F20"/>
</svg>
