<svg id="Layer_1" enable-background="new 0 0 256 256" height="512" viewBox="0 0 256 256" width="512" xmlns="http://www.w3.org/2000/svg"><g><g><g><path d="m128.316 130.304c-.164.008-.33.026-.498.026h-.002l-11.717 9.359-10.148-17.874c-11.434 4.098-24.802 12.604-31.881 30.303l-8.855 21.112-14.785-36.6h-26.581l29.106 72.909h73.4 3.289 73.154l29.323-72.909h-26.55l-14.787 36.6-8.853-21.112c-7.061-17.651-20.377-26.161-31.792-30.271l-10.126 17.843-11.719-9.359m-.483 68.455c-2.727 0-4.935-2.21-4.935-4.937 0-2.728 2.209-4.938 4.935-4.938 2.727 0 4.938 2.21 4.938 4.938-.001 2.727-2.212 4.937-4.938 4.937zm0-21.159c-2.727 0-4.935-2.21-4.935-4.936 0-2.728 2.209-4.938 4.935-4.938 2.727 0 4.938 2.21 4.938 4.938-.001 2.726-2.212 4.936-4.938 4.936zm0-21.16c-2.727 0-4.935-2.21-4.935-4.936 0-2.728 2.209-4.938 4.935-4.938 2.727 0 4.938 2.21 4.938 4.938-.001 2.726-2.212 4.936-4.938 4.936z" fill="#f46275"/></g></g><g><g><path d="m232.122 136.631-29.323 72.909h-7.786l29.105-72.909z" fill="#f48875"/></g></g><g><g><path d="m205.572 136.631h26.55.03l3.957-9.915h-26.533z" fill="#63bce7"/></g></g><g><g><path d="m232.326 88.799c-2.061 0-3.745 2.02-3.777 4.5 0 .023-.006.046-.006.069v7.484h-19.689c-2.512 0-4.568 2.054-4.568 4.567v15.432 1.297c0 2.511 2.057 4.567 4.568 4.567h.723 26.533v-23.298-10.05c-.001-2.512-1.702-4.568-3.784-4.568z" fill="#f8af23"/></g></g><g><g><path d="m108.864 120.852c-.907.277-1.832.58-2.771.914-.048.018-.094.032-.142.049v.001l10.148 17.874 11.717-9.359-8.504-9.479z" fill="#63bce7"/></g></g><g><g><path d="m147.246 120.852h-10.445l-8.506 9.479 11.719 9.359 10.126-17.843.001-.005c-.989-.353-1.942-.699-2.895-.99z" fill="#63bce7"/></g></g><g><g><g><path d="m108.864 120.851c-.907.277-1.832.58-2.772.914-.048.018-.094.032-.142.049v.001l10.148 17.874 5.724-4.572-8.1-14.266z" fill="#6377e7"/></g></g></g><g><g><path d="m147.246 120.851h-4.898l-8.085 14.246 5.75 4.592 10.126-17.843.001-.004c-.988-.353-1.941-.699-2.894-.991z" fill="#63e2e7"/></g></g><g><g><path d="m50.43 136.631-4.006-9.915h-26.533l3.957 9.915h.001z" fill="#63bce7"/></g></g><g><g><path d="m47.146 126.716c2.512 0 4.568-2.057 4.568-4.567v-1.297-15.432c0-2.514-2.057-4.567-4.568-4.567h-19.689v-7.484c0-2.513-1.703-4.569-3.783-4.569s-3.783 2.057-3.783 4.569v10.05 23.298h26.533.722z" fill="#f8af23"/></g></g><g><g><path d="m19.891 126.716 3.957 9.915h.001 7.979l-3.957-9.915z" fill="#6377e7"/></g></g><g><g><path d="m27.871 103.418v-2.565h-.414v-7.484c0-2.513-1.703-4.569-3.783-4.569s-3.783 2.057-3.783 4.569v10.05 23.298h7.98z" fill="#f87023"/></g></g><g><g><path d="m228.129 103.418v-2.565h.414v-7.484c0-2.513 1.703-4.569 3.783-4.569s3.783 2.057 3.783 4.569v10.05 23.298h-7.98z" fill="#f8d323"/></g></g><g><g><path d="m23.85 136.631 29.105 72.909h8.004l-29.105-72.909z" fill="#f43075"/></g></g><g><g><path d="m236.109 126.716-3.957 9.915h-.001-7.979l3.957-9.915z" fill="#63e2e7"/></g></g><g><g><path d="m180.689 209.54h-7.984l-5.534-34.328z" fill="#f43075"/></g></g><g><g><path d="m75.002 209.54h7.984l5.535-34.328z" fill="#f43075"/></g></g><g><g><path d="m127.816 130.33h.002c.168 0 .334-.019.498-.026l8.483-9.452h-17.487z" fill="#f8af23"/></g></g><g><g><path d="m47.146 100.853c2.512 0 4.568 2.054 4.568 4.567v15.432h57.143.007 10.448 17.488.001 10.445 57.039v-15.432c0-2.514 2.057-4.567 4.568-4.567h19.689v-7.484c0-.023.006-.046.006-.069v-54.029c0-2.75-2.25-5-5-5h-191.091c-2.75 0-5 2.25-5 5v54.098 7.484zm152.752-26.752c2.166-.314 4.73-2.179 5.699-4.143.969-1.963 2.555-1.963 3.525 0 .969 1.964 3.533 3.828 5.699 4.143 2.166.314 2.656 1.823 1.088 3.352-1.566 1.528-2.547 4.543-2.178 6.701.371 2.158-.912 3.09-2.85 2.07-1.938-1.019-5.109-1.019-7.045 0-1.938 1.019-3.221.088-2.852-2.07.371-2.158-.609-5.173-2.178-6.701-1.564-1.529-1.076-3.038 1.092-3.352zm-39.535 0c2.168-.314 4.732-2.179 5.703-4.143.969-1.963 2.553-1.963 3.521 0 .971 1.964 3.535 3.828 5.703 4.143 2.164.314 2.654 1.823 1.088 3.352-1.568 1.528-2.549 4.543-2.178 6.701.369 2.158-.914 3.09-2.85 2.07-1.939-1.019-5.109-1.019-7.049 0-1.936 1.019-3.219.088-2.85-2.07.371-2.158-.609-5.173-2.178-6.701-1.564-1.529-1.074-3.038 1.09-3.352zm-39.531 0c2.166-.314 4.731-2.179 5.699-4.143.971-1.963 2.555-1.963 3.525 0 .969 1.964 3.533 3.828 5.699 4.143 2.168.314 2.656 1.823 1.088 3.352-1.566 1.528-2.547 4.543-2.176 6.701.369 2.158-.914 3.09-2.852 2.07-1.936-1.019-5.108-1.019-7.045 0-1.938 1.019-3.221.088-2.85-2.07.369-2.158-.611-5.173-2.178-6.701-1.566-1.529-1.076-3.038 1.09-3.352zm-39.533 0c2.166-.314 4.73-2.179 5.701-4.143.969-1.963 2.555-1.963 3.523 0 .969 1.964 3.535 3.828 5.701 4.143 2.166.314 2.654 1.823 1.088 3.352-1.566 1.528-2.547 4.543-2.178 6.701s-.912 3.09-2.85 2.07c-1.938-1.019-5.109-1.019-7.047 0s-3.221.088-2.85-2.07c.369-2.158-.611-5.173-2.178-6.701-1.566-1.529-1.076-3.038 1.09-3.352zm-39.531 0c2.166-.314 4.73-2.179 5.699-4.143.971-1.963 2.555-1.963 3.525 0 .969 1.964 3.533 3.828 5.699 4.143 2.166.314 2.656 1.823 1.088 3.352-1.566 1.528-2.547 4.543-2.178 6.701.371 2.158-.912 3.09-2.85 2.07-1.938-1.019-5.109-1.019-7.045 0-1.938 1.019-3.221.088-2.852-2.07.371-2.158-.609-5.173-2.178-6.701-1.565-1.529-1.076-3.038 1.092-3.352z" fill="#63bce7"/></g></g><g><g><path d="m35.441 39.271c0-2.75 2.25-5 5-5h-7.984c-2.75 0-5 2.25-5 5v54.098 7.484h7.984v-7.484z" fill="#6377e7"/></g></g><g><g><path d="m55.131 100.853h-7.984c2.512 0 4.568 2.054 4.568 4.567v15.432h7.984v-15.432c0-2.514-2.056-4.567-4.568-4.567z" fill="#6377e7"/></g></g><g><g><g><path d="m220.564 39.271c0-2.75-2.25-5-5-5h7.984c2.75 0 5 2.25 5 5v54.098 7.484h-7.984v-7.484z" fill="#63e2e7"/></g></g></g><g><g><path d="m127.811 146.594c-2.727 0-4.935 2.21-4.935 4.938 0 2.726 2.209 4.936 4.935 4.936 2.727 0 4.938-2.21 4.938-4.936-.001-2.728-2.212-4.938-4.938-4.938z" fill="#f8af23"/></g></g><g><g><path d="m127.811 167.753c-2.727 0-4.935 2.21-4.935 4.938 0 2.727 2.209 4.936 4.935 4.936 2.727 0 4.938-2.21 4.938-4.936-.001-2.728-2.212-4.938-4.938-4.938z" fill="#f8af23"/></g></g><g><g><path d="m127.811 188.912c-2.727 0-4.935 2.21-4.935 4.938 0 2.727 2.209 4.937 4.935 4.937 2.727 0 4.938-2.21 4.938-4.937-.001-2.728-2.212-4.938-4.938-4.938z" fill="#f8af23"/></g></g><g><g><path d="m42.855 84.153c-.369 2.158.914 3.09 2.852 2.07 1.936-1.019 5.107-1.019 7.045 0s3.221.088 2.85-2.07c-.369-2.158.611-5.173 2.178-6.701 1.568-1.528 1.078-3.037-1.088-3.352-2.166-.314-4.73-2.179-5.699-4.143-.971-1.963-2.555-1.963-3.525 0-.969 1.964-3.533 3.828-5.699 4.143-2.168.314-2.656 1.823-1.09 3.352 1.567 1.528 2.548 4.543 2.176 6.701z" fill="#f8af23"/></g></g><g><g><path d="m82.389 84.153c-.371 2.158.912 3.09 2.85 2.07 1.938-1.019 5.109-1.019 7.047 0s3.219.088 2.85-2.07.611-5.173 2.178-6.701c1.566-1.528 1.078-3.037-1.088-3.352-2.166-.314-4.732-2.179-5.701-4.143-.969-1.963-2.555-1.963-3.523 0-.971 1.964-3.535 3.828-5.701 4.143-2.166.314-2.656 1.823-1.088 3.352 1.564 1.528 2.545 4.543 2.176 6.701z" fill="#f8af23"/></g></g><g><g><path d="m119.744 77.452c1.566 1.528 2.547 4.543 2.178 6.701-.371 2.158.912 3.09 2.85 2.07 1.937-1.019 5.109-1.019 7.045 0 1.938 1.019 3.221.088 2.852-2.07-.371-2.158.609-5.173 2.176-6.701 1.568-1.528 1.08-3.037-1.088-3.352-2.166-.314-4.731-2.179-5.699-4.143-.971-1.963-2.555-1.963-3.525 0-.969 1.964-3.533 3.828-5.699 4.143-2.168.315-2.658 1.824-1.09 3.352z" fill="#f8af23"/></g></g><g><g><path d="m161.453 84.153c-.369 2.158.914 3.09 2.85 2.07 1.939-1.019 5.109-1.019 7.049 0 1.936 1.019 3.219.088 2.85-2.07-.371-2.158.609-5.173 2.178-6.701 1.566-1.528 1.076-3.037-1.088-3.352-2.168-.314-4.732-2.179-5.703-4.143-.969-1.963-2.553-1.963-3.521 0-.971 1.964-3.535 3.828-5.703 4.143-2.164.314-2.654 1.823-1.088 3.352 1.567 1.528 2.547 4.543 2.176 6.701z" fill="#f8af23"/></g></g><g><g><path d="m200.986 84.153c-.369 2.158.914 3.09 2.852 2.07 1.936-1.019 5.107-1.019 7.045 0 1.937 1.019 3.221.088 2.85-2.07-.369-2.158.611-5.173 2.178-6.701 1.568-1.528 1.078-3.037-1.088-3.352-2.166-.314-4.73-2.179-5.699-4.143-.971-1.963-2.557-1.963-3.525 0-.969 1.964-3.533 3.828-5.699 4.143-2.168.314-2.656 1.823-1.09 3.352 1.567 1.528 2.547 4.543 2.176 6.701z" fill="#f8af23"/></g></g><g><g><g><path d="m127.811 145.094c-3.548 0-6.436 2.888-6.436 6.438 0 3.548 2.887 6.436 6.436 6.436 3.55 0 6.438-2.887 6.438-6.436-.001-3.551-2.889-6.438-6.438-6.438zm0 9.873c-1.895 0-3.436-1.541-3.436-3.436 0-1.896 1.541-3.438 3.436-3.438 1.896 0 3.438 1.542 3.438 3.438-.001 1.895-1.543 3.436-3.438 3.436z" fill="#231f20"/></g></g><g><g><path d="m127.811 166.253c-3.548 0-6.436 2.888-6.436 6.438 0 3.549 2.887 6.437 6.436 6.437 3.55 0 6.438-2.887 6.438-6.437-.001-3.55-2.889-6.438-6.438-6.438zm0 9.874c-1.895 0-3.436-1.542-3.436-3.437 0-1.896 1.541-3.438 3.436-3.438 1.896 0 3.438 1.542 3.438 3.438-.001 1.895-1.543 3.437-3.438 3.437z" fill="#231f20"/></g></g><g><g><path d="m127.811 187.412c-3.548 0-6.436 2.888-6.436 6.438 0 3.549 2.887 6.437 6.436 6.437 3.55 0 6.438-2.887 6.438-6.437-.001-3.55-2.889-6.438-6.438-6.438zm0 9.874c-1.895 0-3.436-1.542-3.436-3.437 0-1.896 1.541-3.438 3.436-3.438 1.896 0 3.438 1.542 3.438 3.438-.001 1.896-1.543 3.437-3.438 3.437z" fill="#231f20"/></g></g><g><g><path d="m52.053 87.551c.738.388 1.467.583 2.138.583.645 0 1.237-.18 1.733-.54 1.012-.735 1.433-2.082 1.156-3.693-.287-1.676.53-4.187 1.746-5.374 1.172-1.142 1.623-2.479 1.236-3.669-.386-1.189-1.536-2.006-3.155-2.241-1.682-.244-3.817-1.796-4.57-3.323-.725-1.466-1.858-2.307-3.107-2.307s-2.382.841-3.108 2.309c-.752 1.525-2.888 3.078-4.569 3.322-1.619.235-2.77 1.051-3.156 2.24s.063 2.527 1.235 3.67c1.218 1.187 2.034 3.698 1.746 5.373v-.001c-.276 1.613.146 2.959 1.158 3.694 1.012.734 2.423.718 3.871-.043 1.501-.792 4.14-.792 5.646 0zm-7.045-2.655c-.353.186-.577.23-.688.239-.026-.109-.054-.335.014-.729.453-2.635-.693-6.162-2.609-8.028-.286-.279-.397-.479-.439-.582.095-.059.303-.154.697-.211 2.646-.384 5.646-2.564 6.829-4.962.177-.358.333-.526.418-.599.085.072.241.24.417.597 1.184 2.399 4.183 4.579 6.829 4.963.394.057.601.153.696.211-.043.104-.154.303-.44.582-1.914 1.867-3.06 5.393-2.609 8.029.067.392.041.618.015.727-.112-.009-.335-.053-.688-.239-2.367-1.243-6.075-1.242-8.442.002z" fill="#231f20"/></g></g><g><g><path d="m80.91 83.899c-.277 1.613.144 2.959 1.156 3.695.496.36 1.088.54 1.733.54.671 0 1.399-.194 2.137-.583 1.507-.791 4.147-.791 5.65 0 1.449.762 2.858.777 3.869.043 1.012-.734 1.434-2.081 1.158-3.694-.287-1.676.53-4.187 1.747-5.375 1.171-1.143 1.621-2.48 1.234-3.67-.387-1.188-1.536-2.005-3.154-2.24-1.683-.244-3.819-1.796-4.571-3.322-.724-1.467-1.856-2.308-3.107-2.308s-2.383.841-3.106 2.308c-.754 1.526-2.891 3.079-4.572 3.323-1.619.235-2.769 1.052-3.155 2.241-.387 1.189.064 2.527 1.235 3.668 1.216 1.188 2.032 3.699 1.746 5.374zm.604-8.314c2.645-.384 5.645-2.563 6.831-4.963.176-.357.332-.525.417-.598.085.073.24.24.417.597 1.183 2.399 4.184 4.579 6.831 4.963.394.057.601.153.695.211-.042.104-.153.303-.439.582-1.914 1.867-3.06 5.393-2.609 8.028.067.393.041.619.014.729-.112-.009-.335-.054-.688-.239-2.365-1.244-6.074-1.244-8.443 0-.352.186-.575.23-.687.239-.026-.109-.053-.335.015-.727v-.001c.451-2.635-.695-6.161-2.609-8.028-.286-.279-.397-.478-.44-.582.094-.058.301-.154.695-.211z" fill="#231f20"/></g></g><g><g><path d="m120.443 83.899c-.277 1.613.144 2.959 1.156 3.695.496.36 1.088.54 1.733.54.671 0 1.399-.194 2.137-.583 1.505-.791 4.145-.792 5.648 0 1.448.761 2.858.777 3.871.043 1.012-.735 1.434-2.081 1.158-3.695-.288-1.674.527-4.185 1.744-5.373 1.172-1.143 1.623-2.48 1.237-3.669-.387-1.189-1.537-2.006-3.156-2.241-1.682-.244-3.817-1.796-4.57-3.323-.725-1.466-1.858-2.307-3.107-2.307s-2.382.841-3.108 2.309c-.752 1.525-2.888 3.078-4.569 3.322-1.619.235-2.769 1.052-3.155 2.241-.387 1.189.063 2.526 1.235 3.668 1.217 1.187 2.033 3.699 1.746 5.373zm.604-8.314c2.646-.384 5.646-2.564 6.829-4.962.177-.358.333-.526.418-.599.085.072.241.24.417.597 1.184 2.399 4.183 4.579 6.829 4.963.394.057.601.153.697.211-.043.104-.155.303-.441.582-1.915 1.868-3.06 5.395-2.607 8.028.067.393.04.62.014.729-.111-.008-.335-.053-.688-.239-1.183-.623-2.701-.934-4.22-.934s-3.038.312-4.222.934c-.352.186-.575.23-.687.239-.026-.109-.053-.336.015-.729.451-2.635-.695-6.161-2.609-8.028-.286-.279-.397-.478-.44-.582.094-.057.301-.153.695-.21z" fill="#231f20"/></g></g><g><g><path d="m159.975 83.899v.001c-.276 1.613.146 2.959 1.159 3.694.496.36 1.087.54 1.732.54.67 0 1.398-.195 2.135-.583 1.506-.791 4.148-.791 5.652-.001 1.448.763 2.858.778 3.869.044 1.012-.735 1.435-2.081 1.159-3.696-.288-1.675.528-4.186 1.747-5.373 1.171-1.143 1.621-2.48 1.234-3.669s-1.536-2.006-3.154-2.241c-1.682-.244-3.819-1.797-4.573-3.322-.724-1.467-1.856-2.308-3.106-2.308s-2.382.841-3.105 2.308c-.754 1.526-2.892 3.079-4.574 3.323-1.617.235-2.767 1.052-3.153 2.241s.063 2.526 1.234 3.669c1.216 1.187 2.032 3.698 1.744 5.373zm.604-8.314c2.646-.384 5.647-2.563 6.833-4.963.176-.356.33-.524.416-.597.085.073.24.241.416.597 1.186 2.399 4.187 4.579 6.832 4.962.394.057.601.153.696.211-.042.104-.153.303-.439.582-1.916 1.867-3.062 5.394-2.609 8.028.067.393.04.62.014.729-.111-.009-.335-.054-.688-.239-2.368-1.244-6.077-1.243-8.445.001-.351.185-.574.229-.686.238-.026-.109-.054-.335.014-.729.453-2.635-.693-6.162-2.609-8.028-.286-.279-.397-.479-.439-.582.094-.057.3-.153.694-.21z" fill="#231f20"/></g></g><g><g><path d="m199.508 83.899v.001c-.276 1.613.146 2.959 1.158 3.694 1.012.734 2.423.718 3.871-.043 1.502-.792 4.142-.792 5.647 0 .738.388 1.467.583 2.138.583.645 0 1.237-.18 1.733-.54 1.012-.735 1.433-2.082 1.156-3.693-.287-1.676.53-4.187 1.746-5.374 1.172-1.142 1.623-2.479 1.236-3.669-.386-1.189-1.536-2.006-3.155-2.241-1.682-.244-3.817-1.796-4.57-3.323-.726-1.466-1.858-2.307-3.108-2.307h-.001c-1.25 0-2.382.842-3.106 2.309-.752 1.525-2.888 3.078-4.569 3.322-1.619.235-2.77 1.051-3.156 2.24s.063 2.527 1.235 3.67c1.217 1.185 2.033 3.696 1.745 5.371zm.606-8.314c2.646-.384 5.646-2.564 6.829-4.963.177-.358.332-.525.417-.598.085.072.241.239.418.597 1.184 2.399 4.183 4.579 6.829 4.963.394.057.601.153.696.211-.043.104-.154.303-.44.582-1.914 1.867-3.06 5.393-2.609 8.029.067.392.041.618.015.727-.112-.009-.335-.053-.688-.239-2.367-1.245-6.075-1.244-8.441 0-.353.186-.577.23-.688.239-.026-.109-.054-.335.014-.729.453-2.635-.693-6.162-2.609-8.028-.286-.279-.397-.479-.439-.582.094-.056.301-.152.696-.209z" fill="#231f20"/></g></g><g><g><path d="m237.609 93.368c0-3.347-2.37-6.069-5.283-6.069-.814 0-1.585.222-2.277.608v-48.636c0-3.584-2.916-6.5-6.5-6.5h-191.092c-3.584 0-6.5 2.916-6.5 6.5v48.633c-.692-.383-1.465-.604-2.283-.604-2.913 0-5.283 2.723-5.283 6.069v33.348c0 .197.04.383.109.555l-.002.001.01.026c0 .001.001.002.001.003l3.945 9.886c.001.002.002.003.003.005l28.284 70.848h-8.257c-.829 0-1.5.671-1.5 1.5s.671 1.5 1.5 1.5h10.471 22.044.002.004 105.682.003.003 22.106 8.545c.829 0 1.5-.671 1.5-1.5s-.671-1.5-1.5-1.5h-6.325l28.43-70.688c.031-.056.073-.104.097-.165l3.945-9.886c0-.001.001-.002.001-.003l.01-.026-.002-.001c.069-.172.109-.359.109-.555zm-208.652 0v-54.097c0-1.93 1.57-3.5 3.5-3.5h191.092c1.93 0 3.5 1.57 3.5 3.5v53.977c-.003.042-.006.087-.006.12v5.984h-18.189c-3.346 0-6.068 2.722-6.068 6.067v13.932h-149.571v-13.931c0-3.346-2.722-6.067-6.068-6.067h-18.19zm178.467 34.671-16.665 41.251-7.435-17.729c-6.434-16.085-18.007-24.657-27.979-29.209h47.45c.093 2.762 2.035 5.057 4.629 5.687zm-79.368.312-5.382-5.999h10.766zm-9.413-5.999 6.996 7.798-9.103 7.271-8.556-15.069zm18.827 0h10.658l-8.552 15.069-9.104-7.271zm-36.812 0c-9.985 4.558-21.549 13.129-27.971 29.187l-7.446 17.752-13.42-33.222-3.244-8.03c2.594-.63 4.536-2.925 4.629-5.687zm-79.267-28.984c0-1.664 1.045-3.069 2.283-3.069s2.283 1.406 2.283 3.069v7.484c0 .829.671 1.5 1.5 1.5h19.689c1.692 0 3.068 1.376 3.068 3.067v.598h-16.415c-.829 0-1.5.671-1.5 1.5s.671 1.5 1.5 1.5h16.416v3.667h-16.416c-.829 0-1.5.671-1.5 1.5s.671 1.5 1.5 1.5h16.416v3.667h-16.416c-.829 0-1.5.671-1.5 1.5s.671 1.5 1.5 1.5h16.395c-.107 1.595-1.425 2.864-3.048 2.864h-25.755zm.713 34.848h23.308l2.794 6.915h-23.342zm179.681 79.824h-20.074l-13.749-34.913c-.303-.771-1.173-1.15-1.945-.846-.771.303-1.149 1.174-.846 1.945l13.316 33.813h-101.283l13.314-33.814c.304-.771-.075-1.642-.846-1.945-.769-.304-1.641.075-1.945.846l-13.746 34.914h-20.01l-27.909-69.909h23.355l14.406 35.662c.228.563.773.934 1.381.938.579.024 1.158-.359 1.393-.92l8.865-21.135c5.531-13.827 15.558-23.582 29.813-29.011l9.52 16.766c.216.381.589.649 1.021.732.431.081.876-.027 1.22-.301l11.021-8.802 11.021 8.802c.343.274.788.385 1.22.301.431-.083.804-.351 1.021-.732l9.496-16.732c14.208 5.437 24.206 15.182 29.734 29.001l8.854 21.112c.235.561.822.947 1.393.92.608-.004 1.153-.375 1.381-.938l14.407-35.662h23.319zm29.351-72.909h-23.34l2.792-6.915h23.307zm3.473-9.915h-25.047c-.007 0-.013 0-.02 0h-.689c-1.622 0-2.941-1.269-3.048-2.864h16.395c.829 0 1.5-.671 1.5-1.5s-.671-1.5-1.5-1.5h-16.416v-3.667h16.416c.829 0 1.5-.671 1.5-1.5s-.671-1.5-1.5-1.5h-16.416v-3.667h16.416c.829 0 1.5-.671 1.5-1.5s-.671-1.5-1.5-1.5h-16.416v-.598c0-1.691 1.376-3.067 3.068-3.067h19.689c.829 0 1.5-.671 1.5-1.5v-7.422c.003-.04.005-.082.006-.112.021-1.637 1.064-3.02 2.277-3.02 1.238 0 2.283 1.406 2.283 3.069v31.848z" fill="#231f20"/></g></g><g><g><path d="m34.176 209.54c0-.829-.671-1.5-1.5-1.5h-8.344c-.829 0-1.5.671-1.5 1.5s.671 1.5 1.5 1.5h8.344c.828 0 1.5-.671 1.5-1.5z" fill="#231f20"/></g></g><g><g><path d="m228.484 208.04h-8.346c-.829 0-1.5.671-1.5 1.5s.671 1.5 1.5 1.5h8.346c.829 0 1.5-.671 1.5-1.5s-.671-1.5-1.5-1.5z" fill="#231f20"/></g></g><g><g><path d="m201.277 220.229h-148.726c-.829 0-1.5.671-1.5 1.5s.671 1.5 1.5 1.5h148.727c.829 0 1.5-.671 1.5-1.5s-.672-1.5-1.501-1.5z" fill="#231f20"/></g></g><g><g><path d="m43.541 220.229h-8.344c-.829 0-1.5.671-1.5 1.5s.671 1.5 1.5 1.5h8.344c.829 0 1.5-.671 1.5-1.5s-.671-1.5-1.5-1.5z" fill="#231f20"/></g></g><g><g><path d="m218.836 220.229h-8.346c-.829 0-1.5.671-1.5 1.5s.671 1.5 1.5 1.5h8.346c.829 0 1.5-.671 1.5-1.5s-.671-1.5-1.5-1.5z" fill="#231f20"/></g></g></g></g></svg>