<svg width="194" height="79" viewBox="0 0 194 79" fill="none" xmlns="http://www.w3.org/2000/svg">
<rect width="194" height="79" fill="white"/>
<path d="M90.957 20.7227C92.2526 20.7227 93.3203 20.8789 94.1602 21.1914C95.0065 21.5039 95.6348 21.9759 96.0449 22.6074C96.4551 23.2389 96.6602 24.0365 96.6602 25C96.6602 25.651 96.5365 26.2207 96.2891 26.709C96.0417 27.1973 95.7161 27.6107 95.3125 27.9492C94.9089 28.2878 94.4727 28.5645 94.0039 28.7793L98.2031 35H94.8438L91.4355 29.5215H89.8242V35H86.7969V20.7227H90.957ZM90.7422 23.2031H89.8242V27.0605H90.8008C91.8034 27.0605 92.5195 26.8945 92.9492 26.5625C93.3854 26.224 93.6035 25.7292 93.6035 25.0781C93.6035 24.401 93.3691 23.9193 92.9004 23.6328C92.4382 23.3464 91.7188 23.2031 90.7422 23.2031ZM104.268 23.877C105.277 23.877 106.146 24.0723 106.875 24.4629C107.604 24.847 108.167 25.4069 108.564 26.1426C108.962 26.8783 109.16 27.7767 109.16 28.8379V30.2832H102.119C102.152 31.123 102.402 31.7839 102.871 32.2656C103.346 32.7409 104.004 32.9785 104.844 32.9785C105.54 32.9785 106.178 32.9069 106.758 32.7637C107.337 32.6204 107.933 32.4056 108.545 32.1191V34.4238C108.005 34.6908 107.438 34.8861 106.846 35.0098C106.26 35.1335 105.547 35.1953 104.707 35.1953C103.613 35.1953 102.643 34.9935 101.797 34.5898C100.957 34.1862 100.296 33.571 99.8145 32.7441C99.3392 31.9173 99.1016 30.8757 99.1016 29.6191C99.1016 28.3431 99.3164 27.2819 99.7461 26.4355C100.182 25.5827 100.788 24.9447 101.562 24.5215C102.337 24.0918 103.239 23.877 104.268 23.877ZM104.287 25.9961C103.708 25.9961 103.226 26.1816 102.842 26.5527C102.464 26.9238 102.246 27.5065 102.188 28.3008H106.367C106.361 27.8581 106.279 27.4642 106.123 27.1191C105.973 26.7741 105.745 26.5007 105.439 26.2988C105.14 26.097 104.756 25.9961 104.287 25.9961ZM114.561 35H111.582V19.8047H114.561V35ZM120.674 24.082V35H117.695V24.082H120.674ZM119.189 19.8047C119.632 19.8047 120.013 19.9089 120.332 20.1172C120.651 20.319 120.811 20.6999 120.811 21.2598C120.811 21.8132 120.651 22.1973 120.332 22.4121C120.013 22.6204 119.632 22.7246 119.189 22.7246C118.74 22.7246 118.356 22.6204 118.037 22.4121C117.725 22.1973 117.568 21.8132 117.568 21.2598C117.568 20.6999 117.725 20.319 118.037 20.1172C118.356 19.9089 118.74 19.8047 119.189 19.8047ZM128.281 23.8574C129.746 23.8574 130.869 24.1764 131.65 24.8145C132.432 25.4525 132.822 26.4225 132.822 27.7246V35H130.742L130.166 33.5156H130.088C129.775 33.9062 129.456 34.2253 129.131 34.4727C128.805 34.7201 128.431 34.9023 128.008 35.0195C127.585 35.1367 127.07 35.1953 126.465 35.1953C125.82 35.1953 125.241 35.0716 124.727 34.8242C124.219 34.5768 123.818 34.1992 123.525 33.6914C123.232 33.1771 123.086 32.526 123.086 31.7383C123.086 30.5794 123.493 29.7266 124.307 29.1797C125.12 28.6263 126.341 28.3203 127.969 28.2617L129.863 28.2031V27.7246C129.863 27.1517 129.714 26.7318 129.414 26.4648C129.115 26.1979 128.698 26.0645 128.164 26.0645C127.637 26.0645 127.119 26.1393 126.611 26.2891C126.104 26.4388 125.596 26.6276 125.088 26.8555L124.102 24.8438C124.681 24.5378 125.329 24.2969 126.045 24.1211C126.768 23.9453 127.513 23.8574 128.281 23.8574ZM129.863 29.9414L128.711 29.9805C127.747 30.0065 127.077 30.179 126.699 30.498C126.328 30.8171 126.143 31.237 126.143 31.7578C126.143 32.2135 126.276 32.5391 126.543 32.7344C126.81 32.9232 127.158 33.0176 127.588 33.0176C128.226 33.0176 128.763 32.8288 129.199 32.4512C129.642 32.0736 129.863 31.5365 129.863 30.8398V29.9414ZM138.877 19.8047V23.3398C138.877 23.75 138.864 24.1569 138.838 24.5605C138.818 24.9642 138.792 25.2767 138.76 25.498H138.877C139.163 25.0488 139.554 24.668 140.049 24.3555C140.544 24.0365 141.185 23.877 141.973 23.877C143.197 23.877 144.189 24.3555 144.951 25.3125C145.713 26.2695 146.094 27.6725 146.094 29.5215C146.094 30.765 145.918 31.8099 145.566 32.6562C145.215 33.4961 144.723 34.1309 144.092 34.5605C143.46 34.9837 142.728 35.1953 141.895 35.1953C141.094 35.1953 140.462 35.0521 140 34.7656C139.538 34.4792 139.163 34.1569 138.877 33.7988H138.672L138.174 35H135.898V19.8047H138.877ZM141.016 26.2598C140.495 26.2598 140.081 26.3672 139.775 26.582C139.469 26.7969 139.245 27.1191 139.102 27.5488C138.965 27.9785 138.89 28.5221 138.877 29.1797V29.502C138.877 30.5632 139.033 31.377 139.346 31.9434C139.658 32.5033 140.228 32.7832 141.055 32.7832C141.667 32.7832 142.152 32.5 142.51 31.9336C142.874 31.3672 143.057 30.5501 143.057 29.4824C143.057 28.4147 142.874 27.6107 142.51 27.0703C142.145 26.5299 141.647 26.2598 141.016 26.2598ZM151.533 35H148.555V19.8047H151.533V35ZM159.17 23.877C160.179 23.877 161.048 24.0723 161.777 24.4629C162.507 24.847 163.07 25.4069 163.467 26.1426C163.864 26.8783 164.062 27.7767 164.062 28.8379V30.2832H157.021C157.054 31.123 157.305 31.7839 157.773 32.2656C158.249 32.7409 158.906 32.9785 159.746 32.9785C160.443 32.9785 161.081 32.9069 161.66 32.7637C162.24 32.6204 162.835 32.4056 163.447 32.1191V34.4238C162.907 34.6908 162.34 34.8861 161.748 35.0098C161.162 35.1335 160.449 35.1953 159.609 35.1953C158.516 35.1953 157.546 34.9935 156.699 34.5898C155.859 34.1862 155.199 33.571 154.717 32.7441C154.242 31.9173 154.004 30.8757 154.004 29.6191C154.004 28.3431 154.219 27.2819 154.648 26.4355C155.085 25.5827 155.69 24.9447 156.465 24.5215C157.24 24.0918 158.141 23.877 159.17 23.877ZM159.189 25.9961C158.61 25.9961 158.128 26.1816 157.744 26.5527C157.367 26.9238 157.148 27.5065 157.09 28.3008H161.27C161.263 27.8581 161.182 27.4642 161.025 27.1191C160.876 26.7741 160.648 26.5007 160.342 26.2988C160.042 26.097 159.658 25.9961 159.189 25.9961ZM90.6836 47.7227C92.526 47.7227 93.8704 48.084 94.7168 48.8066C95.5697 49.5228 95.9961 50.5514 95.9961 51.8926C95.9961 52.498 95.8952 53.0742 95.6934 53.6211C95.498 54.1615 95.179 54.64 94.7363 55.0566C94.2936 55.4668 93.7109 55.7923 92.9883 56.0332C92.2721 56.2676 91.3932 56.3848 90.3516 56.3848H88.6133V62H86.9531V47.7227H90.6836ZM90.5273 49.1387H88.6133V54.959H90.166C91.0775 54.959 91.8359 54.8613 92.4414 54.666C93.0534 54.4707 93.5124 54.1549 93.8184 53.7188C94.1243 53.276 94.2773 52.6901 94.2773 51.9609C94.2773 51.0104 93.9746 50.304 93.3691 49.8418C92.7637 49.373 91.8164 49.1387 90.5273 49.1387ZM107.969 56.6289C107.969 57.5078 107.855 58.2923 107.627 58.9824C107.399 59.6725 107.07 60.2552 106.641 60.7305C106.211 61.2057 105.69 61.5703 105.078 61.8242C104.473 62.0716 103.786 62.1953 103.018 62.1953C102.301 62.1953 101.644 62.0716 101.045 61.8242C100.452 61.5703 99.9382 61.2057 99.502 60.7305C99.0723 60.2552 98.737 59.6725 98.4961 58.9824C98.2617 58.2923 98.1445 57.5078 98.1445 56.6289C98.1445 55.457 98.3431 54.4609 98.7402 53.6406C99.1374 52.8138 99.7038 52.1855 100.439 51.7559C101.182 51.3197 102.064 51.1016 103.086 51.1016C104.062 51.1016 104.915 51.3197 105.645 51.7559C106.38 52.1921 106.95 52.8236 107.354 53.6504C107.764 54.4707 107.969 55.4635 107.969 56.6289ZM99.8242 56.6289C99.8242 57.4883 99.9382 58.2337 100.166 58.8652C100.394 59.4967 100.745 59.985 101.221 60.3301C101.696 60.6751 102.308 60.8477 103.057 60.8477C103.799 60.8477 104.408 60.6751 104.883 60.3301C105.365 59.985 105.719 59.4967 105.947 58.8652C106.175 58.2337 106.289 57.4883 106.289 56.6289C106.289 55.776 106.175 55.0404 105.947 54.4219C105.719 53.7969 105.368 53.3151 104.893 52.9766C104.417 52.638 103.802 52.4688 103.047 52.4688C101.934 52.4688 101.117 52.8366 100.596 53.5723C100.081 54.3079 99.8242 55.3268 99.8242 56.6289ZM115.635 51.1016C115.85 51.1016 116.074 51.1146 116.309 51.1406C116.543 51.1602 116.751 51.1895 116.934 51.2285L116.729 52.7324C116.553 52.6868 116.357 52.651 116.143 52.625C115.928 52.599 115.726 52.5859 115.537 52.5859C115.107 52.5859 114.701 52.6738 114.316 52.8496C113.939 53.0189 113.607 53.2663 113.32 53.5918C113.034 53.9108 112.809 54.2982 112.646 54.7539C112.484 55.2031 112.402 55.7044 112.402 56.2578V62H110.771V51.2969H112.119L112.295 53.2695H112.363C112.585 52.8724 112.852 52.5111 113.164 52.1855C113.477 51.8535 113.838 51.5898 114.248 51.3945C114.665 51.1992 115.127 51.1016 115.635 51.1016ZM122.412 60.8672C122.679 60.8672 122.952 60.8444 123.232 60.7988C123.512 60.7533 123.74 60.6979 123.916 60.6328V61.8926C123.727 61.9772 123.464 62.0488 123.125 62.1074C122.793 62.166 122.467 62.1953 122.148 62.1953C121.582 62.1953 121.068 62.0977 120.605 61.9023C120.143 61.7005 119.772 61.362 119.492 60.8867C119.219 60.4115 119.082 59.7539 119.082 58.9141V52.5664H117.559V51.7754L119.092 51.1406L119.736 48.8164H120.713V51.2969H123.848V52.5664H120.713V58.8652C120.713 59.5358 120.866 60.0371 121.172 60.3691C121.484 60.7012 121.898 60.8672 122.412 60.8672ZM130.088 51.1211C131.364 51.1211 132.311 51.4076 132.93 51.9805C133.548 52.5534 133.857 53.4681 133.857 54.7246V62H132.676L132.363 60.418H132.285C131.986 60.8086 131.673 61.1374 131.348 61.4043C131.022 61.6647 130.645 61.8633 130.215 62C129.792 62.1302 129.271 62.1953 128.652 62.1953C128.001 62.1953 127.422 62.0814 126.914 61.8535C126.413 61.6257 126.016 61.2806 125.723 60.8184C125.436 60.3561 125.293 59.7702 125.293 59.0605C125.293 57.9928 125.716 57.1725 126.562 56.5996C127.409 56.0267 128.698 55.7142 130.43 55.6621L132.275 55.584V54.9297C132.275 54.0052 132.077 53.3574 131.68 52.9863C131.283 52.6152 130.723 52.4297 130 52.4297C129.44 52.4297 128.906 52.5111 128.398 52.6738C127.891 52.8366 127.409 53.0286 126.953 53.25L126.455 52.0195C126.937 51.7721 127.49 51.5605 128.115 51.3848C128.74 51.209 129.398 51.1211 130.088 51.1211ZM132.256 56.7266L130.625 56.7949C129.29 56.847 128.35 57.0651 127.803 57.4492C127.256 57.8333 126.982 58.377 126.982 59.0801C126.982 59.6921 127.168 60.1445 127.539 60.4375C127.91 60.7305 128.402 60.877 129.014 60.877C129.964 60.877 130.742 60.6133 131.348 60.0859C131.953 59.5586 132.256 58.7676 132.256 57.7129V56.7266ZM138.818 46.8047V50.6035C138.818 51.0397 138.805 51.4629 138.779 51.873C138.76 52.2832 138.743 52.6022 138.73 52.8301H138.818C139.111 52.3483 139.535 51.9414 140.088 51.6094C140.641 51.2773 141.348 51.1113 142.207 51.1113C143.548 51.1113 144.616 51.5768 145.41 52.5078C146.211 53.4323 146.611 54.8092 146.611 56.6387C146.611 57.8431 146.429 58.8587 146.064 59.6855C145.7 60.5124 145.186 61.1374 144.521 61.5605C143.857 61.9837 143.073 62.1953 142.168 62.1953C141.322 62.1953 140.625 62.0391 140.078 61.7266C139.538 61.4076 139.121 61.0202 138.828 60.5645H138.701L138.369 62H137.197V46.8047H138.818ZM141.943 52.4688C141.169 52.4688 140.553 52.6217 140.098 52.9277C139.642 53.2272 139.313 53.6829 139.111 54.2949C138.916 54.9004 138.818 55.6686 138.818 56.5996V56.6875C138.818 58.0352 139.043 59.0671 139.492 59.7832C139.941 60.4928 140.758 60.8477 141.943 60.8477C142.939 60.8477 143.685 60.4831 144.18 59.7539C144.681 59.0247 144.932 57.9831 144.932 56.6289C144.932 55.2487 144.684 54.2103 144.189 53.5137C143.701 52.8171 142.952 52.4688 141.943 52.4688ZM151.074 62H149.443V46.8047H151.074V62ZM158.623 51.1016C159.535 51.1016 160.316 51.3034 160.967 51.707C161.618 52.1107 162.116 52.6771 162.461 53.4062C162.806 54.1289 162.979 54.9753 162.979 55.9453V56.9512H155.586C155.605 58.2077 155.918 59.1647 156.523 59.8223C157.129 60.4798 157.982 60.8086 159.082 60.8086C159.759 60.8086 160.358 60.7467 160.879 60.623C161.4 60.4993 161.94 60.3171 162.5 60.0762V61.502C161.96 61.7428 161.423 61.9186 160.889 62.0293C160.361 62.14 159.736 62.1953 159.014 62.1953C157.985 62.1953 157.087 61.987 156.318 61.5703C155.557 61.1471 154.964 60.5286 154.541 59.7148C154.118 58.901 153.906 57.9049 153.906 56.7266C153.906 55.5742 154.098 54.5781 154.482 53.7383C154.873 52.8919 155.42 52.2409 156.123 51.7852C156.833 51.3294 157.666 51.1016 158.623 51.1016ZM158.604 52.4297C157.738 52.4297 157.048 52.7129 156.533 53.2793C156.019 53.8457 155.713 54.6367 155.615 55.6523H161.279C161.273 55.0143 161.172 54.4544 160.977 53.9727C160.788 53.4844 160.498 53.1068 160.107 52.8398C159.717 52.5664 159.215 52.4297 158.604 52.4297Z" fill="black" fill-opacity="0.74"/>
<path d="M44 14L49.6129 31.2746H67.7764L53.0818 41.9508L58.6946 59.2254L44 48.5491L29.3054 59.2254L34.9182 41.9508L20.2236 31.2746H38.3871L44 14Z" fill="#FFFF00"/>
<path d="M45.9021 13.382L44 7.52786L42.0979 13.382L36.9341 29.2746H20.2236H14.0682L19.048 32.8926L32.5671 42.7148L27.4033 58.6074L25.5011 64.4615L30.4809 60.8435L44 51.0213L57.5191 60.8435L62.4989 64.4615L60.5967 58.6074L55.4329 42.7148L68.952 32.8926L73.9318 29.2746H67.7764H51.0659L45.9021 13.382Z" stroke="black" stroke-opacity="0.63" stroke-width="4"/>
</svg>
