<svg width="148" height="93" viewBox="0 0 148 93" fill="none" xmlns="http://www.w3.org/2000/svg">
<path d="M4.92188 72.5186V79.2451H8.28516C8.74609 79.2451 9.17969 79.1592 9.58594 78.9873C9.99219 78.8076 10.3477 78.5654 10.6523 78.2607C10.957 77.9561 11.1953 77.6006 11.3672 77.1943C11.5469 76.7803 11.6367 76.3428 11.6367 75.8818C11.6367 75.4209 11.5469 74.9873 11.3672 74.5811C11.1953 74.167 10.957 73.8076 10.6523 73.5029C10.3477 73.1982 9.99219 72.96 9.58594 72.7881C9.17969 72.6084 8.74609 72.5186 8.28516 72.5186H4.92188ZM4.92188 85.96H1.55859V69.1553H8.28516C8.90234 69.1553 9.49609 69.2373 10.0664 69.4014C10.6367 69.5576 11.168 69.7842 11.6602 70.0811C12.1602 70.3701 12.6133 70.7217 13.0195 71.1357C13.4336 71.542 13.7852 71.9951 14.0742 72.4951C14.3711 72.9951 14.5977 73.5303 14.7539 74.1006C14.918 74.6709 15 75.2646 15 75.8818C15 76.46 14.9258 77.0225 14.7773 77.5693C14.6367 78.1162 14.4297 78.6357 14.1562 79.1279C13.8906 79.6201 13.5625 80.0732 13.1719 80.4873C12.7812 80.9014 12.3438 81.2607 11.8594 81.5654L13.7227 85.96H10.1484L8.68359 82.5732L4.92188 82.5967V85.96ZM21.7266 82.8896C21.8516 82.9287 21.9766 82.9561 22.1016 82.9717C22.2266 82.9795 22.3516 82.9834 22.4766 82.9834C22.7891 82.9834 23.0898 82.9404 23.3789 82.8545C23.668 82.7686 23.9375 82.6475 24.1875 82.4912C24.4453 82.3271 24.6719 82.1318 24.8672 81.9053C25.0703 81.6709 25.2344 81.4131 25.3594 81.1318L27.7031 83.4873C27.4062 83.9092 27.0625 84.2881 26.6719 84.624C26.2891 84.96 25.8711 85.2451 25.418 85.4795C24.9727 85.7139 24.5 85.8896 24 86.0068C23.5078 86.1318 23 86.1943 22.4766 86.1943C21.5938 86.1943 20.7617 86.0303 19.9805 85.7021C19.207 85.374 18.5273 84.917 17.9414 84.3311C17.3633 83.7451 16.9062 83.0498 16.5703 82.2451C16.2344 81.4326 16.0664 80.542 16.0664 79.5732C16.0664 78.5811 16.2344 77.6748 16.5703 76.8545C16.9062 76.0342 17.3633 75.335 17.9414 74.7568C18.5273 74.1787 19.207 73.7295 19.9805 73.4092C20.7617 73.0889 21.5938 72.9287 22.4766 72.9287C23 72.9287 23.5117 72.9912 24.0117 73.1162C24.5117 73.2412 24.9844 73.4209 25.4297 73.6553C25.8828 73.8896 26.3047 74.1787 26.6953 74.5225C27.0859 74.8584 27.4297 75.2373 27.7266 75.6592L21.7266 82.8896ZM23.3672 76.292C23.2188 76.2373 23.0703 76.2021 22.9219 76.1865C22.7812 76.1709 22.6328 76.1631 22.4766 76.1631C22.0391 76.1631 21.625 76.2451 21.2344 76.4092C20.8516 76.5654 20.5156 76.792 20.2266 77.0889C19.9453 77.3857 19.7227 77.7451 19.5586 78.167C19.3945 78.5811 19.3125 79.0498 19.3125 79.5732C19.3125 79.6904 19.3164 79.8232 19.3242 79.9717C19.3398 80.1201 19.3594 80.2725 19.3828 80.4287C19.4141 80.5771 19.4492 80.7217 19.4883 80.8623C19.5273 81.0029 19.5781 81.1279 19.6406 81.2373L23.3672 76.292ZM32.543 85.96H29.3438V73.4092H30.1172L31.1719 74.6279C31.6875 74.1592 32.2695 73.7998 32.918 73.5498C33.5742 73.292 34.2578 73.1631 34.9688 73.1631C35.7344 73.1631 36.457 73.3115 37.1367 73.6084C37.8164 73.8975 38.4102 74.2998 38.918 74.8154C39.4258 75.3232 39.8242 75.9209 40.1133 76.6084C40.4102 77.2881 40.5586 78.0146 40.5586 78.7881V85.96H37.3594V78.7881C37.3594 78.46 37.2969 78.1514 37.1719 77.8623C37.0469 77.5654 36.875 77.3076 36.6562 77.0889C36.4375 76.8701 36.1836 76.6982 35.8945 76.5732C35.6055 76.4482 35.2969 76.3857 34.9688 76.3857C34.6328 76.3857 34.3164 76.4482 34.0195 76.5732C33.7227 76.6982 33.4648 76.8701 33.2461 77.0889C33.0273 77.3076 32.8555 77.5654 32.7305 77.8623C32.6055 78.1514 32.543 78.46 32.543 78.7881V85.96ZM48.9727 85.96C48.1992 85.96 47.4727 85.8154 46.793 85.5264C46.1133 85.2295 45.5156 84.8271 45 84.3193C44.4922 83.8037 44.0898 83.2061 43.793 82.5264C43.5039 81.8467 43.3594 81.1201 43.3594 80.3467V76.6201H41.8008V73.4326H43.3594V68.417H46.5469V73.4326H51.3984V76.6201H46.5469V80.3467C46.5469 80.6826 46.6094 80.999 46.7344 81.2959C46.8594 81.585 47.0312 81.8389 47.25 82.0576C47.4688 82.2764 47.7266 82.4521 48.0234 82.585C48.3203 82.71 48.6367 82.7725 48.9727 82.7725H51.3984V85.96H48.9727ZM70.1602 79.2451V75.8818C70.1602 75.4209 70.0703 74.9873 69.8906 74.5811C69.7188 74.167 69.4805 73.8076 69.1758 73.5029C68.8711 73.1982 68.5117 72.96 68.0977 72.7881C67.6914 72.6084 67.2578 72.5186 66.7969 72.5186C66.3359 72.5186 65.8984 72.6084 65.4844 72.7881C65.0781 72.96 64.7227 73.1982 64.418 73.5029C64.1133 73.8076 63.8711 74.167 63.6914 74.5811C63.5195 74.9873 63.4336 75.4209 63.4336 75.8818V79.2451H70.1602ZM73.5234 85.96H70.1602V82.5967H63.4336V85.96H60.082V75.8818C60.082 74.9521 60.2578 74.0811 60.6094 73.2686C60.9609 72.4482 61.4375 71.7334 62.0391 71.124C62.6484 70.5146 63.3594 70.0342 64.1719 69.6826C64.9922 69.3311 65.8672 69.1553 66.7969 69.1553C67.7266 69.1553 68.5977 69.3311 69.4102 69.6826C70.2305 70.0342 70.9453 70.5146 71.5547 71.124C72.1641 71.7334 72.6445 72.4482 72.9961 73.2686C73.3477 74.0811 73.5234 74.9521 73.5234 75.8818V85.96ZM86.5312 72.5186V79.2451H89.8945C90.3555 79.2451 90.7891 79.1592 91.1953 78.9873C91.6016 78.8076 91.957 78.5654 92.2617 78.2607C92.5664 77.9561 92.8047 77.6006 92.9766 77.1943C93.1562 76.7803 93.2461 76.3428 93.2461 75.8818C93.2461 75.4209 93.1562 74.9873 92.9766 74.5811C92.8047 74.167 92.5664 73.8076 92.2617 73.5029C91.957 73.1982 91.6016 72.96 91.1953 72.7881C90.7891 72.6084 90.3555 72.5186 89.8945 72.5186H86.5312ZM86.5312 85.96H83.168V69.1553H89.8945C90.5117 69.1553 91.1055 69.2373 91.6758 69.4014C92.2461 69.5576 92.7773 69.7842 93.2695 70.0811C93.7695 70.3701 94.2227 70.7217 94.6289 71.1357C95.043 71.542 95.3945 71.9951 95.6836 72.4951C95.9805 72.9951 96.207 73.5303 96.3633 74.1006C96.5273 74.6709 96.6094 75.2646 96.6094 75.8818C96.6094 76.8037 96.4336 77.6748 96.082 78.4951C95.7305 79.3076 95.25 80.0186 94.6406 80.6279C94.0312 81.2373 93.3164 81.7178 92.4961 82.0693C91.6836 82.4209 90.8164 82.5967 89.8945 82.5967H86.5312V85.96ZM110.379 79.5732C110.379 80.5107 110.211 81.3857 109.875 82.1982C109.539 83.0029 109.082 83.7021 108.504 84.2959C107.926 84.8818 107.246 85.3467 106.465 85.6904C105.691 86.0264 104.859 86.1943 103.969 86.1943C103.086 86.1943 102.254 86.0264 101.473 85.6904C100.699 85.3467 100.02 84.8818 99.4336 84.2959C98.8555 83.7021 98.3984 83.0029 98.0625 82.1982C97.7266 81.3857 97.5586 80.5107 97.5586 79.5732C97.5586 78.6201 97.7266 77.7373 98.0625 76.9248C98.3984 76.1123 98.8555 75.4131 99.4336 74.8271C100.02 74.2334 100.699 73.7686 101.473 73.4326C102.254 73.0967 103.086 72.9287 103.969 72.9287C104.859 72.9287 105.691 73.0889 106.465 73.4092C107.246 73.7217 107.926 74.1709 108.504 74.7568C109.082 75.335 109.539 76.0342 109.875 76.8545C110.211 77.667 110.379 78.5732 110.379 79.5732ZM107.156 79.5732C107.156 79.0576 107.07 78.5928 106.898 78.1787C106.734 77.7568 106.508 77.3975 106.219 77.1006C105.93 76.7959 105.59 76.5654 105.199 76.4092C104.816 76.2451 104.406 76.1631 103.969 76.1631C103.531 76.1631 103.117 76.2451 102.727 76.4092C102.344 76.5654 102.008 76.7959 101.719 77.1006C101.438 77.3975 101.215 77.7568 101.051 78.1787C100.887 78.5928 100.805 79.0576 100.805 79.5732C100.805 80.0576 100.887 80.5068 101.051 80.9209C101.215 81.335 101.438 81.6943 101.719 81.999C102.008 82.3037 102.344 82.5459 102.727 82.7256C103.117 82.8975 103.531 82.9834 103.969 82.9834C104.406 82.9834 104.816 82.9014 105.199 82.7373C105.59 82.5732 105.93 82.3428 106.219 82.0459C106.508 81.749 106.734 81.3896 106.898 80.9678C107.07 80.5459 107.156 80.0811 107.156 79.5732ZM115.348 85.96H112.148V73.4092H112.922L113.977 74.8975C114.492 74.4287 115.078 74.0693 115.734 73.8193C116.391 73.5615 117.07 73.4326 117.773 73.4326H120.598V76.6201H117.773C117.438 76.6201 117.121 76.6826 116.824 76.8076C116.527 76.9326 116.27 77.1045 116.051 77.3232C115.832 77.542 115.66 77.7998 115.535 78.0967C115.41 78.3936 115.348 78.71 115.348 79.0459V85.96ZM128.379 85.96C127.605 85.96 126.879 85.8154 126.199 85.5264C125.52 85.2295 124.922 84.8271 124.406 84.3193C123.898 83.8037 123.496 83.2061 123.199 82.5264C122.91 81.8467 122.766 81.1201 122.766 80.3467V76.6201H121.207V73.4326H122.766V68.417H125.953V73.4326H130.805V76.6201H125.953V80.3467C125.953 80.6826 126.016 80.999 126.141 81.2959C126.266 81.585 126.438 81.8389 126.656 82.0576C126.875 82.2764 127.133 82.4521 127.43 82.585C127.727 82.71 128.043 82.7725 128.379 82.7725H130.805V85.96H128.379ZM144.762 85.96H143.988L142.746 84.2373C142.441 84.5107 142.117 84.7686 141.773 85.0107C141.438 85.2451 141.082 85.4521 140.707 85.6318C140.332 85.8037 139.945 85.9404 139.547 86.042C139.156 86.1436 138.758 86.1943 138.352 86.1943C137.469 86.1943 136.637 86.0459 135.855 85.749C135.082 85.4521 134.402 85.0225 133.816 84.46C133.238 83.8896 132.781 83.1943 132.445 82.374C132.109 81.5537 131.941 80.6201 131.941 79.5732C131.941 78.5967 132.109 77.7021 132.445 76.8896C132.781 76.0693 133.238 75.3662 133.816 74.7803C134.402 74.1943 135.082 73.7412 135.855 73.4209C136.637 73.0928 137.469 72.9287 138.352 72.9287C138.758 72.9287 139.16 72.9795 139.559 73.0811C139.957 73.1826 140.344 73.3232 140.719 73.5029C141.094 73.6826 141.449 73.8936 141.785 74.1357C142.129 74.3779 142.449 74.6396 142.746 74.9209L143.988 73.4326H144.762V85.96ZM141.539 79.5732C141.539 79.1357 141.453 78.7139 141.281 78.3076C141.117 77.8936 140.891 77.5303 140.602 77.2178C140.312 76.8975 139.973 76.6436 139.582 76.4561C139.199 76.2607 138.789 76.1631 138.352 76.1631C137.914 76.1631 137.5 76.2373 137.109 76.3857C136.727 76.5342 136.391 76.7529 136.102 77.042C135.82 77.3311 135.598 77.6904 135.434 78.1201C135.27 78.542 135.188 79.0264 135.188 79.5732C135.188 80.1201 135.27 80.6084 135.434 81.0381C135.598 81.46 135.82 81.8154 136.102 82.1045C136.391 82.3936 136.727 82.6123 137.109 82.7607C137.5 82.9092 137.914 82.9834 138.352 82.9834C138.789 82.9834 139.199 82.8896 139.582 82.7021C139.973 82.5068 140.312 82.2529 140.602 81.9404C140.891 81.6201 141.117 81.2568 141.281 80.8506C141.453 80.4365 141.539 80.0107 141.539 79.5732Z" fill="white"/>
<line x1="37" y1="60.5078" x2="111.859" y2="60.5078" stroke="white"/>
<path d="M112 34.2871C112 42.5234 105.63 42.8735 91.8784 49.2003C80.7656 49.2003 74.8186 57.4366 74.8186 49.2003C74.8186 40.964 32.2225 74.7073 82.6084 31.3235C95.136 28.5623 91.8784 44.6812 112 34.2871Z" fill="#C4C4C4"/>
<path d="M77.686 0.0681512C69.0431 0.239323 68.8019 6.61535 62.435 20.4957C62.655 31.6063 54.1298 37.7233 62.7728 37.5522C71.4157 37.381 36.85 80.6699 81.3778 29.3924C84.0273 16.8099 67.1772 20.4018 77.686 0.0681512Z" fill="#FFFF00"/>
</svg>
