<svg width="512" height="361" viewBox="0 0 512 361" fill="none" xmlns="http://www.w3.org/2000/svg">
<path d="M12.0249 304.618V331.871H24.0498C25.6977 331.871 27.248 331.523 28.7003 330.827C30.1529 330.099 31.424 329.118 32.513 327.883C33.6024 326.648 34.4544 325.209 35.069 323.562C35.7115 321.885 36.0326 320.112 36.0326 318.245C36.0326 316.377 35.7115 314.62 35.069 312.974C34.4544 311.297 33.6024 309.841 32.513 308.606C31.424 307.372 30.1529 306.406 28.7003 305.71C27.248 304.982 25.6977 304.618 24.0498 304.618H12.0249ZM12.0249 359.077H0V290.991H24.0498C26.2562 290.991 28.3792 291.324 30.4182 291.988C32.4572 292.621 34.3568 293.539 36.1166 294.742C37.9043 295.913 39.5243 297.338 40.9766 299.015C42.4571 300.661 43.7142 302.497 44.7475 304.523C45.809 306.549 46.6191 308.717 47.1776 311.028C47.7643 313.338 48.0575 315.744 48.0575 318.245C48.0575 320.587 47.7922 322.866 47.2613 325.082C46.7586 327.298 46.0185 329.402 45.0406 331.397C44.091 333.391 42.918 335.227 41.5214 336.904C40.1246 338.582 38.5607 340.038 36.8288 341.272L43.4907 359.077H30.7114L25.4743 345.356L12.0249 345.451V359.077ZM72.1073 346.638C72.5543 346.796 73.0012 346.907 73.4481 346.97C73.895 347.002 74.3419 347.018 74.7888 347.018C75.9061 347.018 76.9812 346.843 78.0149 346.495C79.0485 346.147 80.012 345.656 80.9059 345.023C81.8276 344.359 82.6378 343.567 83.336 342.65C84.0622 341.7 84.6489 340.655 85.0958 339.516L93.4753 349.059C92.4138 350.769 91.185 352.304 89.7884 353.665C88.4198 355.026 86.9253 356.181 85.3053 357.131C83.7132 358.08 82.0232 358.792 80.2355 359.267C78.4757 359.774 76.6602 360.027 74.7888 360.027C71.6325 360.027 68.6575 359.363 65.8644 358.033C63.0989 356.703 60.6688 354.852 58.574 352.478C56.5071 350.104 54.8728 347.287 53.6718 344.026C52.4709 340.734 51.8702 337.126 51.8702 333.201C51.8702 329.181 52.4709 325.509 53.6718 322.186C54.8728 318.862 56.5071 316.029 58.574 313.687C60.6688 311.344 63.0989 309.524 65.8644 308.227C68.6575 306.928 71.6325 306.28 74.7888 306.28C76.6602 306.28 78.4897 306.533 80.2773 307.039C82.065 307.546 83.7551 308.274 85.3472 309.224C86.9671 310.173 88.4756 311.344 89.8721 312.737C91.2686 314.098 92.4978 315.633 93.5593 317.343L72.1073 346.638ZM77.973 319.907C77.4424 319.685 76.9115 319.542 76.3809 319.479C75.8779 319.416 75.3473 319.384 74.7888 319.384C73.2246 319.384 71.7441 319.717 70.3476 320.381C68.9789 321.014 67.7776 321.932 66.7443 323.135C65.7386 324.338 64.9427 325.794 64.356 327.503C63.7693 329.181 63.4761 331.08 63.4761 333.201C63.4761 333.676 63.4901 334.214 63.518 334.815C63.5737 335.417 63.6438 336.034 63.7275 336.667C63.8394 337.268 63.9649 337.854 64.1047 338.424C64.2441 338.993 64.4257 339.5 64.6492 339.943L77.973 319.907ZM110.78 359.077H99.3414V308.227H102.107L105.877 313.164C107.721 311.265 109.802 309.809 112.12 308.796C114.466 307.752 116.911 307.229 119.453 307.229C122.19 307.229 124.773 307.831 127.204 309.034C129.634 310.205 131.757 311.835 133.572 313.924C135.388 315.981 136.812 318.403 137.846 321.189C138.907 323.942 139.438 326.886 139.438 330.02V359.077H128V330.02C128 328.69 127.776 327.44 127.329 326.269C126.883 325.066 126.268 324.021 125.486 323.135C124.704 322.249 123.796 321.552 122.762 321.046C121.729 320.539 120.626 320.286 119.453 320.286C118.251 320.286 117.12 320.539 116.059 321.046C114.997 321.552 114.075 322.249 113.293 323.135C112.511 324.021 111.897 325.066 111.45 326.269C111.003 327.44 110.78 328.69 110.78 330.02V359.077ZM169.521 359.077C166.756 359.077 164.158 358.492 161.728 357.32C159.298 356.118 157.161 354.488 155.318 352.43C153.502 350.341 152.063 347.92 151.002 345.166C149.968 342.412 149.452 339.468 149.452 336.335V321.236H143.879V308.321H149.452V288H160.848V308.321H178.194V321.236H160.848V336.335C160.848 337.696 161.072 338.978 161.519 340.181C161.965 341.351 162.58 342.38 163.362 343.267C164.144 344.153 165.066 344.865 166.127 345.403C167.189 345.909 168.32 346.163 169.521 346.163H178.194V359.077H169.521ZM245.274 331.871V318.245C245.274 316.377 244.952 314.62 244.31 312.974C243.695 311.297 242.843 309.841 241.754 308.606C240.665 307.372 239.38 306.406 237.9 305.71C236.447 304.982 234.897 304.618 233.249 304.618C231.6 304.618 230.036 304.982 228.556 305.71C227.103 306.406 225.833 307.372 224.743 308.606C223.654 309.841 222.788 311.297 222.146 312.974C221.531 314.62 221.224 316.377 221.224 318.245V331.871H245.274ZM257.298 359.077H245.274V345.451H221.224V359.077H209.241V318.245C209.241 314.478 209.869 310.948 211.126 307.656C212.383 304.333 214.087 301.437 216.238 298.968C218.416 296.499 220.958 294.552 223.863 293.128C226.796 291.703 229.925 290.991 233.249 290.991C236.573 290.991 239.687 291.703 242.592 293.128C245.525 294.552 248.081 296.499 250.259 298.968C252.438 301.437 254.156 304.333 255.413 307.656C256.67 310.948 257.298 314.478 257.298 318.245V359.077ZM303.805 304.618V331.871H315.832C317.477 331.871 319.028 331.523 320.48 330.827C321.935 330.099 323.204 329.118 324.295 327.883C325.382 326.648 326.236 325.209 326.851 323.562C327.491 321.885 327.813 320.112 327.813 318.245C327.813 316.377 327.491 314.62 326.851 312.974C326.236 311.297 325.382 309.841 324.295 308.606C323.204 307.372 321.935 306.406 320.48 305.71C319.028 304.982 317.477 304.618 315.832 304.618H303.805ZM303.805 359.077H291.781V290.991H315.832C318.038 290.991 320.158 291.324 322.2 291.988C324.238 292.621 326.136 293.539 327.899 294.742C329.687 295.913 331.306 297.338 332.758 299.015C334.238 300.661 335.496 302.497 336.53 304.523C337.588 306.549 338.4 308.717 338.957 311.028C339.544 313.338 339.837 315.744 339.837 318.245C339.837 321.98 339.211 325.509 337.953 328.833C336.694 332.125 334.978 335.005 332.801 337.474C330.62 339.943 328.063 341.89 325.132 343.314C322.228 344.739 319.125 345.451 315.832 345.451H303.805V359.077ZM389.069 333.201C389.069 336.999 388.469 340.544 387.267 343.836C386.066 347.097 384.432 349.93 382.366 352.335C380.299 354.709 377.868 356.593 375.075 357.985C372.308 359.346 369.333 360.027 366.151 360.027C362.994 360.027 360.02 359.346 357.227 357.985C354.46 356.593 352.032 354.709 349.937 352.335C347.867 349.93 346.233 347.097 345.032 343.836C343.834 340.544 343.233 336.999 343.233 333.201C343.233 329.339 343.834 325.762 345.032 322.47C346.233 319.178 347.867 316.346 349.937 313.971C352.032 311.566 354.46 309.682 357.227 308.321C360.02 306.96 362.994 306.28 366.151 306.28C369.333 306.28 372.308 306.928 375.075 308.227C377.868 309.493 380.299 311.313 382.366 313.687C384.432 316.029 386.066 318.862 387.267 322.186C388.469 325.478 389.069 329.149 389.069 333.201ZM377.546 333.201C377.546 331.112 377.239 329.229 376.624 327.551C376.037 325.841 375.229 324.385 374.196 323.183C373.163 321.948 371.947 321.014 370.549 320.381C369.18 319.717 367.714 319.384 366.151 319.384C364.585 319.384 363.105 319.717 361.711 320.381C360.341 321.014 359.14 321.948 358.107 323.183C357.102 324.385 356.305 325.841 355.719 327.551C355.132 329.229 354.839 331.112 354.839 333.201C354.839 335.163 355.132 336.983 355.719 338.661C356.305 340.339 357.102 341.795 358.107 343.029C359.14 344.264 360.341 345.245 361.711 345.973C363.105 346.669 364.585 347.018 366.151 347.018C367.714 347.018 369.18 346.685 370.549 346.021C371.947 345.356 373.163 344.422 374.196 343.219C375.229 342.016 376.037 340.56 376.624 338.851C377.239 337.142 377.546 335.258 377.546 333.201ZM406.835 359.077H395.394V308.227H398.161L401.933 314.256C403.775 312.357 405.87 310.901 408.215 309.888C410.564 308.844 412.992 308.321 415.505 308.321H425.606V321.236H415.505C414.308 321.236 413.174 321.489 412.112 321.996C411.05 322.502 410.132 323.199 409.349 324.085C408.566 324.971 407.951 326.016 407.504 327.219C407.057 328.421 406.835 329.703 406.835 331.064V359.077ZM453.425 359.077C450.658 359.077 448.062 358.492 445.631 357.32C443.203 356.118 441.065 354.488 439.221 352.43C437.404 350.341 435.967 347.92 434.905 345.166C433.872 342.412 433.357 339.468 433.357 336.335V321.236H427.783V308.321H433.357V288H444.752V308.321H462.099V321.236H444.752V336.335C444.752 337.696 444.977 338.978 445.424 340.181C445.871 341.351 446.486 342.38 447.265 343.267C448.048 344.153 448.97 344.865 450.032 345.403C451.094 345.909 452.224 346.163 453.425 346.163H462.099V359.077H453.425ZM512 359.077H509.233L504.792 352.098C503.702 353.206 502.543 354.25 501.313 355.231C500.116 356.181 498.843 357.02 497.502 357.748C496.161 358.444 494.778 358.998 493.355 359.41C491.957 359.821 490.534 360.027 489.082 360.027C485.925 360.027 482.95 359.426 480.155 358.223C477.391 357.02 474.96 355.279 472.864 353C470.798 350.689 469.164 347.872 467.963 344.549C466.761 341.225 466.161 337.442 466.161 333.201C466.161 329.244 466.761 325.62 467.963 322.328C469.164 319.004 470.798 316.156 472.864 313.782C474.96 311.407 477.391 309.572 480.155 308.274C482.95 306.945 485.925 306.28 489.082 306.28C490.534 306.28 491.971 306.486 493.398 306.897C494.821 307.308 496.204 307.878 497.545 308.606C498.886 309.334 500.155 310.189 501.356 311.17C502.586 312.151 503.73 313.212 504.792 314.351L509.233 308.321H512V359.077ZM500.477 333.201C500.477 331.428 500.169 329.719 499.554 328.073C498.968 326.395 498.16 324.924 497.127 323.658C496.09 322.359 494.878 321.331 493.48 320.571C492.11 319.78 490.645 319.384 489.082 319.384C487.516 319.384 486.036 319.685 484.638 320.286C483.272 320.888 482.071 321.774 481.038 322.945C480.029 324.116 479.236 325.572 478.649 327.313C478.063 329.023 477.77 330.985 477.77 333.201C477.77 335.417 478.063 337.395 478.649 339.136C479.236 340.845 480.029 342.285 481.038 343.457C482.071 344.628 483.272 345.514 484.638 346.115C486.036 346.717 487.516 347.018 489.082 347.018C490.645 347.018 492.11 346.638 493.48 345.878C494.878 345.087 496.09 344.058 497.127 342.792C498.16 341.494 498.968 340.022 499.554 338.376C500.169 336.699 500.477 334.973 500.477 333.201Z" fill="white"/>
<rect x="197.423" y="36.2498" width="117.154" height="202.999" fill="#FFFF8A"/>
<rect x="219.39" y="50.7498" width="73.2215" height="173.999" fill="black" fill-opacity="0.83"/>
<rect x="226.712" y="57.9998" width="58.5772" height="159.499" fill="#FFFF8A"/>
<rect x="268.501" y="144.828" width="16.8384" height="7.36416" fill="black" fill-opacity="0.83"/>
<rect x="226.712" y="36.2498" width="58.5772" height="7.24996" fill="black" fill-opacity="0.83"/>
<path d="M329.222 38.3634C329.222 49.9202 296.439 38.3634 256 38.3634C215.561 38.3634 182.779 49.9202 182.779 38.3634C182.779 26.8066 215.561 0 256 0C296.439 0 329.222 26.8066 329.222 38.3634Z" fill="#FFFF8A"/>
<rect x="226.712" y="21.7498" width="58.5772" height="7.24996" fill="black" fill-opacity="0.83"/>
<path d="M153 253L359.452 253" stroke="white" stroke-width="11"/>
</svg>
