<svg width="182" height="94" viewBox="0 0 182 94" fill="none" xmlns="http://www.w3.org/2000/svg">
<rect y="2" width="182" height="92" fill="transparent"/>
<rect x="32" y="55" width="142" height="5" fill="#EF648A"/>
<rect x="32" y="55" width="142" height="5" stroke="#EF648A"/>
<path d="M14.2969 16.7344C17.4062 16.7344 19.9688 17.1094 21.9844 17.8594C24.0156 18.6094 25.5234 19.7422 26.5078 21.2578C27.4922 22.7734 27.9844 24.6875 27.9844 27C27.9844 28.5625 27.6875 29.9297 27.0938 31.1016C26.5 32.2734 25.7188 33.2656 24.75 34.0781C23.7812 34.8906 22.7344 35.5547 21.6094 36.0703L31.6875 51H23.625L15.4453 37.8516H11.5781V51H4.3125V16.7344H14.2969ZM13.7812 22.6875H11.5781V31.9453H13.9219C16.3281 31.9453 18.0469 31.5469 19.0781 30.75C20.125 29.9375 20.6484 28.75 20.6484 27.1875C20.6484 25.5625 20.0859 24.4062 18.9609 23.7188C17.8516 23.0312 16.125 22.6875 13.7812 22.6875Z" fill="#EF648A"/>
<path d="M37.752 39.877C38.7611 39.877 39.6302 40.0723 40.3594 40.4629C41.0885 40.847 41.6517 41.4069 42.0488 42.1426C42.446 42.8783 42.6445 43.7767 42.6445 44.8379V46.2832H35.6035C35.6361 47.123 35.8867 47.7839 36.3555 48.2656C36.8307 48.7409 37.4883 48.9785 38.3281 48.9785C39.0247 48.9785 39.6628 48.9069 40.2422 48.7637C40.8216 48.6204 41.4173 48.4056 42.0293 48.1191V50.4238C41.4889 50.6908 40.9225 50.8861 40.3301 51.0098C39.7441 51.1335 39.0312 51.1953 38.1914 51.1953C37.0977 51.1953 36.1276 50.9935 35.2812 50.5898C34.4414 50.1862 33.7806 49.571 33.2988 48.7441C32.8236 47.9173 32.5859 46.8757 32.5859 45.6191C32.5859 44.3431 32.8008 43.2819 33.2305 42.4355C33.6667 41.5827 34.2721 40.9447 35.0469 40.5215C35.8216 40.0918 36.7233 39.877 37.752 39.877ZM37.7715 41.9961C37.1921 41.9961 36.7103 42.1816 36.3262 42.5527C35.9486 42.9238 35.7305 43.5065 35.6719 44.3008H39.8516C39.8451 43.8581 39.7637 43.4642 39.6074 43.1191C39.4577 42.7741 39.2298 42.5007 38.9238 42.2988C38.6243 42.097 38.2402 41.9961 37.7715 41.9961ZM48.0449 51H45.0664V35.8047H48.0449V51ZM54.1582 40.082V51H51.1797V40.082H54.1582ZM52.6738 35.8047C53.1165 35.8047 53.4974 35.9089 53.8164 36.1172C54.1354 36.319 54.2949 36.6999 54.2949 37.2598C54.2949 37.8132 54.1354 38.1973 53.8164 38.4121C53.4974 38.6204 53.1165 38.7246 52.6738 38.7246C52.2246 38.7246 51.8405 38.6204 51.5215 38.4121C51.209 38.1973 51.0527 37.8132 51.0527 37.2598C51.0527 36.6999 51.209 36.319 51.5215 36.1172C51.8405 35.9089 52.2246 35.8047 52.6738 35.8047ZM61.7656 39.8574C63.2305 39.8574 64.3535 40.1764 65.1348 40.8145C65.916 41.4525 66.3066 42.4225 66.3066 43.7246V51H64.2266L63.6504 49.5156H63.5723C63.2598 49.9062 62.9408 50.2253 62.6152 50.4727C62.2897 50.7201 61.9154 50.9023 61.4922 51.0195C61.069 51.1367 60.5547 51.1953 59.9492 51.1953C59.3047 51.1953 58.7253 51.0716 58.2109 50.8242C57.7031 50.5768 57.3027 50.1992 57.0098 49.6914C56.7168 49.1771 56.5703 48.526 56.5703 47.7383C56.5703 46.5794 56.9772 45.7266 57.791 45.1797C58.6048 44.6263 59.8255 44.3203 61.4531 44.2617L63.3477 44.2031V43.7246C63.3477 43.1517 63.1979 42.7318 62.8984 42.4648C62.599 42.1979 62.1823 42.0645 61.6484 42.0645C61.1211 42.0645 60.6035 42.1393 60.0957 42.2891C59.5879 42.4388 59.0801 42.6276 58.5723 42.8555L57.5859 40.8438C58.1654 40.5378 58.8132 40.2969 59.5293 40.1211C60.252 39.9453 60.9974 39.8574 61.7656 39.8574ZM63.3477 45.9414L62.1953 45.9805C61.2318 46.0065 60.5612 46.179 60.1836 46.498C59.8125 46.8171 59.627 47.237 59.627 47.7578C59.627 48.2135 59.7604 48.5391 60.0273 48.7344C60.2943 48.9232 60.6426 49.0176 61.0723 49.0176C61.7103 49.0176 62.2474 48.8288 62.6836 48.4512C63.1263 48.0736 63.3477 47.5365 63.3477 46.8398V45.9414ZM72.3613 35.8047V39.3398C72.3613 39.75 72.3483 40.1569 72.3223 40.5605C72.3027 40.9642 72.2767 41.2767 72.2441 41.498H72.3613C72.6478 41.0488 73.0384 40.668 73.5332 40.3555C74.028 40.0365 74.6693 39.877 75.457 39.877C76.681 39.877 77.6738 40.3555 78.4355 41.3125C79.1973 42.2695 79.5781 43.6725 79.5781 45.5215C79.5781 46.765 79.4023 47.8099 79.0508 48.6562C78.6992 49.4961 78.2077 50.1309 77.5762 50.5605C76.9447 50.9837 76.2122 51.1953 75.3789 51.1953C74.5781 51.1953 73.9466 51.0521 73.4844 50.7656C73.0221 50.4792 72.6478 50.1569 72.3613 49.7988H72.1562L71.6582 51H69.3828V35.8047H72.3613ZM74.5 42.2598C73.9792 42.2598 73.5658 42.3672 73.2598 42.582C72.9538 42.7969 72.7292 43.1191 72.5859 43.5488C72.4492 43.9785 72.3743 44.5221 72.3613 45.1797V45.502C72.3613 46.5632 72.5176 47.377 72.8301 47.9434C73.1426 48.5033 73.7122 48.7832 74.5391 48.7832C75.151 48.7832 75.6361 48.5 75.9941 47.9336C76.3587 47.3672 76.541 46.5501 76.541 45.4824C76.541 44.4147 76.3587 43.6107 75.9941 43.0703C75.6296 42.5299 75.1315 42.2598 74.5 42.2598ZM85.0176 51H82.0391V35.8047H85.0176V51ZM92.6543 39.877C93.6634 39.877 94.5326 40.0723 95.2617 40.4629C95.9909 40.847 96.554 41.4069 96.9512 42.1426C97.3483 42.8783 97.5469 43.7767 97.5469 44.8379V46.2832H90.5059C90.5384 47.123 90.7891 47.7839 91.2578 48.2656C91.7331 48.7409 92.3906 48.9785 93.2305 48.9785C93.9271 48.9785 94.5651 48.9069 95.1445 48.7637C95.724 48.6204 96.3197 48.4056 96.9316 48.1191V50.4238C96.3913 50.6908 95.8249 50.8861 95.2324 51.0098C94.6465 51.1335 93.9336 51.1953 93.0938 51.1953C92 51.1953 91.0299 50.9935 90.1836 50.5898C89.3438 50.1862 88.6829 49.571 88.2012 48.7441C87.7259 47.9173 87.4883 46.8757 87.4883 45.6191C87.4883 44.3431 87.7031 43.2819 88.1328 42.4355C88.569 41.5827 89.1745 40.9447 89.9492 40.5215C90.724 40.0918 91.6257 39.877 92.6543 39.877ZM92.6738 41.9961C92.0944 41.9961 91.6126 42.1816 91.2285 42.5527C90.8509 42.9238 90.6328 43.5065 90.5742 44.3008H94.7539C94.7474 43.8581 94.666 43.4642 94.5098 43.1191C94.36 42.7741 94.1322 42.5007 93.8262 42.2988C93.5267 42.097 93.1426 41.9961 92.6738 41.9961ZM10.8789 63.7227C12.7214 63.7227 14.0658 64.084 14.9121 64.8066C15.765 65.5228 16.1914 66.5514 16.1914 67.8926C16.1914 68.498 16.0905 69.0742 15.8887 69.6211C15.6934 70.1615 15.3743 70.64 14.9316 71.0566C14.4889 71.4668 13.9062 71.7923 13.1836 72.0332C12.4674 72.2676 11.5885 72.3848 10.5469 72.3848H8.80859V78H7.14844V63.7227H10.8789ZM10.7227 65.1387H8.80859V70.959H10.3613C11.2728 70.959 12.0312 70.8613 12.6367 70.666C13.2487 70.4707 13.7077 70.1549 14.0137 69.7188C14.3197 69.276 14.4727 68.6901 14.4727 67.9609C14.4727 67.0104 14.1699 66.304 13.5645 65.8418C12.959 65.373 12.0117 65.1387 10.7227 65.1387ZM28.1641 72.6289C28.1641 73.5078 28.0501 74.2923 27.8223 74.9824C27.5944 75.6725 27.2656 76.2552 26.8359 76.7305C26.4062 77.2057 25.8854 77.5703 25.2734 77.8242C24.668 78.0716 23.9811 78.1953 23.2129 78.1953C22.4967 78.1953 21.8392 78.0716 21.2402 77.8242C20.6478 77.5703 20.1335 77.2057 19.6973 76.7305C19.2676 76.2552 18.9323 75.6725 18.6914 74.9824C18.457 74.2923 18.3398 73.5078 18.3398 72.6289C18.3398 71.457 18.5384 70.4609 18.9355 69.6406C19.3327 68.8138 19.8991 68.1855 20.6348 67.7559C21.377 67.3197 22.2591 67.1016 23.2812 67.1016C24.2578 67.1016 25.1107 67.3197 25.8398 67.7559C26.5755 68.1921 27.1452 68.8236 27.5488 69.6504C27.959 70.4707 28.1641 71.4635 28.1641 72.6289ZM20.0195 72.6289C20.0195 73.4883 20.1335 74.2337 20.3613 74.8652C20.5892 75.4967 20.9408 75.985 21.416 76.3301C21.8913 76.6751 22.5033 76.8477 23.252 76.8477C23.9941 76.8477 24.6029 76.6751 25.0781 76.3301C25.5599 75.985 25.9147 75.4967 26.1426 74.8652C26.3704 74.2337 26.4844 73.4883 26.4844 72.6289C26.4844 71.776 26.3704 71.0404 26.1426 70.4219C25.9147 69.7969 25.5632 69.3151 25.0879 68.9766C24.6126 68.638 23.9974 68.4688 23.2422 68.4688C22.1289 68.4688 21.3118 68.8366 20.791 69.5723C20.2767 70.3079 20.0195 71.3268 20.0195 72.6289ZM35.8301 67.1016C36.0449 67.1016 36.2695 67.1146 36.5039 67.1406C36.7383 67.1602 36.9466 67.1895 37.1289 67.2285L36.9238 68.7324C36.748 68.6868 36.5527 68.651 36.3379 68.625C36.123 68.599 35.9212 68.5859 35.7324 68.5859C35.3027 68.5859 34.8958 68.6738 34.5117 68.8496C34.1341 69.0189 33.8021 69.2663 33.5156 69.5918C33.2292 69.9108 33.0046 70.2982 32.8418 70.7539C32.679 71.2031 32.5977 71.7044 32.5977 72.2578V78H30.9668V67.2969H32.3145L32.4902 69.2695H32.5586C32.7799 68.8724 33.0469 68.5111 33.3594 68.1855C33.6719 67.8535 34.0332 67.5898 34.4434 67.3945C34.86 67.1992 35.3223 67.1016 35.8301 67.1016ZM42.6074 76.8672C42.8743 76.8672 43.1478 76.8444 43.4277 76.7988C43.7077 76.7533 43.9355 76.6979 44.1113 76.6328V77.8926C43.9225 77.9772 43.6589 78.0488 43.3203 78.1074C42.9883 78.166 42.6628 78.1953 42.3438 78.1953C41.7773 78.1953 41.263 78.0977 40.8008 77.9023C40.3385 77.7005 39.9674 77.362 39.6875 76.8867C39.4141 76.4115 39.2773 75.7539 39.2773 74.9141V68.5664H37.7539V67.7754L39.2871 67.1406L39.9316 64.8164H40.9082V67.2969H44.043V68.5664H40.9082V74.8652C40.9082 75.5358 41.0612 76.0371 41.3672 76.3691C41.6797 76.7012 42.0931 76.8672 42.6074 76.8672ZM50.2832 67.1211C51.5592 67.1211 52.5065 67.4076 53.125 67.9805C53.7435 68.5534 54.0527 69.4681 54.0527 70.7246V78H52.8711L52.5586 76.418H52.4805C52.181 76.8086 51.8685 77.1374 51.543 77.4043C51.2174 77.6647 50.8398 77.8633 50.4102 78C49.987 78.1302 49.4661 78.1953 48.8477 78.1953C48.1966 78.1953 47.6172 78.0814 47.1094 77.8535C46.6081 77.6257 46.2109 77.2806 45.918 76.8184C45.6315 76.3561 45.4883 75.7702 45.4883 75.0605C45.4883 73.9928 45.9115 73.1725 46.7578 72.5996C47.6042 72.0267 48.8932 71.7142 50.625 71.6621L52.4707 71.584V70.9297C52.4707 70.0052 52.2721 69.3574 51.875 68.9863C51.4779 68.6152 50.918 68.4297 50.1953 68.4297C49.6354 68.4297 49.1016 68.5111 48.5938 68.6738C48.0859 68.8366 47.6042 69.0286 47.1484 69.25L46.6504 68.0195C47.1322 67.7721 47.6855 67.5605 48.3105 67.3848C48.9355 67.209 49.5931 67.1211 50.2832 67.1211ZM52.4512 72.7266L50.8203 72.7949C49.4857 72.847 48.5449 73.0651 47.998 73.4492C47.4512 73.8333 47.1777 74.377 47.1777 75.0801C47.1777 75.6921 47.3633 76.1445 47.7344 76.4375C48.1055 76.7305 48.597 76.877 49.209 76.877C50.1595 76.877 50.9375 76.6133 51.543 76.0859C52.1484 75.5586 52.4512 74.7676 52.4512 73.7129V72.7266ZM59.0137 62.8047V66.6035C59.0137 67.0397 59.0007 67.4629 58.9746 67.873C58.9551 68.2832 58.9388 68.6022 58.9258 68.8301H59.0137C59.3066 68.3483 59.7298 67.9414 60.2832 67.6094C60.8366 67.2773 61.543 67.1113 62.4023 67.1113C63.7435 67.1113 64.8112 67.5768 65.6055 68.5078C66.4062 69.4323 66.8066 70.8092 66.8066 72.6387C66.8066 73.8431 66.6243 74.8587 66.2598 75.6855C65.8952 76.5124 65.3809 77.1374 64.7168 77.5605C64.0527 77.9837 63.2682 78.1953 62.3633 78.1953C61.5169 78.1953 60.8203 78.0391 60.2734 77.7266C59.7331 77.4076 59.3164 77.0202 59.0234 76.5645H58.8965L58.5645 78H57.3926V62.8047H59.0137ZM62.1387 68.4688C61.3639 68.4688 60.7487 68.6217 60.293 68.9277C59.8372 69.2272 59.5085 69.6829 59.3066 70.2949C59.1113 70.9004 59.0137 71.6686 59.0137 72.5996V72.6875C59.0137 74.0352 59.2383 75.0671 59.6875 75.7832C60.1367 76.4928 60.9538 76.8477 62.1387 76.8477C63.1348 76.8477 63.8802 76.4831 64.375 75.7539C64.8763 75.0247 65.127 73.9831 65.127 72.6289C65.127 71.2487 64.8796 70.2103 64.3848 69.5137C63.8965 68.8171 63.1478 68.4688 62.1387 68.4688ZM71.2695 78H69.6387V62.8047H71.2695V78ZM78.8184 67.1016C79.7298 67.1016 80.5111 67.3034 81.1621 67.707C81.8132 68.1107 82.3112 68.6771 82.6562 69.4062C83.0013 70.1289 83.1738 70.9753 83.1738 71.9453V72.9512H75.7812C75.8008 74.2077 76.1133 75.1647 76.7188 75.8223C77.3242 76.4798 78.1771 76.8086 79.2773 76.8086C79.9544 76.8086 80.5534 76.7467 81.0742 76.623C81.5951 76.4993 82.1354 76.3171 82.6953 76.0762V77.502C82.1549 77.7428 81.6178 77.9186 81.084 78.0293C80.5566 78.14 79.9316 78.1953 79.209 78.1953C78.1803 78.1953 77.2819 77.987 76.5137 77.5703C75.752 77.1471 75.1595 76.5286 74.7363 75.7148C74.3132 74.901 74.1016 73.9049 74.1016 72.7266C74.1016 71.5742 74.2936 70.5781 74.6777 69.7383C75.0684 68.8919 75.6152 68.2409 76.3184 67.7852C77.028 67.3294 77.8613 67.1016 78.8184 67.1016ZM78.7988 68.4297C77.9329 68.4297 77.2428 68.7129 76.7285 69.2793C76.2142 69.8457 75.9082 70.6367 75.8105 71.6523H81.4746C81.4681 71.0143 81.3672 70.4544 81.1719 69.9727C80.9831 69.4844 80.6934 69.1068 80.3027 68.8398C79.9121 68.5664 79.4108 68.4297 78.7988 68.4297Z" fill="white" fill-opacity="0.74"/>
</svg>
