<svg width="32" height="32" viewBox="0 0 32 32" fill="none" xmlns="http://www.w3.org/2000/svg">
<path d="M0 4C0 1.79086 1.79086 0 4 0H28C30.2091 0 32 1.79086 32 4V28C32 30.2091 30.2091 32 28 32H4C1.79086 32 0 30.2091 0 28V4Z" fill="#2986EB"/>
<path d="M29.5908 19.7576C29.2699 23.547 26.1406 23.4352 19.1678 25.757C13.7323 25.2809 10.5026 28.8156 10.8235 25.0262C11.1444 21.2367 -11.005 34.937 15.3301 17.1349C21.5652 16.4012 19.3439 23.6778 29.5908 19.7576Z" fill="#C4C4C4"/>
<path d="M13.876 1.63403C8.8254 1.71288 8.68444 4.64972 4.96389 11.0431C5.09245 16.1609 0.110662 18.9784 5.16127 18.8996C10.2119 18.8207 -9.98703 38.76 16.0333 15.1411C17.5816 9.34543 7.73512 10.9999 13.876 1.63403Z" fill="#FFFF00"/>
</svg>
