<svg width="16" height="16" viewBox="0 0 16 16" fill="none" xmlns="http://www.w3.org/2000/svg">
<path d="M0 2C0 0.895431 0.895431 0 2 0H14C15.1046 0 16 0.895431 16 2V14C16 15.1046 15.1046 16 14 16H2C0.895431 16 0 15.1046 0 14V2Z" fill="#2986EB"/>
<path d="M14.7956 9.87879C14.6352 11.7735 13.0705 11.7176 9.58416 12.8785C6.8664 12.6405 5.25154 14.4078 5.41198 12.5131C5.57242 10.6184 -5.50226 17.4685 7.66529 8.56746C10.7829 8.2006 9.67219 11.8389 14.7956 9.87879Z" fill="#C4C4C4"/>
<path d="M6.938 0.817017C4.4127 0.856441 4.34222 2.32486 2.48195 5.52157C2.54623 8.08043 0.0553309 9.4892 2.58064 9.44978C5.10594 9.41037 -4.99352 19.38 8.01666 7.57053C8.7908 4.67271 3.86756 5.49995 6.938 0.817017Z" fill="#FFFF00"/>
</svg>
