<svg width="10" height="10" viewBox="0 0 10 10" fill="none" xmlns="http://www.w3.org/2000/svg">
<path d="M0 2C0 0.89543 0.895431 0 2 0L8 0C9.10457 0 10 0.895431 10 2V8C10 9.10457 9.10457 10 8 10H2C0.89543 10 0 9.10457 0 8L0 2Z" fill="#01233D"/>
<path d="M8.39519 5.92978C8.39519 7.05804 7.60877 7.106 5.91104 7.97268C4.53909 7.97268 3.80489 9.10094 3.80489 7.97268C3.80489 6.84442 -1.45389 11.4668 4.76659 5.5238C6.31321 5.14556 5.91104 7.35363 8.39519 5.92978Z" fill="#C4C4C4"/>
<path d="M4.15869 1.24219C3.09166 1.26564 3.06188 2.13906 2.27585 4.04047C2.30301 5.56249 1.25052 6.40043 2.31755 6.37698C3.38458 6.35354 -0.882795 12.2835 4.61446 5.2592C4.94156 3.53557 2.86132 4.02761 4.15869 1.24219Z" fill="#FFFF00"/>
</svg>
