<svg width="185" height="99" viewBox="0 0 185 99" fill="none" xmlns="http://www.w3.org/2000/svg">
<rect width="185" height="99" fill="#002B4C"/>
<path d="M24.9219 74.5068V81.2334H28.2852C28.7461 81.2334 29.1797 81.1475 29.5859 80.9756C29.9922 80.7959 30.3477 80.5537 30.6523 80.249C30.957 79.9443 31.1953 79.5889 31.3672 79.1826C31.5469 78.7686 31.6367 78.3311 31.6367 77.8701C31.6367 77.4092 31.5469 76.9756 31.3672 76.5693C31.1953 76.1553 30.957 75.7959 30.6523 75.4912C30.3477 75.1865 29.9922 74.9482 29.5859 74.7764C29.1797 74.5967 28.7461 74.5068 28.2852 74.5068H24.9219ZM24.9219 87.9482H21.5586V71.1436H28.2852C28.9023 71.1436 29.4961 71.2256 30.0664 71.3896C30.6367 71.5459 31.168 71.7725 31.6602 72.0693C32.1602 72.3584 32.6133 72.71 33.0195 73.124C33.4336 73.5303 33.7852 73.9834 34.0742 74.4834C34.3711 74.9834 34.5977 75.5186 34.7539 76.0889C34.918 76.6592 35 77.2529 35 77.8701C35 78.4482 34.9258 79.0107 34.7773 79.5576C34.6367 80.1045 34.4297 80.624 34.1562 81.1162C33.8906 81.6084 33.5625 82.0615 33.1719 82.4756C32.7812 82.8896 32.3438 83.249 31.8594 83.5537L33.7227 87.9482H30.1484L28.6836 84.5615L24.9219 84.585V87.9482ZM41.7266 84.8779C41.8516 84.917 41.9766 84.9443 42.1016 84.96C42.2266 84.9678 42.3516 84.9717 42.4766 84.9717C42.7891 84.9717 43.0898 84.9287 43.3789 84.8428C43.668 84.7568 43.9375 84.6357 44.1875 84.4795C44.4453 84.3154 44.6719 84.1201 44.8672 83.8936C45.0703 83.6592 45.2344 83.4014 45.3594 83.1201L47.7031 85.4756C47.4062 85.8975 47.0625 86.2764 46.6719 86.6123C46.2891 86.9482 45.8711 87.2334 45.418 87.4678C44.9727 87.7021 44.5 87.8779 44 87.9951C43.5078 88.1201 43 88.1826 42.4766 88.1826C41.5938 88.1826 40.7617 88.0186 39.9805 87.6904C39.207 87.3623 38.5273 86.9053 37.9414 86.3193C37.3633 85.7334 36.9062 85.0381 36.5703 84.2334C36.2344 83.4209 36.0664 82.5303 36.0664 81.5615C36.0664 80.5693 36.2344 79.6631 36.5703 78.8428C36.9062 78.0225 37.3633 77.3232 37.9414 76.7451C38.5273 76.167 39.207 75.7178 39.9805 75.3975C40.7617 75.0771 41.5938 74.917 42.4766 74.917C43 74.917 43.5117 74.9795 44.0117 75.1045C44.5117 75.2295 44.9844 75.4092 45.4297 75.6436C45.8828 75.8779 46.3047 76.167 46.6953 76.5107C47.0859 76.8467 47.4297 77.2256 47.7266 77.6475L41.7266 84.8779ZM43.3672 78.2803C43.2188 78.2256 43.0703 78.1904 42.9219 78.1748C42.7812 78.1592 42.6328 78.1514 42.4766 78.1514C42.0391 78.1514 41.625 78.2334 41.2344 78.3975C40.8516 78.5537 40.5156 78.7803 40.2266 79.0771C39.9453 79.374 39.7227 79.7334 39.5586 80.1553C39.3945 80.5693 39.3125 81.0381 39.3125 81.5615C39.3125 81.6787 39.3164 81.8115 39.3242 81.96C39.3398 82.1084 39.3594 82.2607 39.3828 82.417C39.4141 82.5654 39.4492 82.71 39.4883 82.8506C39.5273 82.9912 39.5781 83.1162 39.6406 83.2256L43.3672 78.2803ZM52.543 87.9482H49.3438V75.3975H50.1172L51.1719 76.6162C51.6875 76.1475 52.2695 75.7881 52.918 75.5381C53.5742 75.2803 54.2578 75.1514 54.9688 75.1514C55.7344 75.1514 56.457 75.2998 57.1367 75.5967C57.8164 75.8857 58.4102 76.2881 58.918 76.8037C59.4258 77.3115 59.8242 77.9092 60.1133 78.5967C60.4102 79.2764 60.5586 80.0029 60.5586 80.7764V87.9482H57.3594V80.7764C57.3594 80.4482 57.2969 80.1396 57.1719 79.8506C57.0469 79.5537 56.875 79.2959 56.6562 79.0771C56.4375 78.8584 56.1836 78.6865 55.8945 78.5615C55.6055 78.4365 55.2969 78.374 54.9688 78.374C54.6328 78.374 54.3164 78.4365 54.0195 78.5615C53.7227 78.6865 53.4648 78.8584 53.2461 79.0771C53.0273 79.2959 52.8555 79.5537 52.7305 79.8506C52.6055 80.1396 52.543 80.4482 52.543 80.7764V87.9482ZM68.9727 87.9482C68.1992 87.9482 67.4727 87.8037 66.793 87.5146C66.1133 87.2178 65.5156 86.8154 65 86.3076C64.4922 85.792 64.0898 85.1943 63.793 84.5146C63.5039 83.835 63.3594 83.1084 63.3594 82.335V78.6084H61.8008V75.4209H63.3594V70.4053H66.5469V75.4209H71.3984V78.6084H66.5469V82.335C66.5469 82.6709 66.6094 82.9873 66.7344 83.2842C66.8594 83.5732 67.0312 83.8271 67.25 84.0459C67.4688 84.2646 67.7266 84.4404 68.0234 84.5732C68.3203 84.6982 68.6367 84.7607 68.9727 84.7607H71.3984V87.9482H68.9727ZM90.1602 81.2334V77.8701C90.1602 77.4092 90.0703 76.9756 89.8906 76.5693C89.7188 76.1553 89.4805 75.7959 89.1758 75.4912C88.8711 75.1865 88.5117 74.9482 88.0977 74.7764C87.6914 74.5967 87.2578 74.5068 86.7969 74.5068C86.3359 74.5068 85.8984 74.5967 85.4844 74.7764C85.0781 74.9482 84.7227 75.1865 84.418 75.4912C84.1133 75.7959 83.8711 76.1553 83.6914 76.5693C83.5195 76.9756 83.4336 77.4092 83.4336 77.8701V81.2334H90.1602ZM93.5234 87.9482H90.1602V84.585H83.4336V87.9482H80.082V77.8701C80.082 76.9404 80.2578 76.0693 80.6094 75.2568C80.9609 74.4365 81.4375 73.7217 82.0391 73.1123C82.6484 72.5029 83.3594 72.0225 84.1719 71.6709C84.9922 71.3193 85.8672 71.1436 86.7969 71.1436C87.7266 71.1436 88.5977 71.3193 89.4102 71.6709C90.2305 72.0225 90.9453 72.5029 91.5547 73.1123C92.1641 73.7217 92.6445 74.4365 92.9961 75.2568C93.3477 76.0693 93.5234 76.9404 93.5234 77.8701V87.9482ZM106.531 74.5068V81.2334H109.895C110.355 81.2334 110.789 81.1475 111.195 80.9756C111.602 80.7959 111.957 80.5537 112.262 80.249C112.566 79.9443 112.805 79.5889 112.977 79.1826C113.156 78.7686 113.246 78.3311 113.246 77.8701C113.246 77.4092 113.156 76.9756 112.977 76.5693C112.805 76.1553 112.566 75.7959 112.262 75.4912C111.957 75.1865 111.602 74.9482 111.195 74.7764C110.789 74.5967 110.355 74.5068 109.895 74.5068H106.531ZM106.531 87.9482H103.168V71.1436H109.895C110.512 71.1436 111.105 71.2256 111.676 71.3896C112.246 71.5459 112.777 71.7725 113.27 72.0693C113.77 72.3584 114.223 72.71 114.629 73.124C115.043 73.5303 115.395 73.9834 115.684 74.4834C115.98 74.9834 116.207 75.5186 116.363 76.0889C116.527 76.6592 116.609 77.2529 116.609 77.8701C116.609 78.792 116.434 79.6631 116.082 80.4834C115.73 81.2959 115.25 82.0068 114.641 82.6162C114.031 83.2256 113.316 83.7061 112.496 84.0576C111.684 84.4092 110.816 84.585 109.895 84.585H106.531V87.9482ZM130.379 81.5615C130.379 82.499 130.211 83.374 129.875 84.1865C129.539 84.9912 129.082 85.6904 128.504 86.2842C127.926 86.8701 127.246 87.335 126.465 87.6787C125.691 88.0146 124.859 88.1826 123.969 88.1826C123.086 88.1826 122.254 88.0146 121.473 87.6787C120.699 87.335 120.02 86.8701 119.434 86.2842C118.855 85.6904 118.398 84.9912 118.062 84.1865C117.727 83.374 117.559 82.499 117.559 81.5615C117.559 80.6084 117.727 79.7256 118.062 78.9131C118.398 78.1006 118.855 77.4014 119.434 76.8154C120.02 76.2217 120.699 75.7568 121.473 75.4209C122.254 75.085 123.086 74.917 123.969 74.917C124.859 74.917 125.691 75.0771 126.465 75.3975C127.246 75.71 127.926 76.1592 128.504 76.7451C129.082 77.3232 129.539 78.0225 129.875 78.8428C130.211 79.6553 130.379 80.5615 130.379 81.5615ZM127.156 81.5615C127.156 81.0459 127.07 80.5811 126.898 80.167C126.734 79.7451 126.508 79.3857 126.219 79.0889C125.93 78.7842 125.59 78.5537 125.199 78.3975C124.816 78.2334 124.406 78.1514 123.969 78.1514C123.531 78.1514 123.117 78.2334 122.727 78.3975C122.344 78.5537 122.008 78.7842 121.719 79.0889C121.438 79.3857 121.215 79.7451 121.051 80.167C120.887 80.5811 120.805 81.0459 120.805 81.5615C120.805 82.0459 120.887 82.4951 121.051 82.9092C121.215 83.3232 121.438 83.6826 121.719 83.9873C122.008 84.292 122.344 84.5342 122.727 84.7139C123.117 84.8857 123.531 84.9717 123.969 84.9717C124.406 84.9717 124.816 84.8896 125.199 84.7256C125.59 84.5615 125.93 84.3311 126.219 84.0342C126.508 83.7373 126.734 83.3779 126.898 82.9561C127.07 82.5342 127.156 82.0693 127.156 81.5615ZM135.348 87.9482H132.148V75.3975H132.922L133.977 76.8857C134.492 76.417 135.078 76.0576 135.734 75.8076C136.391 75.5498 137.07 75.4209 137.773 75.4209H140.598V78.6084H137.773C137.438 78.6084 137.121 78.6709 136.824 78.7959C136.527 78.9209 136.27 79.0928 136.051 79.3115C135.832 79.5303 135.66 79.7881 135.535 80.085C135.41 80.3818 135.348 80.6982 135.348 81.0342V87.9482ZM148.379 87.9482C147.605 87.9482 146.879 87.8037 146.199 87.5146C145.52 87.2178 144.922 86.8154 144.406 86.3076C143.898 85.792 143.496 85.1943 143.199 84.5146C142.91 83.835 142.766 83.1084 142.766 82.335V78.6084H141.207V75.4209H142.766V70.4053H145.953V75.4209H150.805V78.6084H145.953V82.335C145.953 82.6709 146.016 82.9873 146.141 83.2842C146.266 83.5732 146.438 83.8271 146.656 84.0459C146.875 84.2646 147.133 84.4404 147.43 84.5732C147.727 84.6982 148.043 84.7607 148.379 84.7607H150.805V87.9482H148.379ZM164.762 87.9482H163.988L162.746 86.2256C162.441 86.499 162.117 86.7568 161.773 86.999C161.438 87.2334 161.082 87.4404 160.707 87.6201C160.332 87.792 159.945 87.9287 159.547 88.0303C159.156 88.1318 158.758 88.1826 158.352 88.1826C157.469 88.1826 156.637 88.0342 155.855 87.7373C155.082 87.4404 154.402 87.0107 153.816 86.4482C153.238 85.8779 152.781 85.1826 152.445 84.3623C152.109 83.542 151.941 82.6084 151.941 81.5615C151.941 80.585 152.109 79.6904 152.445 78.8779C152.781 78.0576 153.238 77.3545 153.816 76.7686C154.402 76.1826 155.082 75.7295 155.855 75.4092C156.637 75.0811 157.469 74.917 158.352 74.917C158.758 74.917 159.16 74.9678 159.559 75.0693C159.957 75.1709 160.344 75.3115 160.719 75.4912C161.094 75.6709 161.449 75.8818 161.785 76.124C162.129 76.3662 162.449 76.6279 162.746 76.9092L163.988 75.4209H164.762V87.9482ZM161.539 81.5615C161.539 81.124 161.453 80.7021 161.281 80.2959C161.117 79.8818 160.891 79.5186 160.602 79.2061C160.312 78.8857 159.973 78.6318 159.582 78.4443C159.199 78.249 158.789 78.1514 158.352 78.1514C157.914 78.1514 157.5 78.2256 157.109 78.374C156.727 78.5225 156.391 78.7412 156.102 79.0303C155.82 79.3193 155.598 79.6787 155.434 80.1084C155.27 80.5303 155.188 81.0146 155.188 81.5615C155.188 82.1084 155.27 82.5967 155.434 83.0264C155.598 83.4482 155.82 83.8037 156.102 84.0928C156.391 84.3818 156.727 84.6006 157.109 84.749C157.5 84.8975 157.914 84.9717 158.352 84.9717C158.789 84.9717 159.199 84.8779 159.582 84.6904C159.973 84.4951 160.312 84.2412 160.602 83.9287C160.891 83.6084 161.117 83.2451 161.281 82.8389C161.453 82.4248 161.539 81.999 161.539 81.5615Z" fill="white"/>
<line x1="58.473" y1="63.4492" x2="132.32" y2="63.4492" stroke="white"/>
<path d="M128.513 35.5951C128.513 42.7043 122.2 43.0065 108.57 48.4675C97.5554 48.4675 91.661 55.5767 91.661 48.4675C91.661 41.3583 49.4417 70.484 99.3819 33.037C111.799 30.6537 108.57 44.5668 128.513 35.5951Z" fill="#C4C4C4"/>
<path d="M94.503 6.05923C85.9366 6.20698 85.6975 11.7105 79.3869 23.6914C79.605 33.2816 71.1552 38.5615 79.7217 38.4138C88.2881 38.2661 54.0282 75.6311 98.1622 31.3706C100.788 20.5099 84.0872 23.6103 94.503 6.05923Z" fill="#FFFF00"/>
</svg>
