<svg width="602" height="612" viewBox="0 0 602 612" fill="none" xmlns="http://www.w3.org/2000/svg">
<path d="M595.901 306C595.901 471.78 463.753 606 300.951 606C138.148 606 6 471.78 6 306C6 140.22 138.148 6 300.951 6C463.753 6 595.901 140.22 595.901 306Z" fill="#002B4C" stroke="white" stroke-width="12"/>
<path d="M118.972 390.205V418.14H127.943C129.173 418.14 130.33 417.784 131.413 417.07C132.497 416.323 133.445 415.318 134.258 414.052C135.071 412.787 135.706 411.311 136.165 409.623C136.644 407.904 136.884 406.087 136.884 404.173C136.884 402.259 136.644 400.458 136.165 398.771C135.706 397.051 135.071 395.559 134.258 394.293C133.445 393.028 132.497 392.038 131.413 391.325C130.33 390.578 129.173 390.205 127.943 390.205H118.972ZM118.972 446.027H110V376.238H127.943C129.59 376.238 131.174 376.578 132.695 377.259C134.216 377.909 135.633 378.85 136.946 380.082C138.28 381.283 139.489 382.743 140.572 384.462C141.677 386.15 142.615 388.031 143.386 390.108C144.178 392.184 144.782 394.407 145.199 396.775C145.637 399.144 145.855 401.609 145.855 404.173C145.855 406.574 145.657 408.91 145.261 411.181C144.886 413.452 144.334 415.61 143.605 417.654C142.896 419.698 142.021 421.579 140.979 423.299C139.937 425.019 138.77 426.511 137.478 427.777L142.448 446.027H132.914L129.006 431.962L118.972 432.059V446.027ZM163.799 433.276C164.132 433.438 164.466 433.552 164.799 433.617C165.133 433.649 165.466 433.665 165.799 433.665C166.633 433.665 167.435 433.487 168.206 433.13C168.978 432.773 169.696 432.27 170.363 431.621C171.051 430.94 171.656 430.129 172.176 429.188C172.718 428.215 173.156 427.144 173.489 425.976L179.741 435.758C178.949 437.51 178.033 439.084 176.991 440.479C175.969 441.874 174.854 443.058 173.646 444.032C172.458 445.005 171.197 445.735 169.863 446.221C168.55 446.741 167.196 447 165.799 447C163.445 447 161.225 446.319 159.141 444.956C157.078 443.593 155.265 441.696 153.702 439.262C152.16 436.829 150.94 433.941 150.044 430.599C149.148 427.225 148.7 423.526 148.7 419.503C148.7 415.382 149.148 411.619 150.044 408.212C150.94 404.806 152.16 401.901 153.702 399.501C155.265 397.1 157.078 395.234 159.141 393.904C161.225 392.573 163.445 391.909 165.799 391.909C167.196 391.909 168.561 392.168 169.894 392.687C171.228 393.206 172.489 393.953 173.677 394.926C174.886 395.899 176.011 397.1 177.053 398.527C178.095 399.923 179.012 401.496 179.804 403.248L163.799 433.276ZM168.175 405.876C167.779 405.649 167.383 405.503 166.987 405.438C166.612 405.373 166.216 405.341 165.799 405.341C164.632 405.341 163.528 405.681 162.486 406.363C161.465 407.012 160.568 407.953 159.798 409.185C159.047 410.418 158.453 411.911 158.016 413.663C157.578 415.382 157.359 417.329 157.359 419.503C157.359 419.99 157.37 420.541 157.39 421.158C157.432 421.774 157.484 422.407 157.547 423.056C157.63 423.672 157.724 424.273 157.828 424.857C157.932 425.44 158.068 425.96 158.234 426.414L168.175 405.876ZM192.652 446.027H184.118V393.904H186.181L188.995 398.965C190.37 397.019 191.922 395.526 193.652 394.488C195.403 393.417 197.226 392.882 199.123 392.882C201.165 392.882 203.093 393.498 204.906 394.731C206.719 395.932 208.303 397.603 209.657 399.744C211.012 401.853 212.075 404.335 212.846 407.19C213.638 410.013 214.034 413.03 214.034 416.242V446.027H205.5V416.242C205.5 414.879 205.333 413.598 205 412.398C204.666 411.165 204.208 410.094 203.624 409.185C203.041 408.277 202.363 407.563 201.592 407.044C200.821 406.525 199.998 406.265 199.123 406.265C198.227 406.265 197.383 406.525 196.591 407.044C195.799 407.563 195.111 408.277 194.527 409.185C193.944 410.094 193.486 411.165 193.152 412.398C192.819 413.598 192.652 414.879 192.652 416.242V446.027ZM236.479 446.027C234.415 446.027 232.477 445.427 230.664 444.226C228.851 442.993 227.257 441.322 225.881 439.213C224.527 437.072 223.453 434.59 222.662 431.767C221.891 428.945 221.505 425.927 221.505 422.715V407.239H217.347V394.001H221.505V373.172H230.008V394.001H242.949V407.239H230.008V422.715C230.008 424.11 230.175 425.424 230.508 426.657C230.841 427.857 231.3 428.912 231.883 429.821C232.467 430.729 233.155 431.459 233.946 432.01C234.738 432.53 235.582 432.789 236.479 432.789H242.949V446.027H236.479ZM292.997 418.14V404.173C292.997 402.259 292.757 400.458 292.278 398.771C291.82 397.051 291.184 395.559 290.371 394.293C289.558 393.028 288.6 392.038 287.495 391.325C286.412 390.578 285.255 390.205 284.025 390.205C282.796 390.205 281.629 390.578 280.524 391.325C279.44 392.038 278.492 393.028 277.68 394.293C276.867 395.559 276.221 397.051 275.741 398.771C275.283 400.458 275.054 402.259 275.054 404.173V418.14H292.997ZM301.969 446.027H292.997V432.059H275.054V446.027H266.113V404.173C266.113 400.312 266.582 396.694 267.52 393.32C268.458 389.913 269.729 386.945 271.334 384.414C272.959 381.883 274.856 379.888 277.023 378.428C279.211 376.967 281.545 376.238 284.025 376.238C286.505 376.238 288.829 376.967 290.996 378.428C293.185 379.888 295.091 381.883 296.717 384.414C298.343 386.945 299.624 389.913 300.562 393.32C301.5 396.694 301.969 400.312 301.969 404.173V446.027ZM336.667 390.205V418.14H345.64C346.867 418.14 348.025 417.784 349.108 417.07C350.194 416.323 351.141 415.318 351.954 414.052C352.765 412.787 353.403 411.311 353.862 409.623C354.339 407.904 354.579 406.087 354.579 404.173C354.579 402.259 354.339 400.458 353.862 398.771C353.403 397.051 352.765 395.559 351.954 394.293C351.141 393.028 350.194 392.038 349.108 391.325C348.025 390.578 346.867 390.205 345.64 390.205H336.667ZM336.667 446.027H327.696V376.238H345.64C347.286 376.238 348.868 376.578 350.391 377.259C351.912 377.909 353.328 378.85 354.643 380.082C355.977 381.283 357.185 382.743 358.268 384.462C359.373 386.15 360.312 388.031 361.083 390.108C361.872 392.184 362.478 394.407 362.894 396.775C363.331 399.144 363.55 401.609 363.55 404.173C363.55 408.001 363.083 411.619 362.144 415.026C361.205 418.4 359.925 421.352 358.3 423.883C356.673 426.414 354.766 428.409 352.579 429.869C350.413 431.329 348.097 432.059 345.64 432.059H336.667V446.027ZM400.282 419.503C400.282 423.396 399.834 427.03 398.938 430.404C398.041 433.746 396.822 436.65 395.281 439.116C393.739 441.549 391.925 443.48 389.841 444.907C387.777 446.302 385.557 447 383.183 447C380.828 447 378.608 446.302 376.525 444.907C374.46 443.48 372.649 441.549 371.086 439.116C369.541 436.65 368.322 433.746 367.426 430.404C366.532 427.03 366.084 423.396 366.084 419.503C366.084 415.545 366.532 411.879 367.426 408.504C368.322 405.13 369.541 402.226 371.086 399.793C372.649 397.327 374.46 395.396 376.525 394.001C378.608 392.606 380.828 391.909 383.183 391.909C385.557 391.909 387.777 392.573 389.841 393.904C391.925 395.202 393.739 397.067 395.281 399.501C396.822 401.901 398.041 404.806 398.938 408.212C399.834 411.587 400.282 415.35 400.282 419.503ZM391.685 419.503C391.685 417.362 391.455 415.431 390.996 413.712C390.559 411.96 389.956 410.467 389.185 409.234C388.414 407.969 387.507 407.012 386.464 406.363C385.443 405.681 384.349 405.341 383.183 405.341C382.015 405.341 380.911 405.681 379.87 406.363C378.849 407.012 377.952 407.969 377.181 409.234C376.432 410.467 375.837 411.96 375.399 413.712C374.962 415.431 374.743 417.362 374.743 419.503C374.743 421.515 374.962 423.38 375.399 425.1C375.837 426.819 376.432 428.312 377.181 429.577C377.952 430.843 378.849 431.848 379.87 432.595C380.911 433.308 382.015 433.665 383.183 433.665C384.349 433.665 385.443 433.324 386.464 432.643C387.507 431.962 388.414 431.005 389.185 429.772C389.956 428.539 390.559 427.046 390.996 425.295C391.455 423.543 391.685 421.612 391.685 419.503ZM413.537 446.027H405.001V393.904H407.066L409.88 400.085C411.254 398.138 412.817 396.645 414.567 395.607C416.319 394.537 418.131 394.001 420.006 394.001H427.542V407.239H420.006C419.112 407.239 418.267 407.498 417.474 408.018C416.682 408.537 415.997 409.251 415.412 410.159C414.828 411.067 414.369 412.138 414.036 413.371C413.703 414.604 413.537 415.918 413.537 417.313V446.027ZM448.298 446.027C446.233 446.027 444.296 445.427 442.483 444.226C440.671 442.993 439.076 441.322 437.7 439.213C436.345 437.072 435.272 434.59 434.48 431.767C433.709 428.945 433.325 425.927 433.325 422.715V407.239H429.166V394.001H433.325V373.172H441.826V394.001H454.769V407.239H441.826V422.715C441.826 424.11 441.994 425.424 442.328 426.657C442.661 427.857 443.12 428.912 443.702 429.821C444.286 430.729 444.974 431.459 445.766 432.01C446.559 432.53 447.401 432.789 448.298 432.789H454.769V446.027H448.298ZM492 446.027H489.935L486.622 438.873C485.809 440.008 484.944 441.079 484.027 442.085C483.133 443.058 482.183 443.918 481.183 444.664C480.183 445.378 479.15 445.946 478.089 446.368C477.046 446.789 475.984 447 474.901 447C472.546 447 470.326 446.384 468.24 445.151C466.178 443.918 464.364 442.133 462.801 439.797C461.259 437.429 460.04 434.541 459.144 431.135C458.248 427.728 457.8 423.851 457.8 419.503C457.8 415.448 458.248 411.732 459.144 408.358C460.04 404.951 461.259 402.031 462.801 399.598C464.364 397.165 466.178 395.283 468.24 393.953C470.326 392.59 472.546 391.909 474.901 391.909C475.984 391.909 477.056 392.12 478.121 392.541C479.183 392.963 480.215 393.547 481.215 394.293C482.215 395.04 483.162 395.915 484.059 396.921C484.976 397.927 485.83 399.014 486.622 400.182L489.935 394.001H492V446.027ZM483.403 419.503C483.403 417.686 483.173 415.934 482.714 414.247C482.277 412.527 481.674 411.019 480.903 409.721C480.129 408.39 479.225 407.336 478.182 406.557C477.161 405.746 476.067 405.341 474.901 405.341C473.733 405.341 472.628 405.649 471.585 406.265C470.566 406.882 469.67 407.79 468.899 408.991C468.147 410.191 467.555 411.684 467.117 413.468C466.68 415.22 466.461 417.232 466.461 419.503C466.461 421.774 466.68 423.802 467.117 425.587C467.555 427.338 468.147 428.815 468.899 430.015C469.67 431.216 470.566 432.124 471.585 432.741C472.628 433.357 473.733 433.665 474.901 433.665C476.067 433.665 477.161 433.276 478.182 432.497C479.225 431.686 480.129 430.632 480.903 429.334C481.674 428.004 482.277 426.495 482.714 424.808C483.173 423.088 483.403 421.32 483.403 419.503Z" fill="white"/>
<rect x="247.051" y="173.244" width="95.9397" height="169.368" fill="#FFFF8A"/>
<rect x="265.04" y="185.342" width="59.9623" height="145.172" fill="black" fill-opacity="0.83"/>
<rect x="271.036" y="191.391" width="47.9699" height="133.075" fill="#FFFF8A"/>
<rect x="305.258" y="263.835" width="13.7892" height="6.14413" fill="black" fill-opacity="0.83"/>
<rect x="271.036" y="173.244" width="47.9699" height="6.04885" fill="black" fill-opacity="0.83"/>
<path d="M354.983 175.008C354.983 184.65 328.137 175.008 295.02 175.008C261.904 175.008 235.058 184.65 235.058 175.008C235.058 165.365 261.904 143 295.02 143C328.137 143 354.983 165.365 354.983 175.008Z" fill="#FFFF8A"/>
<rect x="271.036" y="161.146" width="47.9699" height="6.04885" fill="black" fill-opacity="0.83"/>
<path d="M210.672 354.085L379.739 354.085" stroke="white" stroke-width="11"/>
</svg>
