<svg width="270" height="159" viewBox="0 0 270 159" fill="none" xmlns="http://www.w3.org/2000/svg">
<rect x="113.158" y="14.2001" width="43.8544" height="79.5193" fill="#EF648A"/>
<rect x="121.381" y="19.88" width="27.409" height="68.1594" fill="black" fill-opacity="0.83"/>
<rect x="124.122" y="22.7198" width="21.9272" height="62.4795" fill="#EF648A"/>
<rect x="139.765" y="56.7329" width="6.30312" height="2.88471" fill="black" fill-opacity="0.83"/>
<rect x="124.122" y="14.2001" width="21.9272" height="2.83998" fill="black" fill-opacity="0.83"/>
<path d="M162.494 15.0278C162.494 19.5549 150.223 15.0278 135.085 15.0278C119.947 15.0278 107.676 19.5549 107.676 15.0278C107.676 10.5007 119.947 0 135.085 0C150.223 0 162.494 10.5007 162.494 15.0278Z" fill="#EF648A"/>
<rect x="124.122" y="8.52002" width="21.9272" height="2.83998" fill="black" fill-opacity="0.83"/>
<path d="M76 104.895L196.401 104.184" stroke="white" stroke-width="11"/>
<path d="M3.14606 124.628C3.36206 124.628 3.79406 124.628 4.44206 124.628C5.09006 124.604 5.81006 124.592 6.60206 124.592C7.39406 124.592 8.16206 124.592 8.90606 124.592C9.65006 124.568 10.2261 124.556 10.6341 124.556C13.7061 124.556 16.0101 125.144 17.5461 126.32C19.0821 127.496 19.8501 129.236 19.8501 131.54C19.8501 133.076 19.4781 134.348 18.7341 135.356C17.9901 136.34 16.9821 137.108 15.7101 137.66C16.4301 138.068 17.0661 138.608 17.6181 139.28C18.1701 139.952 18.6981 140.768 19.2021 141.728C19.7061 142.664 20.2101 143.744 20.7141 144.968C21.2421 146.192 21.8181 147.536 22.4421 149H16.0701C15.3021 147.32 14.6541 145.844 14.1261 144.572C13.5981 143.276 13.1061 142.196 12.6501 141.332C12.1941 140.444 11.7381 139.784 11.2821 139.352C10.8501 138.896 10.3221 138.668 9.69806 138.668H9.08606V149H3.14606V124.628ZM9.08606 134.96H10.5981C11.4381 134.96 12.1461 134.708 12.7221 134.204C13.3221 133.676 13.6221 132.86 13.6221 131.756C13.6221 131.3 13.5621 130.88 13.4421 130.496C13.3461 130.088 13.1781 129.74 12.9381 129.452C12.6981 129.14 12.3621 128.9 11.9301 128.732C11.5221 128.54 11.0181 128.444 10.4181 128.444H9.08606V134.96ZM22.7337 140.468C22.7337 138.86 22.9617 137.444 23.4177 136.22C23.8977 134.972 24.5457 133.94 25.3617 133.124C26.2017 132.284 27.1737 131.648 28.2777 131.216C29.3817 130.784 30.5817 130.568 31.8777 130.568C33.0057 130.568 33.9657 130.712 34.7577 131C35.5497 131.264 36.1977 131.648 36.7017 132.152C37.2057 132.632 37.5777 133.208 37.8177 133.88C38.0577 134.528 38.1777 135.236 38.1777 136.004C38.1777 136.868 37.9617 137.684 37.5297 138.452C37.0977 139.22 36.4737 139.904 35.6577 140.504C34.8657 141.08 33.8937 141.56 32.7417 141.944C31.6137 142.328 30.3297 142.58 28.8897 142.7C29.0577 143.42 29.3577 144.008 29.7897 144.464C30.2457 144.896 30.9297 145.112 31.8417 145.112C32.3697 145.112 32.9337 145.052 33.5337 144.932C34.1337 144.812 34.6857 144.68 35.1897 144.536C35.7897 144.368 36.3777 144.176 36.9537 143.96L38.0337 147.704C37.3857 148.016 36.6777 148.292 35.9097 148.532C35.2617 148.724 34.5057 148.904 33.6417 149.072C32.8017 149.24 31.9017 149.324 30.9417 149.324C29.4777 149.324 28.2177 149.108 27.1617 148.676C26.1297 148.244 25.2777 147.644 24.6057 146.876C23.9577 146.108 23.4777 145.184 23.1657 144.104C22.8777 143 22.7337 141.788 22.7337 140.468ZM31.1577 134.636C30.7017 134.636 30.3057 134.768 29.9697 135.032C29.6577 135.296 29.4057 135.644 29.2137 136.076C29.0217 136.508 28.8777 136.988 28.7817 137.516C28.6857 138.044 28.6257 138.56 28.6017 139.064C29.3217 139.04 29.9217 138.932 30.4017 138.74C30.9057 138.548 31.3137 138.308 31.6257 138.02C31.9377 137.732 32.1657 137.42 32.3097 137.084C32.4537 136.748 32.5257 136.436 32.5257 136.148C32.5257 135.692 32.3937 135.332 32.1297 135.068C31.8897 134.78 31.5657 134.636 31.1577 134.636ZM45.6123 149.144C44.7723 149.144 44.0523 149.024 43.4523 148.784C42.8763 148.544 42.3843 148.22 41.9763 147.812C41.5923 147.38 41.3043 146.888 41.1123 146.336C40.9443 145.784 40.8603 145.184 40.8603 144.536V123.872L46.5483 122.9V143.312C46.5483 143.888 46.6443 144.296 46.8363 144.536C47.0523 144.752 47.4363 144.86 47.9883 144.86C48.2523 144.86 48.5403 144.836 48.8523 144.788C49.1883 144.74 49.4883 144.692 49.7523 144.644L50.2923 148.208C49.9323 148.376 49.3203 148.58 48.4563 148.82C47.6163 149.036 46.6683 149.144 45.6123 149.144ZM56.9987 149.144C55.6307 149.144 54.5267 148.796 53.6867 148.1C52.8467 147.38 52.4267 146.372 52.4267 145.076V130.928H58.1147V143.456C58.1147 144.008 58.1987 144.38 58.3667 144.572C58.5347 144.764 58.7867 144.86 59.1227 144.86C59.3147 144.86 59.5067 144.848 59.6987 144.824C59.8907 144.776 60.0107 144.74 60.0587 144.716L60.5627 148.28C60.5387 148.304 60.4307 148.364 60.2387 148.46C60.0467 148.532 59.7947 148.628 59.4827 148.748C59.1707 148.844 58.7987 148.928 58.3667 149C57.9347 149.096 57.4787 149.144 56.9987 149.144ZM55.3427 122.252C56.3507 122.252 57.1187 122.552 57.6467 123.152C58.1747 123.752 58.4387 124.508 58.4387 125.42C58.4387 126.356 58.1627 127.136 57.6107 127.76C57.0827 128.384 56.2787 128.696 55.1987 128.696C54.1907 128.696 53.4107 128.396 52.8587 127.796C52.3307 127.172 52.0667 126.44 52.0667 125.6C52.0667 124.64 52.3427 123.848 52.8947 123.224C53.4467 122.576 54.2627 122.252 55.3427 122.252ZM77.9923 140.324C77.9923 141.764 78.0883 142.964 78.2803 143.924C78.4723 144.884 78.7003 145.652 78.9643 146.228C79.2523 146.924 79.5883 147.464 79.9723 147.848L75.4003 149.288C75.1363 149.048 74.8963 148.748 74.6803 148.388C74.4883 148.076 74.2963 147.704 74.1043 147.272C73.9363 146.816 73.7923 146.288 73.6723 145.688C73.2643 146.816 72.6643 147.692 71.8723 148.316C71.0803 148.916 70.0363 149.216 68.7403 149.216C67.5643 149.216 66.5323 149 65.6443 148.568C64.7803 148.136 64.0603 147.536 63.4843 146.768C62.9083 145.976 62.4763 145.028 62.1883 143.924C61.9243 142.82 61.7923 141.596 61.7923 140.252C61.7923 138.884 62.0083 137.612 62.4403 136.436C62.8963 135.26 63.5203 134.252 64.3123 133.412C65.1043 132.548 66.0523 131.876 67.1563 131.396C68.2603 130.916 69.4843 130.676 70.8283 130.676C71.5723 130.676 72.3643 130.736 73.2043 130.856C74.0443 130.952 74.8123 131.072 75.5083 131.216C76.2043 131.336 76.7803 131.456 77.2363 131.576C77.7163 131.672 77.9683 131.72 77.9923 131.72V140.324ZM69.6763 145.04C70.0363 145.04 70.3723 144.884 70.6843 144.572C71.0203 144.26 71.3083 143.84 71.5483 143.312C71.7883 142.784 71.9683 142.184 72.0883 141.512C72.2323 140.816 72.3043 140.084 72.3043 139.316V135.14C72.1363 135.068 71.8963 135.008 71.5843 134.96C71.2963 134.888 71.0443 134.852 70.8283 134.852C70.2523 134.852 69.7723 134.984 69.3883 135.248C69.0043 135.488 68.6923 135.836 68.4523 136.292C68.2363 136.724 68.0803 137.252 67.9843 137.876C67.8883 138.5 67.8403 139.172 67.8403 139.892C67.8403 140.564 67.8523 141.212 67.8763 141.836C67.9003 142.436 67.9723 142.976 68.0923 143.456C68.2363 143.936 68.4283 144.32 68.6683 144.608C68.9083 144.896 69.2443 145.04 69.6763 145.04ZM82.4543 123.872L88.1423 122.9V132.476C89.0783 131.276 90.3263 130.676 91.8863 130.676C93.0143 130.676 93.9983 130.892 94.8383 131.324C95.7023 131.756 96.4103 132.368 96.9623 133.16C97.5383 133.928 97.9583 134.864 98.2223 135.968C98.5103 137.072 98.6543 138.308 98.6543 139.676C98.6543 141.044 98.4263 142.316 97.9703 143.492C97.5383 144.644 96.9263 145.652 96.1343 146.516C95.3423 147.356 94.3943 148.016 93.2903 148.496C92.1863 148.976 90.9623 149.216 89.6183 149.216C88.8743 149.216 88.0943 149.168 87.2783 149.072C86.4863 148.976 85.7423 148.868 85.0463 148.748C84.3743 148.628 83.7983 148.52 83.3183 148.424C82.8383 148.304 82.5503 148.22 82.4543 148.172V123.872ZM90.7703 134.852C90.3863 134.852 90.0263 135.02 89.6903 135.356C89.3783 135.692 89.1023 136.136 88.8623 136.688C88.6463 137.24 88.4663 137.888 88.3223 138.632C88.2023 139.376 88.1423 140.144 88.1423 140.936V144.788C88.2863 144.836 88.5023 144.896 88.7903 144.968C89.1023 145.016 89.3783 145.04 89.6183 145.04C90.1943 145.04 90.6743 144.92 91.0583 144.68C91.4423 144.416 91.7423 144.068 91.9583 143.636C92.1983 143.18 92.3663 142.652 92.4623 142.052C92.5583 141.428 92.6063 140.756 92.6063 140.036C92.6063 139.364 92.5943 138.716 92.5703 138.092C92.5463 137.468 92.4623 136.916 92.3183 136.436C92.1983 135.956 92.0183 135.572 91.7783 135.284C91.5383 134.996 91.2023 134.852 90.7703 134.852ZM106.257 149.144C105.417 149.144 104.697 149.024 104.097 148.784C103.521 148.544 103.029 148.22 102.621 147.812C102.237 147.38 101.949 146.888 101.757 146.336C101.589 145.784 101.505 145.184 101.505 144.536V123.872L107.193 122.9V143.312C107.193 143.888 107.289 144.296 107.481 144.536C107.697 144.752 108.081 144.86 108.633 144.86C108.897 144.86 109.185 144.836 109.497 144.788C109.833 144.74 110.133 144.692 110.397 144.644L110.937 148.208C110.577 148.376 109.965 148.58 109.101 148.82C108.261 149.036 107.313 149.144 106.257 149.144ZM111.644 140.468C111.644 138.86 111.872 137.444 112.328 136.22C112.808 134.972 113.456 133.94 114.272 133.124C115.112 132.284 116.084 131.648 117.188 131.216C118.292 130.784 119.492 130.568 120.788 130.568C121.916 130.568 122.876 130.712 123.668 131C124.46 131.264 125.108 131.648 125.612 132.152C126.116 132.632 126.488 133.208 126.728 133.88C126.968 134.528 127.088 135.236 127.088 136.004C127.088 136.868 126.872 137.684 126.44 138.452C126.008 139.22 125.384 139.904 124.568 140.504C123.776 141.08 122.804 141.56 121.652 141.944C120.524 142.328 119.24 142.58 117.8 142.7C117.968 143.42 118.268 144.008 118.7 144.464C119.156 144.896 119.84 145.112 120.752 145.112C121.28 145.112 121.844 145.052 122.444 144.932C123.044 144.812 123.596 144.68 124.1 144.536C124.7 144.368 125.288 144.176 125.864 143.96L126.944 147.704C126.296 148.016 125.588 148.292 124.82 148.532C124.172 148.724 123.416 148.904 122.552 149.072C121.712 149.24 120.812 149.324 119.852 149.324C118.388 149.324 117.128 149.108 116.072 148.676C115.04 148.244 114.188 147.644 113.516 146.876C112.868 146.108 112.388 145.184 112.076 144.104C111.788 143 111.644 141.788 111.644 140.468ZM120.068 134.636C119.612 134.636 119.216 134.768 118.88 135.032C118.568 135.296 118.316 135.644 118.124 136.076C117.932 136.508 117.788 136.988 117.692 137.516C117.596 138.044 117.536 138.56 117.512 139.064C118.232 139.04 118.832 138.932 119.312 138.74C119.816 138.548 120.224 138.308 120.536 138.02C120.848 137.732 121.076 137.42 121.22 137.084C121.364 136.748 121.436 136.436 121.436 136.148C121.436 135.692 121.304 135.332 121.04 135.068C120.8 134.78 120.476 134.636 120.068 134.636ZM139.306 124.628C139.474 124.628 139.87 124.628 140.494 124.628C141.142 124.604 141.85 124.592 142.618 124.592C143.386 124.592 144.154 124.592 144.922 124.592C145.69 124.568 146.314 124.556 146.794 124.556C149.866 124.556 152.17 125.216 153.706 126.536C155.242 127.832 156.01 129.644 156.01 131.972C156.01 134.54 155.146 136.472 153.418 137.768C151.69 139.04 149.326 139.676 146.326 139.676H145.246V149H139.306V124.628ZM145.246 135.752H146.758C147.574 135.752 148.282 135.476 148.882 134.924C149.482 134.348 149.782 133.46 149.782 132.26C149.782 131.252 149.53 130.376 149.026 129.632C148.546 128.888 147.73 128.504 146.578 128.48C146.266 128.48 146.002 128.492 145.786 128.516C145.57 128.516 145.39 128.528 145.246 128.552V135.752ZM164.543 130.568C167.399 130.568 169.475 131.384 170.771 133.016C172.091 134.648 172.751 136.904 172.751 139.784C172.751 141.152 172.571 142.424 172.211 143.6C171.875 144.752 171.347 145.76 170.627 146.624C169.931 147.464 169.043 148.136 167.963 148.64C166.907 149.12 165.671 149.36 164.255 149.36C162.815 149.36 161.567 149.156 160.511 148.748C159.479 148.316 158.627 147.704 157.955 146.912C157.307 146.12 156.815 145.16 156.479 144.032C156.167 142.88 156.011 141.596 156.011 140.18C156.011 138.812 156.179 137.54 156.515 136.364C156.875 135.188 157.403 134.18 158.099 133.34C158.819 132.476 159.707 131.804 160.763 131.324C161.843 130.82 163.103 130.568 164.543 130.568ZM164.219 134.852C163.787 134.852 163.427 134.984 163.139 135.248C162.851 135.488 162.623 135.836 162.455 136.292C162.311 136.724 162.203 137.24 162.131 137.84C162.083 138.44 162.059 139.088 162.059 139.784C162.059 140.504 162.095 141.188 162.167 141.836C162.239 142.484 162.359 143.048 162.527 143.528C162.719 144.008 162.983 144.392 163.319 144.68C163.655 144.944 164.075 145.076 164.579 145.076C165.011 145.076 165.371 144.944 165.659 144.68C165.947 144.416 166.163 144.068 166.307 143.636C166.475 143.18 166.583 142.652 166.631 142.052C166.703 141.452 166.739 140.816 166.739 140.144C166.739 139.4 166.703 138.716 166.631 138.092C166.559 137.444 166.427 136.88 166.235 136.4C166.067 135.92 165.815 135.548 165.479 135.284C165.143 134.996 164.723 134.852 164.219 134.852ZM184.794 136.112C184.53 136.112 184.242 136.184 183.93 136.328C183.618 136.472 183.318 136.7 183.03 137.012C182.742 137.3 182.502 137.684 182.31 138.164C182.118 138.62 182.022 139.172 182.022 139.82V149H176.334V139.64C176.334 138.2 176.226 137.012 176.01 136.076C175.818 135.116 175.59 134.336 175.326 133.736C175.038 133.064 174.714 132.524 174.354 132.116L178.926 130.676C179.118 130.916 179.322 131.192 179.538 131.504C179.706 131.768 179.886 132.104 180.078 132.512C180.27 132.92 180.426 133.388 180.546 133.916C181.146 132.764 181.854 131.936 182.67 131.432C183.51 130.928 184.494 130.676 185.622 130.676C186.126 130.676 186.57 130.724 186.954 130.82C187.362 130.892 187.698 130.976 187.962 131.072L186.486 136.508C186.318 136.412 186.09 136.328 185.802 136.256C185.538 136.16 185.202 136.112 184.794 136.112ZM188.798 131.072H191.75L192.362 127.364L197.294 126.284V131.072H201.542L200.858 135.248H197.294V143.276C197.294 144.332 197.846 144.86 198.95 144.86C199.55 144.86 200.126 144.8 200.678 144.68C200.966 144.608 201.254 144.536 201.542 144.464L202.514 148.28C202.034 148.448 201.362 148.64 200.498 148.856C199.658 149.048 198.626 149.144 197.402 149.144C195.602 149.144 194.186 148.772 193.154 148.028C192.146 147.284 191.642 146.024 191.642 144.248V135.248H188.798V131.072ZM219.18 140.324C219.18 141.764 219.276 142.964 219.468 143.924C219.66 144.884 219.888 145.652 220.152 146.228C220.44 146.924 220.776 147.464 221.16 147.848L216.588 149.288C216.324 149.048 216.084 148.748 215.868 148.388C215.676 148.076 215.484 147.704 215.292 147.272C215.124 146.816 214.98 146.288 214.86 145.688C214.452 146.816 213.852 147.692 213.06 148.316C212.268 148.916 211.224 149.216 209.928 149.216C208.752 149.216 207.72 149 206.832 148.568C205.968 148.136 205.248 147.536 204.672 146.768C204.096 145.976 203.664 145.028 203.376 143.924C203.112 142.82 202.98 141.596 202.98 140.252C202.98 138.884 203.196 137.612 203.628 136.436C204.084 135.26 204.708 134.252 205.5 133.412C206.292 132.548 207.24 131.876 208.344 131.396C209.448 130.916 210.672 130.676 212.016 130.676C212.76 130.676 213.552 130.736 214.392 130.856C215.232 130.952 216 131.072 216.696 131.216C217.392 131.336 217.968 131.456 218.424 131.576C218.904 131.672 219.156 131.72 219.18 131.72V140.324ZM210.864 145.04C211.224 145.04 211.56 144.884 211.872 144.572C212.208 144.26 212.496 143.84 212.736 143.312C212.976 142.784 213.156 142.184 213.276 141.512C213.42 140.816 213.492 140.084 213.492 139.316V135.14C213.324 135.068 213.084 135.008 212.772 134.96C212.484 134.888 212.232 134.852 212.016 134.852C211.44 134.852 210.96 134.984 210.576 135.248C210.192 135.488 209.88 135.836 209.64 136.292C209.424 136.724 209.268 137.252 209.172 137.876C209.076 138.5 209.028 139.172 209.028 139.892C209.028 140.564 209.04 141.212 209.064 141.836C209.088 142.436 209.16 142.976 209.28 143.456C209.424 143.936 209.616 144.32 209.856 144.608C210.096 144.896 210.432 145.04 210.864 145.04ZM223.642 123.872L229.33 122.9V132.476C230.266 131.276 231.514 130.676 233.074 130.676C234.202 130.676 235.186 130.892 236.026 131.324C236.89 131.756 237.598 132.368 238.15 133.16C238.726 133.928 239.146 134.864 239.41 135.968C239.698 137.072 239.842 138.308 239.842 139.676C239.842 141.044 239.614 142.316 239.158 143.492C238.726 144.644 238.114 145.652 237.322 146.516C236.53 147.356 235.582 148.016 234.478 148.496C233.374 148.976 232.15 149.216 230.806 149.216C230.062 149.216 229.282 149.168 228.466 149.072C227.674 148.976 226.93 148.868 226.234 148.748C225.562 148.628 224.986 148.52 224.506 148.424C224.026 148.304 223.738 148.22 223.642 148.172V123.872ZM231.958 134.852C231.574 134.852 231.214 135.02 230.878 135.356C230.566 135.692 230.29 136.136 230.05 136.688C229.834 137.24 229.654 137.888 229.51 138.632C229.39 139.376 229.33 140.144 229.33 140.936V144.788C229.474 144.836 229.69 144.896 229.978 144.968C230.29 145.016 230.566 145.04 230.806 145.04C231.382 145.04 231.862 144.92 232.246 144.68C232.63 144.416 232.93 144.068 233.146 143.636C233.386 143.18 233.554 142.652 233.65 142.052C233.746 141.428 233.794 140.756 233.794 140.036C233.794 139.364 233.782 138.716 233.758 138.092C233.734 137.468 233.65 136.916 233.506 136.436C233.386 135.956 233.206 135.572 232.966 135.284C232.726 134.996 232.39 134.852 231.958 134.852ZM247.444 149.144C246.604 149.144 245.884 149.024 245.284 148.784C244.708 148.544 244.216 148.22 243.808 147.812C243.424 147.38 243.136 146.888 242.944 146.336C242.776 145.784 242.692 145.184 242.692 144.536V123.872L248.38 122.9V143.312C248.38 143.888 248.476 144.296 248.668 144.536C248.884 144.752 249.268 144.86 249.82 144.86C250.084 144.86 250.372 144.836 250.684 144.788C251.02 144.74 251.32 144.692 251.584 144.644L252.124 148.208C251.764 148.376 251.152 148.58 250.288 148.82C249.448 149.036 248.5 149.144 247.444 149.144ZM252.831 140.468C252.831 138.86 253.059 137.444 253.515 136.22C253.995 134.972 254.643 133.94 255.459 133.124C256.299 132.284 257.271 131.648 258.375 131.216C259.479 130.784 260.679 130.568 261.975 130.568C263.103 130.568 264.063 130.712 264.855 131C265.647 131.264 266.295 131.648 266.799 132.152C267.303 132.632 267.675 133.208 267.915 133.88C268.155 134.528 268.275 135.236 268.275 136.004C268.275 136.868 268.059 137.684 267.627 138.452C267.195 139.22 266.571 139.904 265.755 140.504C264.963 141.08 263.991 141.56 262.839 141.944C261.711 142.328 260.427 142.58 258.987 142.7C259.155 143.42 259.455 144.008 259.887 144.464C260.343 144.896 261.027 145.112 261.939 145.112C262.467 145.112 263.031 145.052 263.631 144.932C264.231 144.812 264.783 144.68 265.287 144.536C265.887 144.368 266.475 144.176 267.051 143.96L268.131 147.704C267.483 148.016 266.775 148.292 266.007 148.532C265.359 148.724 264.603 148.904 263.739 149.072C262.899 149.24 261.999 149.324 261.039 149.324C259.575 149.324 258.315 149.108 257.259 148.676C256.227 148.244 255.375 147.644 254.703 146.876C254.055 146.108 253.575 145.184 253.263 144.104C252.975 143 252.831 141.788 252.831 140.468ZM261.255 134.636C260.799 134.636 260.403 134.768 260.067 135.032C259.755 135.296 259.503 135.644 259.311 136.076C259.119 136.508 258.975 136.988 258.879 137.516C258.783 138.044 258.723 138.56 258.699 139.064C259.419 139.04 260.019 138.932 260.499 138.74C261.003 138.548 261.411 138.308 261.723 138.02C262.035 137.732 262.263 137.42 262.407 137.084C262.551 136.748 262.623 136.436 262.623 136.148C262.623 135.692 262.491 135.332 262.227 135.068C261.987 134.78 261.663 134.636 261.255 134.636Z" fill="white"/>
</svg>
